  0
SECTION
  2
HEADER
  9
$MEASUREMENT
  70
  1
  9
$INSUNITS
  70
  4
  0
ENDSEC
  0
SECTION
  2
TABLES
  0
TABLE
  2
LTYPE
 70
     1
  0
LTYPE
  2
CONTINUOUS
 70
    64
  3
Ausgezogene Linie
 72
    65
 73
     0
 40
0.0
  0
ENDTAB
  0
TABLE
  2
LAYER
 70
     3
  0
LAYER
  2
Contour
 70
    64
 62
     7
  6
CONTINUOUS
  0
LAYER
  2
Engraving
 70
    64
 62
     7
  6
CONTINUOUS
  0
LAYER
  2
Reference_points
 70
    64
 62
     1
  6
CONTINUOUS
  0
ENDTAB
  0
TABLE
  2
STYLE
 70
     1
  0
STYLE
  2
TXT
 70
    64
 40
0.0
 41
1.0
 50
0.0
 71
     0
 42
3.500000
  3
TXT
  0
ENDTAB
  0
ENDSEC
  0
SECTION
  2
BLOCKS
  0
ENDSEC
  0
SECTION
  2
ENTITIES
  0
LINE
  8
Contour
 62
   7
 39
0.100
  6
CONTINUOUS
 10
190.00000
 20
105.00000
 30
 0
 11
0.00000
 21
105.00000
  0
LINE
  8
Contour
 62
   7
 39
0.100
  6
CONTINUOUS
 10
0.00000
 20
105.00000
 30
 0
 11
0.00000
 21
105.00000
  0
LINE
  8
Contour
 62
   7
 39
0.100
  6
CONTINUOUS
 10
0.00000
 20
105.00000
 30
 0
 11
0.00000
 21
0.00000
  0
LINE
  8
Contour
 62
   7
 39
0.100
  6
CONTINUOUS
 10
0.00000
 20
0.00000
 30
 0
 11
0.00000
 21
0.00000
  0
LINE
  8
Contour
 62
   7
 39
0.100
  6
CONTINUOUS
 10
0.00000
 20
0.00000
 30
 0
 11
190.00000
 21
0.00000
  0
LINE
  8
Contour
 62
   7
 39
0.100
  6
CONTINUOUS
 10
190.00000
 20
0.00000
 30
 0
 11
190.00000
 21
0.00000
  0
LINE
  8
Contour
 62
   7
 39
0.100
  6
CONTINUOUS
 10
190.00000
 20
0.00000
 30
 0
 11
190.00000
 21
105.00000
  0
LINE
  8
Contour
 62
   7
 39
0.100
  6
CONTINUOUS
 10
190.00000
 20
105.00000
 30
 0
 11
190.00000
 21
105.00000
  0
LINE
  8
Engraving
 62
   7
 39
0.600
  6
CONTINUOUS
 10
84.00000
 20
14.63900
 30
 0
 11
85.23600
 21
14.63900
  0
LINE
  8
Engraving
 62
   7
 39
0.600
  6
CONTINUOUS
 10
85.23600
 20
14.63900
 30
 0
 11
85.41300
 21
14.61500
  0
LINE
  8
Engraving
 62
   7
 39
0.600
  6
CONTINUOUS
 10
85.41300
 20
14.61500
 30
 0
 11
85.58500
 21
14.55900
  0
LINE
  8
Engraving
 62
   7
 39
0.600
  6
CONTINUOUS
 10
85.58500
 20
14.55900
 30
 0
 11
85.74900
 21
14.47300
  0
LINE
  8
Engraving
 62
   7
 39
0.600
  6
CONTINUOUS
 10
85.74900
 20
14.47300
 30
 0
 11
85.90000
 21
14.35800
  0
LINE
  8
Engraving
 62
   7
 39
0.600
  6
CONTINUOUS
 10
85.90000
 20
14.35800
 30
 0
 11
86.03600
 21
14.21800
  0
LINE
  8
Engraving
 62
   7
 39
0.600
  6
CONTINUOUS
 10
86.03600
 20
14.21800
 30
 0
 11
86.15400
 21
14.05500
  0
LINE
  8
Engraving
 62
   7
 39
0.600
  6
CONTINUOUS
 10
86.15400
 20
14.05500
 30
 0
 11
86.24900
 21
13.87300
  0
LINE
  8
Engraving
 62
   7
 39
0.600
  6
CONTINUOUS
 10
86.24900
 20
13.87300
 30
 0
 11
86.32100
 21
13.67500
  0
LINE
  8
Engraving
 62
   7
 39
0.600
  6
CONTINUOUS
 10
86.32100
 20
13.67500
 30
 0
 11
86.36900
 21
13.46700
  0
LINE
  8
Engraving
 62
   7
 39
0.600
  6
CONTINUOUS
 10
86.36900
 20
13.46700
 30
 0
 11
86.39100
 21
13.25300
  0
LINE
  8
Engraving
 62
   7
 39
0.600
  6
CONTINUOUS
 10
86.39100
 20
13.25300
 30
 0
 11
86.39200
 21
13.19300
  0
LINE
  8
Engraving
 62
   7
 39
0.600
  6
CONTINUOUS
 10
86.39200
 20
13.19300
 30
 0
 11
86.39200
 21
11.74600
  0
LINE
  8
Engraving
 62
   7
 39
0.600
  6
CONTINUOUS
 10
86.39200
 20
11.74600
 30
 0
 11
86.38500
 21
11.54200
  0
LINE
  8
Engraving
 62
   7
 39
0.600
  6
CONTINUOUS
 10
86.38500
 20
11.54200
 30
 0
 11
86.35400
 21
11.34200
  0
LINE
  8
Engraving
 62
   7
 39
0.600
  6
CONTINUOUS
 10
86.35400
 20
11.34200
 30
 0
 11
86.30000
 21
11.14900
  0
LINE
  8
Engraving
 62
   7
 39
0.600
  6
CONTINUOUS
 10
86.30000
 20
11.14900
 30
 0
 11
86.22200
 21
10.96800
  0
LINE
  8
Engraving
 62
   7
 39
0.600
  6
CONTINUOUS
 10
86.22200
 20
10.96800
 30
 0
 11
86.12400
 21
10.80200
  0
LINE
  8
Engraving
 62
   7
 39
0.600
  6
CONTINUOUS
 10
86.12400
 20
10.80200
 30
 0
 11
86.00700
 21
10.65500
  0
LINE
  8
Engraving
 62
   7
 39
0.600
  6
CONTINUOUS
 10
86.00700
 20
10.65500
 30
 0
 11
85.87300
 21
10.53100
  0
LINE
  8
Engraving
 62
   7
 39
0.600
  6
CONTINUOUS
 10
85.87300
 20
10.53100
 30
 0
 11
85.72600
 21
10.43100
  0
LINE
  8
Engraving
 62
   7
 39
0.600
  6
CONTINUOUS
 10
85.72600
 20
10.43100
 30
 0
 11
85.56800
 21
10.35900
  0
LINE
  8
Engraving
 62
   7
 39
0.600
  6
CONTINUOUS
 10
85.56800
 20
10.35900
 30
 0
 11
85.40300
 21
10.31500
  0
LINE
  8
Engraving
 62
   7
 39
0.600
  6
CONTINUOUS
 10
85.40300
 20
10.31500
 30
 0
 11
85.23600
 21
10.30000
  0
LINE
  8
Engraving
 62
   7
 39
0.600
  6
CONTINUOUS
 10
85.23600
 20
10.30000
 30
 0
 11
84.00000
 21
10.30000
  0
LINE
  8
Engraving
 62
   7
 39
0.600
  6
CONTINUOUS
 10
84.00000
 20
10.30000
 30
 0
 11
84.00000
 21
14.63900
  0
LINE
  8
Engraving
 62
   7
 39
0.600
  6
CONTINUOUS
 10
87.34900
 20
14.63900
 30
 0
 11
87.34900
 21
14.39800
  0
LINE
  8
Engraving
 62
   7
 39
0.600
  6
CONTINUOUS
 10
87.34900
 20
13.19300
 30
 0
 11
87.34900
 21
10.30000
  0
LINE
  8
Engraving
 62
   7
 39
0.600
  6
CONTINUOUS
 10
88.30500
 20
10.68600
 30
 0
 11
88.45700
 21
10.54300
  0
LINE
  8
Engraving
 62
   7
 39
0.600
  6
CONTINUOUS
 10
88.45700
 20
10.54300
 30
 0
 11
88.62300
 21
10.42800
  0
LINE
  8
Engraving
 62
   7
 39
0.600
  6
CONTINUOUS
 10
88.62300
 20
10.42800
 30
 0
 11
88.80200
 21
10.34200
  0
LINE
  8
Engraving
 62
   7
 39
0.600
  6
CONTINUOUS
 10
88.80200
 20
10.34200
 30
 0
 11
88.98800
 21
10.28800
  0
LINE
  8
Engraving
 62
   7
 39
0.600
  6
CONTINUOUS
 10
88.98800
 20
10.28800
 30
 0
 11
89.18000
 21
10.26600
  0
LINE
  8
Engraving
 62
   7
 39
0.600
  6
CONTINUOUS
 10
89.18000
 20
10.26600
 30
 0
 11
89.37100
 21
10.27700
  0
LINE
  8
Engraving
 62
   7
 39
0.600
  6
CONTINUOUS
 10
89.37100
 20
10.27700
 30
 0
 11
89.56000
 21
10.32000
  0
LINE
  8
Engraving
 62
   7
 39
0.600
  6
CONTINUOUS
 10
89.56000
 20
10.32000
 30
 0
 11
89.74100
 21
10.39600
  0
LINE
  8
Engraving
 62
   7
 39
0.600
  6
CONTINUOUS
 10
89.74100
 20
10.39600
 30
 0
 11
89.74100
 21
10.39600
  0
LINE
  8
Engraving
 62
   7
 39
0.600
  6
CONTINUOUS
 10
89.74100
 20
10.39600
 30
 0
 11
89.80600
 21
10.43600
  0
LINE
  8
Engraving
 62
   7
 39
0.600
  6
CONTINUOUS
 10
89.80600
 20
10.43600
 30
 0
 11
89.86600
 21
10.48700
  0
LINE
  8
Engraving
 62
   7
 39
0.600
  6
CONTINUOUS
 10
89.86600
 20
10.48700
 30
 0
 11
89.91900
 21
10.54700
  0
LINE
  8
Engraving
 62
   7
 39
0.600
  6
CONTINUOUS
 10
89.91900
 20
10.54700
 30
 0
 11
89.96400
 21
10.61600
  0
LINE
  8
Engraving
 62
   7
 39
0.600
  6
CONTINUOUS
 10
89.96400
 20
10.61600
 30
 0
 11
90.00200
 21
10.69200
  0
LINE
  8
Engraving
 62
   7
 39
0.600
  6
CONTINUOUS
 10
90.00200
 20
10.69200
 30
 0
 11
90.02900
 21
10.77400
  0
LINE
  8
Engraving
 62
   7
 39
0.600
  6
CONTINUOUS
 10
90.02900
 20
10.77400
 30
 0
 11
90.04600
 21
10.86000
  0
LINE
  8
Engraving
 62
   7
 39
0.600
  6
CONTINUOUS
 10
90.04600
 20
10.86000
 30
 0
 11
90.05400
 21
10.94700
  0
LINE
  8
Engraving
 62
   7
 39
0.600
  6
CONTINUOUS
 10
90.05400
 20
10.94700
 30
 0
 11
90.05100
 21
11.03500
  0
LINE
  8
Engraving
 62
   7
 39
0.600
  6
CONTINUOUS
 10
90.05100
 20
11.03500
 30
 0
 11
90.03700
 21
11.12200
  0
LINE
  8
Engraving
 62
   7
 39
0.600
  6
CONTINUOUS
 10
90.03700
 20
11.12200
 30
 0
 11
90.01400
 21
11.20600
  0
LINE
  8
Engraving
 62
   7
 39
0.600
  6
CONTINUOUS
 10
90.01400
 20
11.20600
 30
 0
 11
89.98100
 21
11.28400
  0
LINE
  8
Engraving
 62
   7
 39
0.600
  6
CONTINUOUS
 10
89.98100
 20
11.28400
 30
 0
 11
89.93900
 21
11.35700
  0
LINE
  8
Engraving
 62
   7
 39
0.600
  6
CONTINUOUS
 10
89.93900
 20
11.35700
 30
 0
 11
89.88900
 21
11.42100
  0
LINE
  8
Engraving
 62
   7
 39
0.600
  6
CONTINUOUS
 10
89.88900
 20
11.42100
 30
 0
 11
89.83200
 21
11.47600
  0
LINE
  8
Engraving
 62
   7
 39
0.600
  6
CONTINUOUS
 10
89.83200
 20
11.47600
 30
 0
 11
89.76900
 21
11.52000
  0
LINE
  8
Engraving
 62
   7
 39
0.600
  6
CONTINUOUS
 10
89.76900
 20
11.52000
 30
 0
 11
89.70100
 21
11.55400
  0
LINE
  8
Engraving
 62
   7
 39
0.600
  6
CONTINUOUS
 10
89.70100
 20
11.55400
 30
 0
 11
89.70100
 21
11.55300
  0
LINE
  8
Engraving
 62
   7
 39
0.600
  6
CONTINUOUS
 10
89.70100
 20
11.55300
 30
 0
 11
88.62500
 21
11.98700
  0
LINE
  8
Engraving
 62
   7
 39
0.600
  6
CONTINUOUS
 10
88.62500
 20
11.98700
 30
 0
 11
88.56300
 21
12.01800
  0
LINE
  8
Engraving
 62
   7
 39
0.600
  6
CONTINUOUS
 10
88.56300
 20
12.01800
 30
 0
 11
88.50500
 21
12.06000
  0
LINE
  8
Engraving
 62
   7
 39
0.600
  6
CONTINUOUS
 10
88.50500
 20
12.06000
 30
 0
 11
88.45300
 21
12.11100
  0
LINE
  8
Engraving
 62
   7
 39
0.600
  6
CONTINUOUS
 10
88.45300
 20
12.11100
 30
 0
 11
88.40700
 21
12.17100
  0
LINE
  8
Engraving
 62
   7
 39
0.600
  6
CONTINUOUS
 10
88.40700
 20
12.17100
 30
 0
 11
88.37000
 21
12.23900
  0
LINE
  8
Engraving
 62
   7
 39
0.600
  6
CONTINUOUS
 10
88.37000
 20
12.23900
 30
 0
 11
88.34000
 21
12.31200
  0
LINE
  8
Engraving
 62
   7
 39
0.600
  6
CONTINUOUS
 10
88.34000
 20
12.31200
 30
 0
 11
88.32000
 21
12.39000
  0
LINE
  8
Engraving
 62
   7
 39
0.600
  6
CONTINUOUS
 10
88.32000
 20
12.39000
 30
 0
 11
88.31000
 21
12.47000
  0
LINE
  8
Engraving
 62
   7
 39
0.600
  6
CONTINUOUS
 10
88.31000
 20
12.47000
 30
 0
 11
88.31000
 21
12.55200
  0
LINE
  8
Engraving
 62
   7
 39
0.600
  6
CONTINUOUS
 10
88.31000
 20
12.55200
 30
 0
 11
88.31900
 21
12.63200
  0
LINE
  8
Engraving
 62
   7
 39
0.600
  6
CONTINUOUS
 10
88.31900
 20
12.63200
 30
 0
 11
88.33800
 21
12.71000
  0
LINE
  8
Engraving
 62
   7
 39
0.600
  6
CONTINUOUS
 10
88.33800
 20
12.71000
 30
 0
 11
88.36700
 21
12.78400
  0
LINE
  8
Engraving
 62
   7
 39
0.600
  6
CONTINUOUS
 10
88.36700
 20
12.78400
 30
 0
 11
88.40400
 21
12.85200
  0
LINE
  8
Engraving
 62
   7
 39
0.600
  6
CONTINUOUS
 10
88.40400
 20
12.85200
 30
 0
 11
88.44800
 21
12.91300
  0
LINE
  8
Engraving
 62
   7
 39
0.600
  6
CONTINUOUS
 10
88.44800
 20
12.91300
 30
 0
 11
88.50100
 21
12.96500
  0
LINE
  8
Engraving
 62
   7
 39
0.600
  6
CONTINUOUS
 10
88.50100
 20
12.96500
 30
 0
 11
88.54500
 21
13.00000
  0
LINE
  8
Engraving
 62
   7
 39
0.600
  6
CONTINUOUS
 10
88.54500
 20
13.00000
 30
 0
 11
88.73300
 21
13.10700
  0
LINE
  8
Engraving
 62
   7
 39
0.600
  6
CONTINUOUS
 10
88.73300
 20
13.10700
 30
 0
 11
88.93100
 21
13.18000
  0
LINE
  8
Engraving
 62
   7
 39
0.600
  6
CONTINUOUS
 10
88.93100
 20
13.18000
 30
 0
 11
89.13700
 21
13.21600
  0
LINE
  8
Engraving
 62
   7
 39
0.600
  6
CONTINUOUS
 10
89.13700
 20
13.21600
 30
 0
 11
89.34500
 21
13.21600
  0
LINE
  8
Engraving
 62
   7
 39
0.600
  6
CONTINUOUS
 10
89.34500
 20
13.21600
 30
 0
 11
89.55000
 21
13.17900
  0
LINE
  8
Engraving
 62
   7
 39
0.600
  6
CONTINUOUS
 10
89.55000
 20
13.17900
 30
 0
 11
89.74800
 21
13.10600
  0
LINE
  8
Engraving
 62
   7
 39
0.600
  6
CONTINUOUS
 10
89.74800
 20
13.10600
 30
 0
 11
89.93600
 21
12.99900
  0
LINE
  8
Engraving
 62
   7
 39
0.600
  6
CONTINUOUS
 10
89.93600
 20
12.99900
 30
 0
 11
90.06000
 21
12.90300
  0
LINE
  8
Engraving
 62
   7
 39
0.600
  6
CONTINUOUS
 10
91.37600
 20
14.63900
 30
 0
 11
91.37600
 21
13.19300
  0
LINE
  8
Engraving
 62
   7
 39
0.600
  6
CONTINUOUS
 10
91.37600
 20
13.19300
 30
 0
 11
91.97400
 21
13.19300
  0
LINE
  8
Engraving
 62
   7
 39
0.600
  6
CONTINUOUS
 10
91.97400
 20
13.19300
 30
 0
 11
90.97700
 21
13.19300
  0
LINE
  8
Engraving
 62
   7
 39
0.600
  6
CONTINUOUS
 10
90.97700
 20
13.19300
 30
 0
 11
91.37600
 21
13.19300
  0
LINE
  8
Engraving
 62
   7
 39
0.600
  6
CONTINUOUS
 10
91.37600
 20
13.19300
 30
 0
 11
91.37600
 21
10.87900
  0
LINE
  8
Engraving
 62
   7
 39
0.600
  6
CONTINUOUS
 10
91.37600
 20
10.87900
 30
 0
 11
91.38100
 21
10.79700
  0
LINE
  8
Engraving
 62
   7
 39
0.600
  6
CONTINUOUS
 10
91.38100
 20
10.79700
 30
 0
 11
91.39400
 21
10.71700
  0
LINE
  8
Engraving
 62
   7
 39
0.600
  6
CONTINUOUS
 10
91.39400
 20
10.71700
 30
 0
 11
91.41700
 21
10.64100
  0
LINE
  8
Engraving
 62
   7
 39
0.600
  6
CONTINUOUS
 10
91.41700
 20
10.64100
 30
 0
 11
91.44900
 21
10.56800
  0
LINE
  8
Engraving
 62
   7
 39
0.600
  6
CONTINUOUS
 10
91.44900
 20
10.56800
 30
 0
 11
91.48800
 21
10.50200
  0
LINE
  8
Engraving
 62
   7
 39
0.600
  6
CONTINUOUS
 10
91.48800
 20
10.50200
 30
 0
 11
91.53500
 21
10.44300
  0
LINE
  8
Engraving
 62
   7
 39
0.600
  6
CONTINUOUS
 10
91.53500
 20
10.44300
 30
 0
 11
91.58900
 21
10.39200
  0
LINE
  8
Engraving
 62
   7
 39
0.600
  6
CONTINUOUS
 10
91.58900
 20
10.39200
 30
 0
 11
91.64600
 21
10.35100
  0
LINE
  8
Engraving
 62
   7
 39
0.600
  6
CONTINUOUS
 10
91.64600
 20
10.35100
 30
 0
 11
91.70900
 21
10.32000
  0
LINE
  8
Engraving
 62
   7
 39
0.600
  6
CONTINUOUS
 10
91.70900
 20
10.32000
 30
 0
 11
91.77500
 21
10.30000
  0
LINE
  8
Engraving
 62
   7
 39
0.600
  6
CONTINUOUS
 10
91.77500
 20
10.30000
 30
 0
 11
91.77500
 21
10.30000
  0
LINE
  8
Engraving
 62
   7
 39
0.600
  6
CONTINUOUS
 10
95.00400
 20
13.19300
 30
 0
 11
95.00400
 21
11.50500
  0
LINE
  8
Engraving
 62
   7
 39
0.600
  6
CONTINUOUS
 10
95.00400
 20
11.50500
 30
 0
 11
94.99200
 21
11.31800
  0
LINE
  8
Engraving
 62
   7
 39
0.600
  6
CONTINUOUS
 10
94.99200
 20
11.31800
 30
 0
 11
94.95800
 21
11.13600
  0
LINE
  8
Engraving
 62
   7
 39
0.600
  6
CONTINUOUS
 10
94.95800
 20
11.13600
 30
 0
 11
94.90200
 21
10.96100
  0
LINE
  8
Engraving
 62
   7
 39
0.600
  6
CONTINUOUS
 10
94.90200
 20
10.96100
 30
 0
 11
94.82400
 21
10.79900
  0
LINE
  8
Engraving
 62
   7
 39
0.600
  6
CONTINUOUS
 10
94.82400
 20
10.79900
 30
 0
 11
94.72800
 21
10.65300
  0
LINE
  8
Engraving
 62
   7
 39
0.600
  6
CONTINUOUS
 10
94.72800
 20
10.65300
 30
 0
 11
94.61400
 21
10.52500
  0
LINE
  8
Engraving
 62
   7
 39
0.600
  6
CONTINUOUS
 10
94.61400
 20
10.52500
 30
 0
 11
94.48600
 21
10.42000
  0
LINE
  8
Engraving
 62
   7
 39
0.600
  6
CONTINUOUS
 10
94.48600
 20
10.42000
 30
 0
 11
94.34700
 21
10.33900
  0
LINE
  8
Engraving
 62
   7
 39
0.600
  6
CONTINUOUS
 10
94.34700
 20
10.33900
 30
 0
 11
94.19900
 21
10.28300
  0
LINE
  8
Engraving
 62
   7
 39
0.600
  6
CONTINUOUS
 10
94.19900
 20
10.28300
 30
 0
 11
94.04600
 21
10.25600
  0
LINE
  8
Engraving
 62
   7
 39
0.600
  6
CONTINUOUS
 10
94.04600
 20
10.25600
 30
 0
 11
93.89000
 21
10.25600
  0
LINE
  8
Engraving
 62
   7
 39
0.600
  6
CONTINUOUS
 10
93.89000
 20
10.25600
 30
 0
 11
93.73700
 21
10.28300
  0
LINE
  8
Engraving
 62
   7
 39
0.600
  6
CONTINUOUS
 10
93.73700
 20
10.28300
 30
 0
 11
93.58900
 21
10.33900
  0
LINE
  8
Engraving
 62
   7
 39
0.600
  6
CONTINUOUS
 10
93.58900
 20
10.33900
 30
 0
 11
93.45000
 21
10.42000
  0
LINE
  8
Engraving
 62
   7
 39
0.600
  6
CONTINUOUS
 10
93.45000
 20
10.42000
 30
 0
 11
93.32200
 21
10.52500
  0
LINE
  8
Engraving
 62
   7
 39
0.600
  6
CONTINUOUS
 10
93.32200
 20
10.52500
 30
 0
 11
93.20800
 21
10.65300
  0
LINE
  8
Engraving
 62
   7
 39
0.600
  6
CONTINUOUS
 10
93.20800
 20
10.65300
 30
 0
 11
93.11200
 21
10.79900
  0
LINE
  8
Engraving
 62
   7
 39
0.600
  6
CONTINUOUS
 10
93.11200
 20
10.79900
 30
 0
 11
93.03400
 21
10.96100
  0
LINE
  8
Engraving
 62
   7
 39
0.600
  6
CONTINUOUS
 10
93.03400
 20
10.96100
 30
 0
 11
92.97800
 21
11.13600
  0
LINE
  8
Engraving
 62
   7
 39
0.600
  6
CONTINUOUS
 10
92.97800
 20
11.13600
 30
 0
 11
92.94300
 21
11.31800
  0
LINE
  8
Engraving
 62
   7
 39
0.600
  6
CONTINUOUS
 10
92.94300
 20
11.31800
 30
 0
 11
92.93200
 21
11.50500
  0
LINE
  8
Engraving
 62
   7
 39
0.600
  6
CONTINUOUS
 10
92.93200
 20
11.50500
 30
 0
 11
92.93100
 21
11.50500
  0
LINE
  8
Engraving
 62
   7
 39
0.600
  6
CONTINUOUS
 10
92.93100
 20
11.50500
 30
 0
 11
92.93100
 21
11.98700
  0
LINE
  8
Engraving
 62
   7
 39
0.600
  6
CONTINUOUS
 10
92.93100
 20
11.98700
 30
 0
 11
92.94200
 21
12.17400
  0
LINE
  8
Engraving
 62
   7
 39
0.600
  6
CONTINUOUS
 10
92.94200
 20
12.17400
 30
 0
 11
92.97700
 21
12.35600
  0
LINE
  8
Engraving
 62
   7
 39
0.600
  6
CONTINUOUS
 10
92.97700
 20
12.35600
 30
 0
 11
93.03300
 21
12.53100
  0
LINE
  8
Engraving
 62
   7
 39
0.600
  6
CONTINUOUS
 10
93.03300
 20
12.53100
 30
 0
 11
93.11100
 21
12.69300
  0
LINE
  8
Engraving
 62
   7
 39
0.600
  6
CONTINUOUS
 10
93.11100
 20
12.69300
 30
 0
 11
93.20700
 21
12.83900
  0
LINE
  8
Engraving
 62
   7
 39
0.600
  6
CONTINUOUS
 10
93.20700
 20
12.83900
 30
 0
 11
93.32100
 21
12.96700
  0
LINE
  8
Engraving
 62
   7
 39
0.600
  6
CONTINUOUS
 10
93.32100
 20
12.96700
 30
 0
 11
93.44900
 21
13.07200
  0
LINE
  8
Engraving
 62
   7
 39
0.600
  6
CONTINUOUS
 10
93.44900
 20
13.07200
 30
 0
 11
93.58800
 21
13.15300
  0
LINE
  8
Engraving
 62
   7
 39
0.600
  6
CONTINUOUS
 10
93.58800
 20
13.15300
 30
 0
 11
93.73600
 21
13.20900
  0
LINE
  8
Engraving
 62
   7
 39
0.600
  6
CONTINUOUS
 10
93.73600
 20
13.20900
 30
 0
 11
93.88900
 21
13.23600
  0
LINE
  8
Engraving
 62
   7
 39
0.600
  6
CONTINUOUS
 10
93.88900
 20
13.23600
 30
 0
 11
94.04500
 21
13.23600
  0
LINE
  8
Engraving
 62
   7
 39
0.600
  6
CONTINUOUS
 10
94.04500
 20
13.23600
 30
 0
 11
94.19800
 21
13.20900
  0
LINE
  8
Engraving
 62
   7
 39
0.600
  6
CONTINUOUS
 10
94.19800
 20
13.20900
 30
 0
 11
94.34600
 21
13.15300
  0
LINE
  8
Engraving
 62
   7
 39
0.600
  6
CONTINUOUS
 10
94.34600
 20
13.15300
 30
 0
 11
94.48600
 21
13.07200
  0
LINE
  8
Engraving
 62
   7
 39
0.600
  6
CONTINUOUS
 10
94.48600
 20
13.07200
 30
 0
 11
94.61300
 21
12.96700
  0
LINE
  8
Engraving
 62
   7
 39
0.600
  6
CONTINUOUS
 10
94.61300
 20
12.96700
 30
 0
 11
94.72700
 21
12.83900
  0
LINE
  8
Engraving
 62
   7
 39
0.600
  6
CONTINUOUS
 10
94.72700
 20
12.83900
 30
 0
 11
94.82300
 21
12.69300
  0
LINE
  8
Engraving
 62
   7
 39
0.600
  6
CONTINUOUS
 10
94.82300
 20
12.69300
 30
 0
 11
94.90100
 21
12.53100
  0
LINE
  8
Engraving
 62
   7
 39
0.600
  6
CONTINUOUS
 10
94.90100
 20
12.53100
 30
 0
 11
94.95700
 21
12.35600
  0
LINE
  8
Engraving
 62
   7
 39
0.600
  6
CONTINUOUS
 10
94.95700
 20
12.35600
 30
 0
 11
94.99200
 21
12.17400
  0
LINE
  8
Engraving
 62
   7
 39
0.600
  6
CONTINUOUS
 10
94.99200
 20
12.17400
 30
 0
 11
95.00300
 21
11.98700
  0
LINE
  8
Engraving
 62
   7
 39
0.600
  6
CONTINUOUS
 10
95.00300
 20
11.98700
 30
 0
 11
95.00400
 21
11.98700
  0
LINE
  8
Engraving
 62
   7
 39
0.600
  6
CONTINUOUS
 10
95.00400
 20
11.98700
 30
 0
 11
95.00400
 21
10.83000
  0
LINE
  8
Engraving
 62
   7
 39
0.600
  6
CONTINUOUS
 10
95.00400
 20
10.83000
 30
 0
 11
95.01800
 21
10.73000
  0
LINE
  8
Engraving
 62
   7
 39
0.600
  6
CONTINUOUS
 10
95.01800
 20
10.73000
 30
 0
 11
95.04400
 21
10.63300
  0
LINE
  8
Engraving
 62
   7
 39
0.600
  6
CONTINUOUS
 10
95.04400
 20
10.63300
 30
 0
 11
95.08100
 21
10.54200
  0
LINE
  8
Engraving
 62
   7
 39
0.600
  6
CONTINUOUS
 10
95.08100
 20
10.54200
 30
 0
 11
95.12800
 21
10.45800
  0
LINE
  8
Engraving
 62
   7
 39
0.600
  6
CONTINUOUS
 10
95.12800
 20
10.45800
 30
 0
 11
95.18500
 21
10.38300
  0
LINE
  8
Engraving
 62
   7
 39
0.600
  6
CONTINUOUS
 10
95.18500
 20
10.38300
 30
 0
 11
95.25100
 21
10.32000
  0
LINE
  8
Engraving
 62
   7
 39
0.600
  6
CONTINUOUS
 10
95.25100
 20
10.32000
 30
 0
 11
95.32300
 21
10.26800
  0
LINE
  8
Engraving
 62
   7
 39
0.600
  6
CONTINUOUS
 10
95.32300
 20
10.26800
 30
 0
 11
95.40100
 21
10.22900
  0
LINE
  8
Engraving
 62
   7
 39
0.600
  6
CONTINUOUS
 10
95.40100
 20
10.22900
 30
 0
 11
95.48200
 21
10.20400
  0
LINE
  8
Engraving
 62
   7
 39
0.600
  6
CONTINUOUS
 10
95.48200
 20
10.20400
 30
 0
 11
95.48200
 21
10.20400
  0
LINE
  8
Engraving
 62
   7
 39
0.600
  6
CONTINUOUS
 10
96.43900
 20
10.30000
 30
 0
 11
96.43900
 21
13.19300
  0
LINE
  8
Engraving
 62
   7
 39
0.600
  6
CONTINUOUS
 10
96.43900
 20
13.19300
 30
 0
 11
96.43900
 21
11.98700
  0
LINE
  8
Engraving
 62
   7
 39
0.600
  6
CONTINUOUS
 10
96.43900
 20
11.98700
 30
 0
 11
96.45000
 21
12.16700
  0
LINE
  8
Engraving
 62
   7
 39
0.600
  6
CONTINUOUS
 10
96.45000
 20
12.16700
 30
 0
 11
96.48400
 21
12.34200
  0
LINE
  8
Engraving
 62
   7
 39
0.600
  6
CONTINUOUS
 10
96.48400
 20
12.34200
 30
 0
 11
96.53700
 21
12.51000
  0
LINE
  8
Engraving
 62
   7
 39
0.600
  6
CONTINUOUS
 10
96.53700
 20
12.51000
 30
 0
 11
96.61200
 21
12.66600
  0
LINE
  8
Engraving
 62
   7
 39
0.600
  6
CONTINUOUS
 10
96.61200
 20
12.66600
 30
 0
 11
96.70500
 21
12.80700
  0
LINE
  8
Engraving
 62
   7
 39
0.600
  6
CONTINUOUS
 10
96.70500
 20
12.80700
 30
 0
 11
96.81400
 21
12.92900
  0
LINE
  8
Engraving
 62
   7
 39
0.600
  6
CONTINUOUS
 10
96.81400
 20
12.92900
 30
 0
 11
96.93800
 21
13.03100
  0
LINE
  8
Engraving
 62
   7
 39
0.600
  6
CONTINUOUS
 10
96.93800
 20
13.03100
 30
 0
 11
97.07200
 21
13.10900
  0
LINE
  8
Engraving
 62
   7
 39
0.600
  6
CONTINUOUS
 10
97.07200
 20
13.10900
 30
 0
 11
97.21400
 21
13.16200
  0
LINE
  8
Engraving
 62
   7
 39
0.600
  6
CONTINUOUS
 10
97.21400
 20
13.16200
 30
 0
 11
97.36100
 21
13.18900
  0
LINE
  8
Engraving
 62
   7
 39
0.600
  6
CONTINUOUS
 10
97.36100
 20
13.18900
 30
 0
 11
97.51000
 21
13.18900
  0
LINE
  8
Engraving
 62
   7
 39
0.600
  6
CONTINUOUS
 10
97.51000
 20
13.18900
 30
 0
 11
97.65700
 21
13.16200
  0
LINE
  8
Engraving
 62
   7
 39
0.600
  6
CONTINUOUS
 10
97.65700
 20
13.16200
 30
 0
 11
97.79900
 21
13.10900
  0
LINE
  8
Engraving
 62
   7
 39
0.600
  6
CONTINUOUS
 10
97.79900
 20
13.10900
 30
 0
 11
97.93400
 21
13.03100
  0
LINE
  8
Engraving
 62
   7
 39
0.600
  6
CONTINUOUS
 10
97.93400
 20
13.03100
 30
 0
 11
98.05700
 21
12.92900
  0
LINE
  8
Engraving
 62
   7
 39
0.600
  6
CONTINUOUS
 10
98.05700
 20
12.92900
 30
 0
 11
98.16600
 21
12.80700
  0
LINE
  8
Engraving
 62
   7
 39
0.600
  6
CONTINUOUS
 10
98.16600
 20
12.80700
 30
 0
 11
98.25900
 21
12.66600
  0
LINE
  8
Engraving
 62
   7
 39
0.600
  6
CONTINUOUS
 10
98.25900
 20
12.66600
 30
 0
 11
98.33400
 21
12.51000
  0
LINE
  8
Engraving
 62
   7
 39
0.600
  6
CONTINUOUS
 10
98.33400
 20
12.51000
 30
 0
 11
98.38700
 21
12.34200
  0
LINE
  8
Engraving
 62
   7
 39
0.600
  6
CONTINUOUS
 10
98.38700
 20
12.34200
 30
 0
 11
98.42100
 21
12.16700
  0
LINE
  8
Engraving
 62
   7
 39
0.600
  6
CONTINUOUS
 10
98.42100
 20
12.16700
 30
 0
 11
98.43200
 21
11.98700
  0
LINE
  8
Engraving
 62
   7
 39
0.600
  6
CONTINUOUS
 10
98.43200
 20
11.98700
 30
 0
 11
98.43300
 21
11.98700
  0
LINE
  8
Engraving
 62
   7
 39
0.600
  6
CONTINUOUS
 10
98.43300
 20
11.98700
 30
 0
 11
98.43300
 21
10.30000
  0
LINE
  8
Engraving
 62
   7
 39
0.600
  6
CONTINUOUS
 10
101.10400
 20
12.80700
 30
 0
 11
101.00200
 21
12.92300
  0
LINE
  8
Engraving
 62
   7
 39
0.600
  6
CONTINUOUS
 10
101.00200
 20
12.92300
 30
 0
 11
100.88800
 21
13.02000
  0
LINE
  8
Engraving
 62
   7
 39
0.600
  6
CONTINUOUS
 10
100.88800
 20
13.02000
 30
 0
 11
100.76300
 21
13.09600
  0
LINE
  8
Engraving
 62
   7
 39
0.600
  6
CONTINUOUS
 10
100.76300
 20
13.09600
 30
 0
 11
100.63200
 21
13.15100
  0
LINE
  8
Engraving
 62
   7
 39
0.600
  6
CONTINUOUS
 10
100.63200
 20
13.15100
 30
 0
 11
100.49500
 21
13.18300
  0
LINE
  8
Engraving
 62
   7
 39
0.600
  6
CONTINUOUS
 10
100.49500
 20
13.18300
 30
 0
 11
100.35500
 21
13.19100
  0
LINE
  8
Engraving
 62
   7
 39
0.600
  6
CONTINUOUS
 10
100.35500
 20
13.19100
 30
 0
 11
100.21600
 21
13.17500
  0
LINE
  8
Engraving
 62
   7
 39
0.600
  6
CONTINUOUS
 10
100.21600
 20
13.17500
 30
 0
 11
100.08000
 21
13.13600
  0
LINE
  8
Engraving
 62
   7
 39
0.600
  6
CONTINUOUS
 10
100.08000
 20
13.13600
 30
 0
 11
99.95000
 21
13.07400
  0
LINE
  8
Engraving
 62
   7
 39
0.600
  6
CONTINUOUS
 10
99.95000
 20
13.07400
 30
 0
 11
99.82900
 21
12.99000
  0
LINE
  8
Engraving
 62
   7
 39
0.600
  6
CONTINUOUS
 10
99.82900
 20
12.99000
 30
 0
 11
99.71900
 21
12.88700
  0
LINE
  8
Engraving
 62
   7
 39
0.600
  6
CONTINUOUS
 10
99.71900
 20
12.88700
 30
 0
 11
99.62100
 21
12.76500
  0
LINE
  8
Engraving
 62
   7
 39
0.600
  6
CONTINUOUS
 10
99.62100
 20
12.76500
 30
 0
 11
99.53900
 21
12.62900
  0
LINE
  8
Engraving
 62
   7
 39
0.600
  6
CONTINUOUS
 10
99.53900
 20
12.62900
 30
 0
 11
99.47400
 21
12.48000
  0
LINE
  8
Engraving
 62
   7
 39
0.600
  6
CONTINUOUS
 10
99.47400
 20
12.48000
 30
 0
 11
99.42700
 21
12.32100
  0
LINE
  8
Engraving
 62
   7
 39
0.600
  6
CONTINUOUS
 10
99.42700
 20
12.32100
 30
 0
 11
99.39800
 21
12.15500
  0
LINE
  8
Engraving
 62
   7
 39
0.600
  6
CONTINUOUS
 10
99.39800
 20
12.15500
 30
 0
 11
99.39000
 21
11.98700
  0
LINE
  8
Engraving
 62
   7
 39
0.600
  6
CONTINUOUS
 10
99.39000
 20
11.98700
 30
 0
 11
99.39000
 21
11.98700
  0
LINE
  8
Engraving
 62
   7
 39
0.600
  6
CONTINUOUS
 10
99.39000
 20
11.98700
 30
 0
 11
99.39000
 21
11.50500
  0
LINE
  8
Engraving
 62
   7
 39
0.600
  6
CONTINUOUS
 10
99.39000
 20
11.50500
 30
 0
 11
99.40000
 21
11.33300
  0
LINE
  8
Engraving
 62
   7
 39
0.600
  6
CONTINUOUS
 10
99.40000
 20
11.33300
 30
 0
 11
99.43100
 21
11.16500
  0
LINE
  8
Engraving
 62
   7
 39
0.600
  6
CONTINUOUS
 10
99.43100
 20
11.16500
 30
 0
 11
99.48100
 21
11.00400
  0
LINE
  8
Engraving
 62
   7
 39
0.600
  6
CONTINUOUS
 10
99.48100
 20
11.00400
 30
 0
 11
99.55000
 21
10.85400
  0
LINE
  8
Engraving
 62
   7
 39
0.600
  6
CONTINUOUS
 10
99.55000
 20
10.85400
 30
 0
 11
99.63600
 21
10.71700
  0
LINE
  8
Engraving
 62
   7
 39
0.600
  6
CONTINUOUS
 10
99.63600
 20
10.71700
 30
 0
 11
99.73700
 21
10.59600
  0
LINE
  8
Engraving
 62
   7
 39
0.600
  6
CONTINUOUS
 10
99.73700
 20
10.59600
 30
 0
 11
99.85200
 21
10.49400
  0
LINE
  8
Engraving
 62
   7
 39
0.600
  6
CONTINUOUS
 10
99.85200
 20
10.49400
 30
 0
 11
99.97800
 21
10.41300
  0
LINE
  8
Engraving
 62
   7
 39
0.600
  6
CONTINUOUS
 10
99.97800
 20
10.41300
 30
 0
 11
100.11200
 21
10.35400
  0
LINE
  8
Engraving
 62
   7
 39
0.600
  6
CONTINUOUS
 10
100.11200
 20
10.35400
 30
 0
 11
100.25100
 21
10.31900
  0
LINE
  8
Engraving
 62
   7
 39
0.600
  6
CONTINUOUS
 10
100.25100
 20
10.31900
 30
 0
 11
100.39300
 21
10.30900
  0
LINE
  8
Engraving
 62
   7
 39
0.600
  6
CONTINUOUS
 10
100.39300
 20
10.30900
 30
 0
 11
100.53400
 21
10.32400
  0
LINE
  8
Engraving
 62
   7
 39
0.600
  6
CONTINUOUS
 10
100.53400
 20
10.32400
 30
 0
 11
100.67300
 21
10.36300
  0
LINE
  8
Engraving
 62
   7
 39
0.600
  6
CONTINUOUS
 10
100.67300
 20
10.36300
 30
 0
 11
100.80500
 21
10.42500
  0
LINE
  8
Engraving
 62
   7
 39
0.600
  6
CONTINUOUS
 10
100.80500
 20
10.42500
 30
 0
 11
100.93000
 21
10.51000
  0
LINE
  8
Engraving
 62
   7
 39
0.600
  6
CONTINUOUS
 10
100.93000
 20
10.51000
 30
 0
 11
101.04200
 21
10.61500
  0
LINE
  8
Engraving
 62
   7
 39
0.600
  6
CONTINUOUS
 10
101.04200
 20
10.61500
 30
 0
 11
101.14100
 21
10.73900
  0
LINE
  8
Engraving
 62
   7
 39
0.600
  6
CONTINUOUS
 10
101.14100
 20
10.73900
 30
 0
 11
101.22400
 21
10.87900
  0
LINE
  8
Engraving
 62
   7
 39
0.600
  6
CONTINUOUS
 10
101.22400
 20
10.87900
 30
 0
 11
101.22400
 21
10.87900
  0
LINE
  8
Engraving
 62
   7
 39
0.600
  6
CONTINUOUS
 10
102.18100
 20
11.74600
 30
 0
 11
104.17400
 21
11.74600
  0
LINE
  8
Engraving
 62
   7
 39
0.600
  6
CONTINUOUS
 10
104.17400
 20
11.74600
 30
 0
 11
104.17400
 21
11.98700
  0
LINE
  8
Engraving
 62
   7
 39
0.600
  6
CONTINUOUS
 10
104.17400
 20
11.98700
 30
 0
 11
104.16300
 21
12.16700
  0
LINE
  8
Engraving
 62
   7
 39
0.600
  6
CONTINUOUS
 10
104.16300
 20
12.16700
 30
 0
 11
104.12900
 21
12.34200
  0
LINE
  8
Engraving
 62
   7
 39
0.600
  6
CONTINUOUS
 10
104.12900
 20
12.34200
 30
 0
 11
104.07500
 21
12.51000
  0
LINE
  8
Engraving
 62
   7
 39
0.600
  6
CONTINUOUS
 10
104.07500
 20
12.51000
 30
 0
 11
104.00100
 21
12.66600
  0
LINE
  8
Engraving
 62
   7
 39
0.600
  6
CONTINUOUS
 10
104.00100
 20
12.66600
 30
 0
 11
103.90800
 21
12.80700
  0
LINE
  8
Engraving
 62
   7
 39
0.600
  6
CONTINUOUS
 10
103.90800
 20
12.80700
 30
 0
 11
103.79800
 21
12.92900
  0
LINE
  8
Engraving
 62
   7
 39
0.600
  6
CONTINUOUS
 10
103.79800
 20
12.92900
 30
 0
 11
103.67600
 21
13.03100
  0
LINE
  8
Engraving
 62
   7
 39
0.600
  6
CONTINUOUS
 10
103.67600
 20
13.03100
 30
 0
 11
103.54100
 21
13.10900
  0
LINE
  8
Engraving
 62
   7
 39
0.600
  6
CONTINUOUS
 10
103.54100
 20
13.10900
 30
 0
 11
103.39900
 21
13.16200
  0
LINE
  8
Engraving
 62
   7
 39
0.600
  6
CONTINUOUS
 10
103.39900
 20
13.16200
 30
 0
 11
103.25200
 21
13.18900
  0
LINE
  8
Engraving
 62
   7
 39
0.600
  6
CONTINUOUS
 10
103.25200
 20
13.18900
 30
 0
 11
103.10300
 21
13.18900
  0
LINE
  8
Engraving
 62
   7
 39
0.600
  6
CONTINUOUS
 10
103.10300
 20
13.18900
 30
 0
 11
102.95600
 21
13.16200
  0
LINE
  8
Engraving
 62
   7
 39
0.600
  6
CONTINUOUS
 10
102.95600
 20
13.16200
 30
 0
 11
102.81300
 21
13.10900
  0
LINE
  8
Engraving
 62
   7
 39
0.600
  6
CONTINUOUS
 10
102.81300
 20
13.10900
 30
 0
 11
102.67900
 21
13.03100
  0
LINE
  8
Engraving
 62
   7
 39
0.600
  6
CONTINUOUS
 10
102.67900
 20
13.03100
 30
 0
 11
102.55600
 21
12.92900
  0
LINE
  8
Engraving
 62
   7
 39
0.600
  6
CONTINUOUS
 10
102.55600
 20
12.92900
 30
 0
 11
102.44700
 21
12.80700
  0
LINE
  8
Engraving
 62
   7
 39
0.600
  6
CONTINUOUS
 10
102.44700
 20
12.80700
 30
 0
 11
102.35400
 21
12.66600
  0
LINE
  8
Engraving
 62
   7
 39
0.600
  6
CONTINUOUS
 10
102.35400
 20
12.66600
 30
 0
 11
102.27900
 21
12.51000
  0
LINE
  8
Engraving
 62
   7
 39
0.600
  6
CONTINUOUS
 10
102.27900
 20
12.51000
 30
 0
 11
102.22500
 21
12.34200
  0
LINE
  8
Engraving
 62
   7
 39
0.600
  6
CONTINUOUS
 10
102.22500
 20
12.34200
 30
 0
 11
102.19200
 21
12.16700
  0
LINE
  8
Engraving
 62
   7
 39
0.600
  6
CONTINUOUS
 10
102.19200
 20
12.16700
 30
 0
 11
102.18100
 21
11.98700
  0
LINE
  8
Engraving
 62
   7
 39
0.600
  6
CONTINUOUS
 10
102.18100
 20
11.98700
 30
 0
 11
102.18100
 21
11.98700
  0
LINE
  8
Engraving
 62
   7
 39
0.600
  6
CONTINUOUS
 10
102.18100
 20
11.98700
 30
 0
 11
102.18100
 21
11.50500
  0
LINE
  8
Engraving
 62
   7
 39
0.600
  6
CONTINUOUS
 10
102.18100
 20
11.50500
 30
 0
 11
102.19200
 21
11.32100
  0
LINE
  8
Engraving
 62
   7
 39
0.600
  6
CONTINUOUS
 10
102.19200
 20
11.32100
 30
 0
 11
102.22500
 21
11.14100
  0
LINE
  8
Engraving
 62
   7
 39
0.600
  6
CONTINUOUS
 10
102.22500
 20
11.14100
 30
 0
 11
102.28000
 21
10.96800
  0
LINE
  8
Engraving
 62
   7
 39
0.600
  6
CONTINUOUS
 10
102.28000
 20
10.96800
 30
 0
 11
102.35400
 21
10.80700
  0
LINE
  8
Engraving
 62
   7
 39
0.600
  6
CONTINUOUS
 10
102.35400
 20
10.80700
 30
 0
 11
102.44800
 21
10.66100
  0
LINE
  8
Engraving
 62
   7
 39
0.600
  6
CONTINUOUS
 10
102.44800
 20
10.66100
 30
 0
 11
102.55800
 21
10.53300
  0
LINE
  8
Engraving
 62
   7
 39
0.600
  6
CONTINUOUS
 10
102.55800
 20
10.53300
 30
 0
 11
102.68200
 21
10.42600
  0
LINE
  8
Engraving
 62
   7
 39
0.600
  6
CONTINUOUS
 10
102.68200
 20
10.42600
 30
 0
 11
102.81800
 21
10.34100
  0
LINE
  8
Engraving
 62
   7
 39
0.600
  6
CONTINUOUS
 10
102.81800
 20
10.34100
 30
 0
 11
102.96200
 21
10.28200
  0
LINE
  8
Engraving
 62
   7
 39
0.600
  6
CONTINUOUS
 10
102.96200
 20
10.28200
 30
 0
 11
103.11300
 21
10.24800
  0
LINE
  8
Engraving
 62
   7
 39
0.600
  6
CONTINUOUS
 10
103.11300
 20
10.24800
 30
 0
 11
103.26600
 21
10.24200
  0
LINE
  8
Engraving
 62
   7
 39
0.600
  6
CONTINUOUS
 10
103.26600
 20
10.24200
 30
 0
 11
103.41700
 21
10.26200
  0
LINE
  8
Engraving
 62
   7
 39
0.600
  6
CONTINUOUS
 10
103.41700
 20
10.26200
 30
 0
 11
103.56500
 21
10.30900
  0
LINE
  8
Engraving
 62
   7
 39
0.600
  6
CONTINUOUS
 10
103.56500
 20
10.30900
 30
 0
 11
103.70600
 21
10.38200
  0
LINE
  8
Engraving
 62
   7
 39
0.600
  6
CONTINUOUS
 10
103.70600
 20
10.38200
 30
 0
 11
103.83600
 21
10.47800
  0
LINE
  8
Engraving
 62
   7
 39
0.600
  6
CONTINUOUS
 10
103.83600
 20
10.47800
 30
 0
 11
103.95300
 21
10.59600
  0
LINE
  8
Engraving
 62
   7
 39
0.600
  6
CONTINUOUS
 10
103.95300
 20
10.59600
 30
 0
 11
104.05500
 21
10.73400
  0
LINE
  8
Engraving
 62
   7
 39
0.600
  6
CONTINUOUS
 10
104.05500
 20
10.73400
 30
 0
 11
104.05500
 21
10.73400
  0
LINE
  8
Engraving
 62
   7
 39
0.600
  6
CONTINUOUS
 10
146.39900
 20
11.50500
 30
 0
 11
148.39200
 21
11.50500
  0
LINE
  8
Engraving
 62
   7
 39
0.600
  6
CONTINUOUS
 10
146.00000
 20
10.30000
 30
 0
 11
147.39500
 21
14.63900
  0
LINE
  8
Engraving
 62
   7
 39
0.600
  6
CONTINUOUS
 10
147.39500
 20
14.63900
 30
 0
 11
148.79000
 21
10.30000
  0
LINE
  8
Engraving
 62
   7
 39
0.600
  6
CONTINUOUS
 10
149.74700
 20
10.30000
 30
 0
 11
149.74700
 21
14.63900
  0
LINE
  8
Engraving
 62
   7
 39
0.600
  6
CONTINUOUS
 10
149.74700
 20
14.63900
 30
 0
 11
151.06300
 21
14.63900
  0
LINE
  8
Engraving
 62
   7
 39
0.600
  6
CONTINUOUS
 10
151.06300
 20
14.63900
 30
 0
 11
151.19300
 21
14.62300
  0
LINE
  8
Engraving
 62
   7
 39
0.600
  6
CONTINUOUS
 10
151.19300
 20
14.62300
 30
 0
 11
151.31900
 21
14.58400
  0
LINE
  8
Engraving
 62
   7
 39
0.600
  6
CONTINUOUS
 10
151.31900
 20
14.58400
 30
 0
 11
151.43900
 21
14.52300
  0
LINE
  8
Engraving
 62
   7
 39
0.600
  6
CONTINUOUS
 10
151.43900
 20
14.52300
 30
 0
 11
151.55200
 21
14.44200
  0
LINE
  8
Engraving
 62
   7
 39
0.600
  6
CONTINUOUS
 10
151.55200
 20
14.44200
 30
 0
 11
151.65300
 21
14.34200
  0
LINE
  8
Engraving
 62
   7
 39
0.600
  6
CONTINUOUS
 10
151.65300
 20
14.34200
 30
 0
 11
151.74000
 21
14.22600
  0
LINE
  8
Engraving
 62
   7
 39
0.600
  6
CONTINUOUS
 10
151.74000
 20
14.22600
 30
 0
 11
151.81300
 21
14.09500
  0
LINE
  8
Engraving
 62
   7
 39
0.600
  6
CONTINUOUS
 10
151.81300
 20
14.09500
 30
 0
 11
151.87000
 21
13.95300
  0
LINE
  8
Engraving
 62
   7
 39
0.600
  6
CONTINUOUS
 10
151.87000
 20
13.95300
 30
 0
 11
151.90900
 21
13.80300
  0
LINE
  8
Engraving
 62
   7
 39
0.600
  6
CONTINUOUS
 10
151.90900
 20
13.80300
 30
 0
 11
151.93000
 21
13.64700
  0
LINE
  8
Engraving
 62
   7
 39
0.600
  6
CONTINUOUS
 10
151.93000
 20
13.64700
 30
 0
 11
151.93000
 21
13.48900
  0
LINE
  8
Engraving
 62
   7
 39
0.600
  6
CONTINUOUS
 10
151.93000
 20
13.48900
 30
 0
 11
151.91300
 21
13.33300
  0
LINE
  8
Engraving
 62
   7
 39
0.600
  6
CONTINUOUS
 10
151.91300
 20
13.33300
 30
 0
 11
151.87700
 21
13.18100
  0
LINE
  8
Engraving
 62
   7
 39
0.600
  6
CONTINUOUS
 10
151.87700
 20
13.18100
 30
 0
 11
151.82400
 21
13.03700
  0
LINE
  8
Engraving
 62
   7
 39
0.600
  6
CONTINUOUS
 10
151.82400
 20
13.03700
 30
 0
 11
151.75300
 21
12.90500
  0
LINE
  8
Engraving
 62
   7
 39
0.600
  6
CONTINUOUS
 10
151.75300
 20
12.90500
 30
 0
 11
151.66700
 21
12.78600
  0
LINE
  8
Engraving
 62
   7
 39
0.600
  6
CONTINUOUS
 10
151.66700
 20
12.78600
 30
 0
 11
151.56900
 21
12.68300
  0
LINE
  8
Engraving
 62
   7
 39
0.600
  6
CONTINUOUS
 10
151.56900
 20
12.68300
 30
 0
 11
151.45800
 21
12.59900
  0
LINE
  8
Engraving
 62
   7
 39
0.600
  6
CONTINUOUS
 10
151.45800
 20
12.59900
 30
 0
 11
151.33900
 21
12.53500
  0
LINE
  8
Engraving
 62
   7
 39
0.600
  6
CONTINUOUS
 10
151.33900
 20
12.53500
 30
 0
 11
151.21300
 21
12.49200
  0
LINE
  8
Engraving
 62
   7
 39
0.600
  6
CONTINUOUS
 10
151.21300
 20
12.49200
 30
 0
 11
151.08400
 21
12.47200
  0
LINE
  8
Engraving
 62
   7
 39
0.600
  6
CONTINUOUS
 10
151.08400
 20
12.47200
 30
 0
 11
151.06300
 21
12.47000
  0
LINE
  8
Engraving
 62
   7
 39
0.600
  6
CONTINUOUS
 10
151.06300
 20
12.47000
 30
 0
 11
149.74700
 21
12.47000
  0
LINE
  8
Engraving
 62
   7
 39
0.600
  6
CONTINUOUS
 10
149.74700
 20
12.47000
 30
 0
 11
151.14300
 21
12.47000
  0
LINE
  8
Engraving
 62
   7
 39
0.600
  6
CONTINUOUS
 10
151.14300
 20
12.47000
 30
 0
 11
151.94000
 21
10.30000
  0
LINE
  8
Engraving
 62
   7
 39
0.600
  6
CONTINUOUS
 10
152.85700
 20
10.30000
 30
 0
 11
152.85700
 21
14.63900
  0
LINE
  8
Engraving
 62
   7
 39
0.600
  6
CONTINUOUS
 10
152.85700
 20
14.63900
 30
 0
 11
154.25300
 21
11.50500
  0
LINE
  8
Engraving
 62
   7
 39
0.600
  6
CONTINUOUS
 10
154.25300
 20
11.50500
 30
 0
 11
155.64900
 21
14.63900
  0
LINE
  8
Engraving
 62
   7
 39
0.600
  6
CONTINUOUS
 10
155.64900
 20
14.63900
 30
 0
 11
155.64900
 21
10.30000
  0
LINE
  8
Engraving
 62
   7
 39
0.600
  6
CONTINUOUS
 10
81.37000
 20
78.20500
 30
 0
 11
81.28200
 21
78.32900
  0
LINE
  8
Engraving
 62
   7
 39
0.600
  6
CONTINUOUS
 10
81.28200
 20
78.32900
 30
 0
 11
81.17900
 21
78.43600
  0
LINE
  8
Engraving
 62
   7
 39
0.600
  6
CONTINUOUS
 10
81.17900
 20
78.43600
 30
 0
 11
81.06500
 21
78.52500
  0
LINE
  8
Engraving
 62
   7
 39
0.600
  6
CONTINUOUS
 10
81.06500
 20
78.52500
 30
 0
 11
80.94200
 21
78.59300
  0
LINE
  8
Engraving
 62
   7
 39
0.600
  6
CONTINUOUS
 10
80.94200
 20
78.59300
 30
 0
 11
80.81200
 21
78.63900
  0
LINE
  8
Engraving
 62
   7
 39
0.600
  6
CONTINUOUS
 10
80.81200
 20
78.63900
 30
 0
 11
80.81200
 21
78.63900
  0
LINE
  8
Engraving
 62
   7
 39
0.600
  6
CONTINUOUS
 10
80.81200
 20
78.63900
 30
 0
 11
80.53300
 21
78.69100
  0
LINE
  8
Engraving
 62
   7
 39
0.600
  6
CONTINUOUS
 10
80.53300
 20
78.69100
 30
 0
 11
80.25100
 21
78.70000
  0
LINE
  8
Engraving
 62
   7
 39
0.600
  6
CONTINUOUS
 10
80.25100
 20
78.70000
 30
 0
 11
79.97100
 21
78.66700
  0
LINE
  8
Engraving
 62
   7
 39
0.600
  6
CONTINUOUS
 10
79.97100
 20
78.66700
 30
 0
 11
79.69600
 21
78.59100
  0
LINE
  8
Engraving
 62
   7
 39
0.600
  6
CONTINUOUS
 10
79.69600
 20
78.59100
 30
 0
 11
79.69600
 21
78.59100
  0
LINE
  8
Engraving
 62
   7
 39
0.600
  6
CONTINUOUS
 10
79.69600
 20
78.59100
 30
 0
 11
79.56500
 21
78.53200
  0
LINE
  8
Engraving
 62
   7
 39
0.600
  6
CONTINUOUS
 10
79.56500
 20
78.53200
 30
 0
 11
79.44200
 21
78.45300
  0
LINE
  8
Engraving
 62
   7
 39
0.600
  6
CONTINUOUS
 10
79.44200
 20
78.45300
 30
 0
 11
79.32800
 21
78.35500
  0
LINE
  8
Engraving
 62
   7
 39
0.600
  6
CONTINUOUS
 10
79.32800
 20
78.35500
 30
 0
 11
79.22600
 21
78.23900
  0
LINE
  8
Engraving
 62
   7
 39
0.600
  6
CONTINUOUS
 10
79.22600
 20
78.23900
 30
 0
 11
79.13700
 21
78.10900
  0
LINE
  8
Engraving
 62
   7
 39
0.600
  6
CONTINUOUS
 10
79.13700
 20
78.10900
 30
 0
 11
79.13700
 21
78.10900
  0
LINE
  8
Engraving
 62
   7
 39
0.600
  6
CONTINUOUS
 10
79.13700
 20
78.10900
 30
 0
 11
79.08300
 21
78.00100
  0
LINE
  8
Engraving
 62
   7
 39
0.600
  6
CONTINUOUS
 10
79.08300
 20
78.00100
 30
 0
 11
79.04100
 21
77.88500
  0
LINE
  8
Engraving
 62
   7
 39
0.600
  6
CONTINUOUS
 10
79.04100
 20
77.88500
 30
 0
 11
79.01400
 21
77.76300
  0
LINE
  8
Engraving
 62
   7
 39
0.600
  6
CONTINUOUS
 10
79.01400
 20
77.76300
 30
 0
 11
79.00200
 21
77.63700
  0
LINE
  8
Engraving
 62
   7
 39
0.600
  6
CONTINUOUS
 10
79.00200
 20
77.63700
 30
 0
 11
79.00400
 21
77.51100
  0
LINE
  8
Engraving
 62
   7
 39
0.600
  6
CONTINUOUS
 10
79.00400
 20
77.51100
 30
 0
 11
79.02200
 21
77.38600
  0
LINE
  8
Engraving
 62
   7
 39
0.600
  6
CONTINUOUS
 10
79.02200
 20
77.38600
 30
 0
 11
79.05400
 21
77.26500
  0
LINE
  8
Engraving
 62
   7
 39
0.600
  6
CONTINUOUS
 10
79.05400
 20
77.26500
 30
 0
 11
79.09900
 21
77.15200
  0
LINE
  8
Engraving
 62
   7
 39
0.600
  6
CONTINUOUS
 10
79.09900
 20
77.15200
 30
 0
 11
79.15900
 21
77.04700
  0
LINE
  8
Engraving
 62
   7
 39
0.600
  6
CONTINUOUS
 10
79.15900
 20
77.04700
 30
 0
 11
79.22900
 21
76.95400
  0
LINE
  8
Engraving
 62
   7
 39
0.600
  6
CONTINUOUS
 10
79.22900
 20
76.95400
 30
 0
 11
79.31000
 21
76.87400
  0
LINE
  8
Engraving
 62
   7
 39
0.600
  6
CONTINUOUS
 10
79.31000
 20
76.87400
 30
 0
 11
79.40000
 21
76.80900
  0
LINE
  8
Engraving
 62
   7
 39
0.600
  6
CONTINUOUS
 10
79.40000
 20
76.80900
 30
 0
 11
79.49600
 21
76.76000
  0
LINE
  8
Engraving
 62
   7
 39
0.600
  6
CONTINUOUS
 10
79.49600
 20
76.76000
 30
 0
 11
79.49600
 21
76.75900
  0
LINE
  8
Engraving
 62
   7
 39
0.600
  6
CONTINUOUS
 10
79.49600
 20
76.75900
 30
 0
 11
80.89100
 21
76.18000
  0
LINE
  8
Engraving
 62
   7
 39
0.600
  6
CONTINUOUS
 10
80.89100
 20
76.18000
 30
 0
 11
80.99100
 21
76.13000
  0
LINE
  8
Engraving
 62
   7
 39
0.600
  6
CONTINUOUS
 10
80.99100
 20
76.13000
 30
 0
 11
81.08200
 21
76.06200
  0
LINE
  8
Engraving
 62
   7
 39
0.600
  6
CONTINUOUS
 10
81.08200
 20
76.06200
 30
 0
 11
81.16400
 21
75.97900
  0
LINE
  8
Engraving
 62
   7
 39
0.600
  6
CONTINUOUS
 10
81.16400
 20
75.97900
 30
 0
 11
81.23600
 21
75.88300
  0
LINE
  8
Engraving
 62
   7
 39
0.600
  6
CONTINUOUS
 10
81.23600
 20
75.88300
 30
 0
 11
81.29500
 21
75.77400
  0
LINE
  8
Engraving
 62
   7
 39
0.600
  6
CONTINUOUS
 10
81.29500
 20
75.77400
 30
 0
 11
81.34000
 21
75.65700
  0
LINE
  8
Engraving
 62
   7
 39
0.600
  6
CONTINUOUS
 10
81.34000
 20
75.65700
 30
 0
 11
81.37100
 21
75.53200
  0
LINE
  8
Engraving
 62
   7
 39
0.600
  6
CONTINUOUS
 10
81.37100
 20
75.53200
 30
 0
 11
81.38600
 21
75.40400
  0
LINE
  8
Engraving
 62
   7
 39
0.600
  6
CONTINUOUS
 10
81.38600
 20
75.40400
 30
 0
 11
81.38600
 21
75.27400
  0
LINE
  8
Engraving
 62
   7
 39
0.600
  6
CONTINUOUS
 10
81.38600
 20
75.27400
 30
 0
 11
81.36900
 21
75.14600
  0
LINE
  8
Engraving
 62
   7
 39
0.600
  6
CONTINUOUS
 10
81.36900
 20
75.14600
 30
 0
 11
81.33700
 21
75.02200
  0
LINE
  8
Engraving
 62
   7
 39
0.600
  6
CONTINUOUS
 10
81.33700
 20
75.02200
 30
 0
 11
81.29100
 21
74.90500
  0
LINE
  8
Engraving
 62
   7
 39
0.600
  6
CONTINUOUS
 10
81.29100
 20
74.90500
 30
 0
 11
81.25000
 21
74.83000
  0
LINE
  8
Engraving
 62
   7
 39
0.600
  6
CONTINUOUS
 10
81.25000
 20
74.83000
 30
 0
 11
81.14900
 21
74.68400
  0
LINE
  8
Engraving
 62
   7
 39
0.600
  6
CONTINUOUS
 10
81.14900
 20
74.68400
 30
 0
 11
81.03100
 21
74.55700
  0
LINE
  8
Engraving
 62
   7
 39
0.600
  6
CONTINUOUS
 10
81.03100
 20
74.55700
 30
 0
 11
80.90000
 21
74.45300
  0
LINE
  8
Engraving
 62
   7
 39
0.600
  6
CONTINUOUS
 10
80.90000
 20
74.45300
 30
 0
 11
80.75600
 21
74.37400
  0
LINE
  8
Engraving
 62
   7
 39
0.600
  6
CONTINUOUS
 10
80.75600
 20
74.37400
 30
 0
 11
80.69200
 21
74.34800
  0
LINE
  8
Engraving
 62
   7
 39
0.600
  6
CONTINUOUS
 10
80.69200
 20
74.34800
 30
 0
 11
80.36600
 21
74.26300
  0
LINE
  8
Engraving
 62
   7
 39
0.600
  6
CONTINUOUS
 10
80.36600
 20
74.26300
 30
 0
 11
80.03300
 21
74.23700
  0
LINE
  8
Engraving
 62
   7
 39
0.600
  6
CONTINUOUS
 10
80.03300
 20
74.23700
 30
 0
 11
79.70000
 21
74.27100
  0
LINE
  8
Engraving
 62
   7
 39
0.600
  6
CONTINUOUS
 10
79.70000
 20
74.27100
 30
 0
 11
79.57600
 21
74.30000
  0
LINE
  8
Engraving
 62
   7
 39
0.600
  6
CONTINUOUS
 10
79.57600
 20
74.30000
 30
 0
 11
79.44200
 21
74.34700
  0
LINE
  8
Engraving
 62
   7
 39
0.600
  6
CONTINUOUS
 10
79.44200
 20
74.34700
 30
 0
 11
79.31700
 21
74.41800
  0
LINE
  8
Engraving
 62
   7
 39
0.600
  6
CONTINUOUS
 10
79.31700
 20
74.41800
 30
 0
 11
79.20100
 21
74.50900
  0
LINE
  8
Engraving
 62
   7
 39
0.600
  6
CONTINUOUS
 10
79.20100
 20
74.50900
 30
 0
 11
79.09800
 21
74.62000
  0
LINE
  8
Engraving
 62
   7
 39
0.600
  6
CONTINUOUS
 10
79.09800
 20
74.62000
 30
 0
 11
79.01700
 21
74.73400
  0
LINE
  8
Engraving
 62
   7
 39
0.600
  6
CONTINUOUS
 10
82.68600
 20
78.63900
 30
 0
 11
82.68600
 21
77.19300
  0
LINE
  8
Engraving
 62
   7
 39
0.600
  6
CONTINUOUS
 10
82.68600
 20
77.19300
 30
 0
 11
83.28400
 21
77.19300
  0
LINE
  8
Engraving
 62
   7
 39
0.600
  6
CONTINUOUS
 10
83.28400
 20
77.19300
 30
 0
 11
82.28700
 21
77.19300
  0
LINE
  8
Engraving
 62
   7
 39
0.600
  6
CONTINUOUS
 10
82.28700
 20
77.19300
 30
 0
 11
82.68600
 21
77.19300
  0
LINE
  8
Engraving
 62
   7
 39
0.600
  6
CONTINUOUS
 10
82.68600
 20
77.19300
 30
 0
 11
82.68600
 21
74.87900
  0
LINE
  8
Engraving
 62
   7
 39
0.600
  6
CONTINUOUS
 10
82.68600
 20
74.87900
 30
 0
 11
82.69100
 21
74.79700
  0
LINE
  8
Engraving
 62
   7
 39
0.600
  6
CONTINUOUS
 10
82.69100
 20
74.79700
 30
 0
 11
82.70400
 21
74.71700
  0
LINE
  8
Engraving
 62
   7
 39
0.600
  6
CONTINUOUS
 10
82.70400
 20
74.71700
 30
 0
 11
82.72700
 21
74.64100
  0
LINE
  8
Engraving
 62
   7
 39
0.600
  6
CONTINUOUS
 10
82.72700
 20
74.64100
 30
 0
 11
82.75900
 21
74.56800
  0
LINE
  8
Engraving
 62
   7
 39
0.600
  6
CONTINUOUS
 10
82.75900
 20
74.56800
 30
 0
 11
82.79800
 21
74.50200
  0
LINE
  8
Engraving
 62
   7
 39
0.600
  6
CONTINUOUS
 10
82.79800
 20
74.50200
 30
 0
 11
82.84500
 21
74.44300
  0
LINE
  8
Engraving
 62
   7
 39
0.600
  6
CONTINUOUS
 10
82.84500
 20
74.44300
 30
 0
 11
82.89800
 21
74.39200
  0
LINE
  8
Engraving
 62
   7
 39
0.600
  6
CONTINUOUS
 10
82.89800
 20
74.39200
 30
 0
 11
82.95600
 21
74.35100
  0
LINE
  8
Engraving
 62
   7
 39
0.600
  6
CONTINUOUS
 10
82.95600
 20
74.35100
 30
 0
 11
83.01900
 21
74.32000
  0
LINE
  8
Engraving
 62
   7
 39
0.600
  6
CONTINUOUS
 10
83.01900
 20
74.32000
 30
 0
 11
83.08500
 21
74.30000
  0
LINE
  8
Engraving
 62
   7
 39
0.600
  6
CONTINUOUS
 10
83.08500
 20
74.30000
 30
 0
 11
83.08500
 21
74.30000
  0
LINE
  8
Engraving
 62
   7
 39
0.600
  6
CONTINUOUS
 10
86.23500
 20
78.63900
 30
 0
 11
86.23500
 21
75.50500
  0
LINE
  8
Engraving
 62
   7
 39
0.600
  6
CONTINUOUS
 10
86.23500
 20
75.50500
 30
 0
 11
86.23000
 21
75.32500
  0
LINE
  8
Engraving
 62
   7
 39
0.600
  6
CONTINUOUS
 10
86.23000
 20
75.32500
 30
 0
 11
86.20200
 21
75.14800
  0
LINE
  8
Engraving
 62
   7
 39
0.600
  6
CONTINUOUS
 10
86.20200
 20
75.14800
 30
 0
 11
86.15300
 21
74.97700
  0
LINE
  8
Engraving
 62
   7
 39
0.600
  6
CONTINUOUS
 10
86.15300
 20
74.97700
 30
 0
 11
86.08400
 21
74.81800
  0
LINE
  8
Engraving
 62
   7
 39
0.600
  6
CONTINUOUS
 10
86.08400
 20
74.81800
 30
 0
 11
85.99600
 21
74.67300
  0
LINE
  8
Engraving
 62
   7
 39
0.600
  6
CONTINUOUS
 10
85.99600
 20
74.67300
 30
 0
 11
85.89100
 21
74.54500
  0
LINE
  8
Engraving
 62
   7
 39
0.600
  6
CONTINUOUS
 10
85.89100
 20
74.54500
 30
 0
 11
85.77100
 21
74.43700
  0
LINE
  8
Engraving
 62
   7
 39
0.600
  6
CONTINUOUS
 10
85.77100
 20
74.43700
 30
 0
 11
85.63900
 21
74.35300
  0
LINE
  8
Engraving
 62
   7
 39
0.600
  6
CONTINUOUS
 10
85.63900
 20
74.35300
 30
 0
 11
85.49900
 21
74.29300
  0
LINE
  8
Engraving
 62
   7
 39
0.600
  6
CONTINUOUS
 10
85.49900
 20
74.29300
 30
 0
 11
85.35200
 21
74.25900
  0
LINE
  8
Engraving
 62
   7
 39
0.600
  6
CONTINUOUS
 10
85.35200
 20
74.25900
 30
 0
 11
85.20300
 21
74.25200
  0
LINE
  8
Engraving
 62
   7
 39
0.600
  6
CONTINUOUS
 10
85.20300
 20
74.25200
 30
 0
 11
85.05500
 21
74.27200
  0
LINE
  8
Engraving
 62
   7
 39
0.600
  6
CONTINUOUS
 10
85.05500
 20
74.27200
 30
 0
 11
84.91100
 21
74.31800
  0
LINE
  8
Engraving
 62
   7
 39
0.600
  6
CONTINUOUS
 10
84.91100
 20
74.31800
 30
 0
 11
84.77400
 21
74.38900
  0
LINE
  8
Engraving
 62
   7
 39
0.600
  6
CONTINUOUS
 10
84.77400
 20
74.38900
 30
 0
 11
84.64800
 21
74.48500
  0
LINE
  8
Engraving
 62
   7
 39
0.600
  6
CONTINUOUS
 10
84.64800
 20
74.48500
 30
 0
 11
84.53400
 21
74.60200
  0
LINE
  8
Engraving
 62
   7
 39
0.600
  6
CONTINUOUS
 10
84.53400
 20
74.60200
 30
 0
 11
84.43700
 21
74.73900
  0
LINE
  8
Engraving
 62
   7
 39
0.600
  6
CONTINUOUS
 10
84.43700
 20
74.73900
 30
 0
 11
84.35700
 21
74.89100
  0
LINE
  8
Engraving
 62
   7
 39
0.600
  6
CONTINUOUS
 10
84.35700
 20
74.89100
 30
 0
 11
84.29800
 21
75.05600
  0
LINE
  8
Engraving
 62
   7
 39
0.600
  6
CONTINUOUS
 10
84.29800
 20
75.05600
 30
 0
 11
84.25900
 21
75.23000
  0
LINE
  8
Engraving
 62
   7
 39
0.600
  6
CONTINUOUS
 10
84.25900
 20
75.23000
 30
 0
 11
84.24200
 21
75.40900
  0
LINE
  8
Engraving
 62
   7
 39
0.600
  6
CONTINUOUS
 10
84.24200
 20
75.40900
 30
 0
 11
84.24100
 21
75.40900
  0
LINE
  8
Engraving
 62
   7
 39
0.600
  6
CONTINUOUS
 10
84.24100
 20
75.40900
 30
 0
 11
84.24100
 21
75.98700
  0
LINE
  8
Engraving
 62
   7
 39
0.600
  6
CONTINUOUS
 10
84.24100
 20
75.98700
 30
 0
 11
84.25100
 21
76.16700
  0
LINE
  8
Engraving
 62
   7
 39
0.600
  6
CONTINUOUS
 10
84.25100
 20
76.16700
 30
 0
 11
84.28500
 21
76.34200
  0
LINE
  8
Engraving
 62
   7
 39
0.600
  6
CONTINUOUS
 10
84.28500
 20
76.34200
 30
 0
 11
84.33900
 21
76.51000
  0
LINE
  8
Engraving
 62
   7
 39
0.600
  6
CONTINUOUS
 10
84.33900
 20
76.51000
 30
 0
 11
84.41400
 21
76.66600
  0
LINE
  8
Engraving
 62
   7
 39
0.600
  6
CONTINUOUS
 10
84.41400
 20
76.66600
 30
 0
 11
84.50700
 21
76.80700
  0
LINE
  8
Engraving
 62
   7
 39
0.600
  6
CONTINUOUS
 10
84.50700
 20
76.80700
 30
 0
 11
84.61600
 21
76.92900
  0
LINE
  8
Engraving
 62
   7
 39
0.600
  6
CONTINUOUS
 10
84.61600
 20
76.92900
 30
 0
 11
84.73900
 21
77.03100
  0
LINE
  8
Engraving
 62
   7
 39
0.600
  6
CONTINUOUS
 10
84.73900
 20
77.03100
 30
 0
 11
84.87300
 21
77.10900
  0
LINE
  8
Engraving
 62
   7
 39
0.600
  6
CONTINUOUS
 10
84.87300
 20
77.10900
 30
 0
 11
85.01600
 21
77.16200
  0
LINE
  8
Engraving
 62
   7
 39
0.600
  6
CONTINUOUS
 10
85.01600
 20
77.16200
 30
 0
 11
85.16300
 21
77.18900
  0
LINE
  8
Engraving
 62
   7
 39
0.600
  6
CONTINUOUS
 10
85.16300
 20
77.18900
 30
 0
 11
85.31200
 21
77.18900
  0
LINE
  8
Engraving
 62
   7
 39
0.600
  6
CONTINUOUS
 10
85.31200
 20
77.18900
 30
 0
 11
85.45900
 21
77.16200
  0
LINE
  8
Engraving
 62
   7
 39
0.600
  6
CONTINUOUS
 10
85.45900
 20
77.16200
 30
 0
 11
85.60100
 21
77.10900
  0
LINE
  8
Engraving
 62
   7
 39
0.600
  6
CONTINUOUS
 10
85.60100
 20
77.10900
 30
 0
 11
85.73600
 21
77.03100
  0
LINE
  8
Engraving
 62
   7
 39
0.600
  6
CONTINUOUS
 10
85.73600
 20
77.03100
 30
 0
 11
85.85800
 21
76.92900
  0
LINE
  8
Engraving
 62
   7
 39
0.600
  6
CONTINUOUS
 10
85.85800
 20
76.92900
 30
 0
 11
85.96700
 21
76.80700
  0
LINE
  8
Engraving
 62
   7
 39
0.600
  6
CONTINUOUS
 10
85.96700
 20
76.80700
 30
 0
 11
86.06100
 21
76.66600
  0
LINE
  8
Engraving
 62
   7
 39
0.600
  6
CONTINUOUS
 10
86.06100
 20
76.66600
 30
 0
 11
86.13500
 21
76.51000
  0
LINE
  8
Engraving
 62
   7
 39
0.600
  6
CONTINUOUS
 10
86.13500
 20
76.51000
 30
 0
 11
86.18900
 21
76.34200
  0
LINE
  8
Engraving
 62
   7
 39
0.600
  6
CONTINUOUS
 10
86.18900
 20
76.34200
 30
 0
 11
86.22300
 21
76.16700
  0
LINE
  8
Engraving
 62
   7
 39
0.600
  6
CONTINUOUS
 10
86.22300
 20
76.16700
 30
 0
 11
86.23400
 21
75.98700
  0
LINE
  8
Engraving
 62
   7
 39
0.600
  6
CONTINUOUS
 10
86.23400
 20
75.98700
 30
 0
 11
86.23500
 21
75.98700
  0
LINE
  8
Engraving
 62
   7
 39
0.600
  6
CONTINUOUS
 10
86.23500
 20
75.98700
 30
 0
 11
86.23500
 21
74.30000
  0
LINE
  8
Engraving
 62
   7
 39
0.600
  6
CONTINUOUS
 10
87.19100
 20
78.63900
 30
 0
 11
87.19100
 21
75.50500
  0
LINE
  8
Engraving
 62
   7
 39
0.600
  6
CONTINUOUS
 10
87.19100
 20
75.50500
 30
 0
 11
87.20200
 21
75.32500
  0
LINE
  8
Engraving
 62
   7
 39
0.600
  6
CONTINUOUS
 10
87.20200
 20
75.32500
 30
 0
 11
87.23600
 21
75.15000
  0
LINE
  8
Engraving
 62
   7
 39
0.600
  6
CONTINUOUS
 10
87.23600
 20
75.15000
 30
 0
 11
87.29000
 21
74.98200
  0
LINE
  8
Engraving
 62
   7
 39
0.600
  6
CONTINUOUS
 10
87.29000
 20
74.98200
 30
 0
 11
87.36400
 21
74.82600
  0
LINE
  8
Engraving
 62
   7
 39
0.600
  6
CONTINUOUS
 10
87.36400
 20
74.82600
 30
 0
 11
87.45800
 21
74.68500
  0
LINE
  8
Engraving
 62
   7
 39
0.600
  6
CONTINUOUS
 10
87.45800
 20
74.68500
 30
 0
 11
87.56700
 21
74.56300
  0
LINE
  8
Engraving
 62
   7
 39
0.600
  6
CONTINUOUS
 10
87.56700
 20
74.56300
 30
 0
 11
87.69000
 21
74.46100
  0
LINE
  8
Engraving
 62
   7
 39
0.600
  6
CONTINUOUS
 10
87.69000
 20
74.46100
 30
 0
 11
87.82400
 21
74.38300
  0
LINE
  8
Engraving
 62
   7
 39
0.600
  6
CONTINUOUS
 10
87.82400
 20
74.38300
 30
 0
 11
87.96600
 21
74.33000
  0
LINE
  8
Engraving
 62
   7
 39
0.600
  6
CONTINUOUS
 10
87.96600
 20
74.33000
 30
 0
 11
88.11400
 21
74.30300
  0
LINE
  8
Engraving
 62
   7
 39
0.600
  6
CONTINUOUS
 10
88.11400
 20
74.30300
 30
 0
 11
88.26200
 21
74.30300
  0
LINE
  8
Engraving
 62
   7
 39
0.600
  6
CONTINUOUS
 10
88.26200
 20
74.30300
 30
 0
 11
88.41000
 21
74.33000
  0
LINE
  8
Engraving
 62
   7
 39
0.600
  6
CONTINUOUS
 10
88.41000
 20
74.33000
 30
 0
 11
88.55200
 21
74.38300
  0
LINE
  8
Engraving
 62
   7
 39
0.600
  6
CONTINUOUS
 10
88.55200
 20
74.38300
 30
 0
 11
88.68700
 21
74.46100
  0
LINE
  8
Engraving
 62
   7
 39
0.600
  6
CONTINUOUS
 10
88.68700
 20
74.46100
 30
 0
 11
88.80900
 21
74.56300
  0
LINE
  8
Engraving
 62
   7
 39
0.600
  6
CONTINUOUS
 10
88.80900
 20
74.56300
 30
 0
 11
88.91800
 21
74.68500
  0
LINE
  8
Engraving
 62
   7
 39
0.600
  6
CONTINUOUS
 10
88.91800
 20
74.68500
 30
 0
 11
89.01200
 21
74.82600
  0
LINE
  8
Engraving
 62
   7
 39
0.600
  6
CONTINUOUS
 10
89.01200
 20
74.82600
 30
 0
 11
89.08600
 21
74.98200
  0
LINE
  8
Engraving
 62
   7
 39
0.600
  6
CONTINUOUS
 10
89.08600
 20
74.98200
 30
 0
 11
89.14000
 21
75.15000
  0
LINE
  8
Engraving
 62
   7
 39
0.600
  6
CONTINUOUS
 10
89.14000
 20
75.15000
 30
 0
 11
89.17400
 21
75.32500
  0
LINE
  8
Engraving
 62
   7
 39
0.600
  6
CONTINUOUS
 10
89.17400
 20
75.32500
 30
 0
 11
89.18500
 21
75.50500
  0
LINE
  8
Engraving
 62
   7
 39
0.600
  6
CONTINUOUS
 10
89.18500
 20
75.50500
 30
 0
 11
89.18500
 21
75.50500
  0
LINE
  8
Engraving
 62
   7
 39
0.600
  6
CONTINUOUS
 10
89.18500
 20
75.50500
 30
 0
 11
89.18500
 21
75.98700
  0
LINE
  8
Engraving
 62
   7
 39
0.600
  6
CONTINUOUS
 10
89.18500
 20
75.98700
 30
 0
 11
89.17400
 21
76.16700
  0
LINE
  8
Engraving
 62
   7
 39
0.600
  6
CONTINUOUS
 10
89.17400
 20
76.16700
 30
 0
 11
89.14000
 21
76.34200
  0
LINE
  8
Engraving
 62
   7
 39
0.600
  6
CONTINUOUS
 10
89.14000
 20
76.34200
 30
 0
 11
89.08600
 21
76.51000
  0
LINE
  8
Engraving
 62
   7
 39
0.600
  6
CONTINUOUS
 10
89.08600
 20
76.51000
 30
 0
 11
89.01200
 21
76.66600
  0
LINE
  8
Engraving
 62
   7
 39
0.600
  6
CONTINUOUS
 10
89.01200
 20
76.66600
 30
 0
 11
88.91800
 21
76.80700
  0
LINE
  8
Engraving
 62
   7
 39
0.600
  6
CONTINUOUS
 10
88.91800
 20
76.80700
 30
 0
 11
88.80900
 21
76.92900
  0
LINE
  8
Engraving
 62
   7
 39
0.600
  6
CONTINUOUS
 10
88.80900
 20
76.92900
 30
 0
 11
88.68700
 21
77.03100
  0
LINE
  8
Engraving
 62
   7
 39
0.600
  6
CONTINUOUS
 10
88.68700
 20
77.03100
 30
 0
 11
88.55200
 21
77.10900
  0
LINE
  8
Engraving
 62
   7
 39
0.600
  6
CONTINUOUS
 10
88.55200
 20
77.10900
 30
 0
 11
88.41000
 21
77.16200
  0
LINE
  8
Engraving
 62
   7
 39
0.600
  6
CONTINUOUS
 10
88.41000
 20
77.16200
 30
 0
 11
88.26200
 21
77.18900
  0
LINE
  8
Engraving
 62
   7
 39
0.600
  6
CONTINUOUS
 10
88.26200
 20
77.18900
 30
 0
 11
88.11400
 21
77.18900
  0
LINE
  8
Engraving
 62
   7
 39
0.600
  6
CONTINUOUS
 10
88.11400
 20
77.18900
 30
 0
 11
87.96600
 21
77.16200
  0
LINE
  8
Engraving
 62
   7
 39
0.600
  6
CONTINUOUS
 10
87.96600
 20
77.16200
 30
 0
 11
87.82400
 21
77.10900
  0
LINE
  8
Engraving
 62
   7
 39
0.600
  6
CONTINUOUS
 10
87.82400
 20
77.10900
 30
 0
 11
87.69000
 21
77.03100
  0
LINE
  8
Engraving
 62
   7
 39
0.600
  6
CONTINUOUS
 10
87.69000
 20
77.03100
 30
 0
 11
87.56700
 21
76.92900
  0
LINE
  8
Engraving
 62
   7
 39
0.600
  6
CONTINUOUS
 10
87.56700
 20
76.92900
 30
 0
 11
87.45800
 21
76.80700
  0
LINE
  8
Engraving
 62
   7
 39
0.600
  6
CONTINUOUS
 10
87.45800
 20
76.80700
 30
 0
 11
87.36400
 21
76.66600
  0
LINE
  8
Engraving
 62
   7
 39
0.600
  6
CONTINUOUS
 10
87.36400
 20
76.66600
 30
 0
 11
87.29000
 21
76.51000
  0
LINE
  8
Engraving
 62
   7
 39
0.600
  6
CONTINUOUS
 10
87.29000
 20
76.51000
 30
 0
 11
87.23600
 21
76.34200
  0
LINE
  8
Engraving
 62
   7
 39
0.600
  6
CONTINUOUS
 10
87.23600
 20
76.34200
 30
 0
 11
87.20200
 21
76.16700
  0
LINE
  8
Engraving
 62
   7
 39
0.600
  6
CONTINUOUS
 10
87.20200
 20
76.16700
 30
 0
 11
87.19100
 21
75.98700
  0
LINE
  8
Engraving
 62
   7
 39
0.600
  6
CONTINUOUS
 10
87.19100
 20
75.98700
 30
 0
 11
87.19100
 21
75.98700
  0
LINE
  8
Engraving
 62
   7
 39
0.600
  6
CONTINUOUS
 10
87.19100
 20
75.98700
 30
 0
 11
87.19100
 21
74.30000
  0
LINE
  8
Engraving
 62
   7
 39
0.600
  6
CONTINUOUS
 10
90.14100
 20
77.19300
 30
 0
 11
91.09800
 21
74.44500
  0
LINE
  8
Engraving
 62
   7
 39
0.600
  6
CONTINUOUS
 10
92.13500
 20
77.19300
 30
 0
 11
90.70000
 21
73.28800
  0
LINE
  8
Engraving
 62
   7
 39
0.600
  6
CONTINUOUS
 10
90.70000
 20
73.28800
 30
 0
 11
90.65800
 21
73.19400
  0
LINE
  8
Engraving
 62
   7
 39
0.600
  6
CONTINUOUS
 10
90.65800
 20
73.19400
 30
 0
 11
90.60500
 21
73.10800
  0
LINE
  8
Engraving
 62
   7
 39
0.600
  6
CONTINUOUS
 10
90.60500
 20
73.10800
 30
 0
 11
90.54300
 21
73.03300
  0
LINE
  8
Engraving
 62
   7
 39
0.600
  6
CONTINUOUS
 10
90.54300
 20
73.03300
 30
 0
 11
90.47300
 21
72.96900
  0
LINE
  8
Engraving
 62
   7
 39
0.600
  6
CONTINUOUS
 10
90.47300
 20
72.96900
 30
 0
 11
90.39500
 21
72.91800
  0
LINE
  8
Engraving
 62
   7
 39
0.600
  6
CONTINUOUS
 10
90.39500
 20
72.91800
 30
 0
 11
90.31300
 21
72.88200
  0
LINE
  8
Engraving
 62
   7
 39
0.600
  6
CONTINUOUS
 10
90.31300
 20
72.88200
 30
 0
 11
90.22600
 21
72.86000
  0
LINE
  8
Engraving
 62
   7
 39
0.600
  6
CONTINUOUS
 10
90.22600
 20
72.86000
 30
 0
 11
90.14100
 21
72.85400
  0
LINE
  8
Engraving
 62
   7
 39
0.600
  6
CONTINUOUS
 10
82.37000
 20
54.20500
 30
 0
 11
82.28200
 21
54.32900
  0
LINE
  8
Engraving
 62
   7
 39
0.600
  6
CONTINUOUS
 10
82.28200
 20
54.32900
 30
 0
 11
82.17900
 21
54.43600
  0
LINE
  8
Engraving
 62
   7
 39
0.600
  6
CONTINUOUS
 10
82.17900
 20
54.43600
 30
 0
 11
82.06500
 21
54.52500
  0
LINE
  8
Engraving
 62
   7
 39
0.600
  6
CONTINUOUS
 10
82.06500
 20
54.52500
 30
 0
 11
81.94200
 21
54.59300
  0
LINE
  8
Engraving
 62
   7
 39
0.600
  6
CONTINUOUS
 10
81.94200
 20
54.59300
 30
 0
 11
81.81200
 21
54.63900
  0
LINE
  8
Engraving
 62
   7
 39
0.600
  6
CONTINUOUS
 10
81.81200
 20
54.63900
 30
 0
 11
81.81200
 21
54.63900
  0
LINE
  8
Engraving
 62
   7
 39
0.600
  6
CONTINUOUS
 10
81.81200
 20
54.63900
 30
 0
 11
81.53300
 21
54.69100
  0
LINE
  8
Engraving
 62
   7
 39
0.600
  6
CONTINUOUS
 10
81.53300
 20
54.69100
 30
 0
 11
81.25100
 21
54.70000
  0
LINE
  8
Engraving
 62
   7
 39
0.600
  6
CONTINUOUS
 10
81.25100
 20
54.70000
 30
 0
 11
80.97100
 21
54.66700
  0
LINE
  8
Engraving
 62
   7
 39
0.600
  6
CONTINUOUS
 10
80.97100
 20
54.66700
 30
 0
 11
80.69600
 21
54.59100
  0
LINE
  8
Engraving
 62
   7
 39
0.600
  6
CONTINUOUS
 10
80.69600
 20
54.59100
 30
 0
 11
80.69600
 21
54.59100
  0
LINE
  8
Engraving
 62
   7
 39
0.600
  6
CONTINUOUS
 10
80.69600
 20
54.59100
 30
 0
 11
80.56500
 21
54.53200
  0
LINE
  8
Engraving
 62
   7
 39
0.600
  6
CONTINUOUS
 10
80.56500
 20
54.53200
 30
 0
 11
80.44200
 21
54.45300
  0
LINE
  8
Engraving
 62
   7
 39
0.600
  6
CONTINUOUS
 10
80.44200
 20
54.45300
 30
 0
 11
80.32800
 21
54.35500
  0
LINE
  8
Engraving
 62
   7
 39
0.600
  6
CONTINUOUS
 10
80.32800
 20
54.35500
 30
 0
 11
80.22600
 21
54.23900
  0
LINE
  8
Engraving
 62
   7
 39
0.600
  6
CONTINUOUS
 10
80.22600
 20
54.23900
 30
 0
 11
80.13700
 21
54.10900
  0
LINE
  8
Engraving
 62
   7
 39
0.600
  6
CONTINUOUS
 10
80.13700
 20
54.10900
 30
 0
 11
80.13700
 21
54.10900
  0
LINE
  8
Engraving
 62
   7
 39
0.600
  6
CONTINUOUS
 10
80.13700
 20
54.10900
 30
 0
 11
80.08300
 21
54.00100
  0
LINE
  8
Engraving
 62
   7
 39
0.600
  6
CONTINUOUS
 10
80.08300
 20
54.00100
 30
 0
 11
80.04100
 21
53.88500
  0
LINE
  8
Engraving
 62
   7
 39
0.600
  6
CONTINUOUS
 10
80.04100
 20
53.88500
 30
 0
 11
80.01400
 21
53.76300
  0
LINE
  8
Engraving
 62
   7
 39
0.600
  6
CONTINUOUS
 10
80.01400
 20
53.76300
 30
 0
 11
80.00200
 21
53.63700
  0
LINE
  8
Engraving
 62
   7
 39
0.600
  6
CONTINUOUS
 10
80.00200
 20
53.63700
 30
 0
 11
80.00400
 21
53.51100
  0
LINE
  8
Engraving
 62
   7
 39
0.600
  6
CONTINUOUS
 10
80.00400
 20
53.51100
 30
 0
 11
80.02200
 21
53.38600
  0
LINE
  8
Engraving
 62
   7
 39
0.600
  6
CONTINUOUS
 10
80.02200
 20
53.38600
 30
 0
 11
80.05400
 21
53.26500
  0
LINE
  8
Engraving
 62
   7
 39
0.600
  6
CONTINUOUS
 10
80.05400
 20
53.26500
 30
 0
 11
80.09900
 21
53.15200
  0
LINE
  8
Engraving
 62
   7
 39
0.600
  6
CONTINUOUS
 10
80.09900
 20
53.15200
 30
 0
 11
80.15900
 21
53.04700
  0
LINE
  8
Engraving
 62
   7
 39
0.600
  6
CONTINUOUS
 10
80.15900
 20
53.04700
 30
 0
 11
80.22900
 21
52.95400
  0
LINE
  8
Engraving
 62
   7
 39
0.600
  6
CONTINUOUS
 10
80.22900
 20
52.95400
 30
 0
 11
80.31000
 21
52.87400
  0
LINE
  8
Engraving
 62
   7
 39
0.600
  6
CONTINUOUS
 10
80.31000
 20
52.87400
 30
 0
 11
80.40000
 21
52.80900
  0
LINE
  8
Engraving
 62
   7
 39
0.600
  6
CONTINUOUS
 10
80.40000
 20
52.80900
 30
 0
 11
80.49600
 21
52.76000
  0
LINE
  8
Engraving
 62
   7
 39
0.600
  6
CONTINUOUS
 10
80.49600
 20
52.76000
 30
 0
 11
80.49600
 21
52.75900
  0
LINE
  8
Engraving
 62
   7
 39
0.600
  6
CONTINUOUS
 10
80.49600
 20
52.75900
 30
 0
 11
81.89100
 21
52.18000
  0
LINE
  8
Engraving
 62
   7
 39
0.600
  6
CONTINUOUS
 10
81.89100
 20
52.18000
 30
 0
 11
81.99100
 21
52.13000
  0
LINE
  8
Engraving
 62
   7
 39
0.600
  6
CONTINUOUS
 10
81.99100
 20
52.13000
 30
 0
 11
82.08200
 21
52.06200
  0
LINE
  8
Engraving
 62
   7
 39
0.600
  6
CONTINUOUS
 10
82.08200
 20
52.06200
 30
 0
 11
82.16400
 21
51.97900
  0
LINE
  8
Engraving
 62
   7
 39
0.600
  6
CONTINUOUS
 10
82.16400
 20
51.97900
 30
 0
 11
82.23600
 21
51.88300
  0
LINE
  8
Engraving
 62
   7
 39
0.600
  6
CONTINUOUS
 10
82.23600
 20
51.88300
 30
 0
 11
82.29500
 21
51.77400
  0
LINE
  8
Engraving
 62
   7
 39
0.600
  6
CONTINUOUS
 10
82.29500
 20
51.77400
 30
 0
 11
82.34000
 21
51.65700
  0
LINE
  8
Engraving
 62
   7
 39
0.600
  6
CONTINUOUS
 10
82.34000
 20
51.65700
 30
 0
 11
82.37100
 21
51.53200
  0
LINE
  8
Engraving
 62
   7
 39
0.600
  6
CONTINUOUS
 10
82.37100
 20
51.53200
 30
 0
 11
82.38600
 21
51.40400
  0
LINE
  8
Engraving
 62
   7
 39
0.600
  6
CONTINUOUS
 10
82.38600
 20
51.40400
 30
 0
 11
82.38600
 21
51.27400
  0
LINE
  8
Engraving
 62
   7
 39
0.600
  6
CONTINUOUS
 10
82.38600
 20
51.27400
 30
 0
 11
82.36900
 21
51.14600
  0
LINE
  8
Engraving
 62
   7
 39
0.600
  6
CONTINUOUS
 10
82.36900
 20
51.14600
 30
 0
 11
82.33700
 21
51.02200
  0
LINE
  8
Engraving
 62
   7
 39
0.600
  6
CONTINUOUS
 10
82.33700
 20
51.02200
 30
 0
 11
82.29100
 21
50.90500
  0
LINE
  8
Engraving
 62
   7
 39
0.600
  6
CONTINUOUS
 10
82.29100
 20
50.90500
 30
 0
 11
82.25000
 21
50.83000
  0
LINE
  8
Engraving
 62
   7
 39
0.600
  6
CONTINUOUS
 10
82.25000
 20
50.83000
 30
 0
 11
82.14900
 21
50.68400
  0
LINE
  8
Engraving
 62
   7
 39
0.600
  6
CONTINUOUS
 10
82.14900
 20
50.68400
 30
 0
 11
82.03100
 21
50.55700
  0
LINE
  8
Engraving
 62
   7
 39
0.600
  6
CONTINUOUS
 10
82.03100
 20
50.55700
 30
 0
 11
81.90000
 21
50.45300
  0
LINE
  8
Engraving
 62
   7
 39
0.600
  6
CONTINUOUS
 10
81.90000
 20
50.45300
 30
 0
 11
81.75600
 21
50.37400
  0
LINE
  8
Engraving
 62
   7
 39
0.600
  6
CONTINUOUS
 10
81.75600
 20
50.37400
 30
 0
 11
81.69200
 21
50.34800
  0
LINE
  8
Engraving
 62
   7
 39
0.600
  6
CONTINUOUS
 10
81.69200
 20
50.34800
 30
 0
 11
81.36600
 21
50.26300
  0
LINE
  8
Engraving
 62
   7
 39
0.600
  6
CONTINUOUS
 10
81.36600
 20
50.26300
 30
 0
 11
81.03300
 21
50.23700
  0
LINE
  8
Engraving
 62
   7
 39
0.600
  6
CONTINUOUS
 10
81.03300
 20
50.23700
 30
 0
 11
80.70000
 21
50.27100
  0
LINE
  8
Engraving
 62
   7
 39
0.600
  6
CONTINUOUS
 10
80.70000
 20
50.27100
 30
 0
 11
80.57600
 21
50.30000
  0
LINE
  8
Engraving
 62
   7
 39
0.600
  6
CONTINUOUS
 10
80.57600
 20
50.30000
 30
 0
 11
80.44200
 21
50.34700
  0
LINE
  8
Engraving
 62
   7
 39
0.600
  6
CONTINUOUS
 10
80.44200
 20
50.34700
 30
 0
 11
80.31700
 21
50.41800
  0
LINE
  8
Engraving
 62
   7
 39
0.600
  6
CONTINUOUS
 10
80.31700
 20
50.41800
 30
 0
 11
80.20100
 21
50.50900
  0
LINE
  8
Engraving
 62
   7
 39
0.600
  6
CONTINUOUS
 10
80.20100
 20
50.50900
 30
 0
 11
80.09800
 21
50.62000
  0
LINE
  8
Engraving
 62
   7
 39
0.600
  6
CONTINUOUS
 10
80.09800
 20
50.62000
 30
 0
 11
80.01700
 21
50.73400
  0
LINE
  8
Engraving
 62
   7
 39
0.600
  6
CONTINUOUS
 10
83.68600
 20
54.63900
 30
 0
 11
83.68600
 21
53.19300
  0
LINE
  8
Engraving
 62
   7
 39
0.600
  6
CONTINUOUS
 10
83.68600
 20
53.19300
 30
 0
 11
84.28400
 21
53.19300
  0
LINE
  8
Engraving
 62
   7
 39
0.600
  6
CONTINUOUS
 10
84.28400
 20
53.19300
 30
 0
 11
83.28700
 21
53.19300
  0
LINE
  8
Engraving
 62
   7
 39
0.600
  6
CONTINUOUS
 10
83.28700
 20
53.19300
 30
 0
 11
83.68600
 21
53.19300
  0
LINE
  8
Engraving
 62
   7
 39
0.600
  6
CONTINUOUS
 10
83.68600
 20
53.19300
 30
 0
 11
83.68600
 21
50.87900
  0
LINE
  8
Engraving
 62
   7
 39
0.600
  6
CONTINUOUS
 10
83.68600
 20
50.87900
 30
 0
 11
83.69100
 21
50.79700
  0
LINE
  8
Engraving
 62
   7
 39
0.600
  6
CONTINUOUS
 10
83.69100
 20
50.79700
 30
 0
 11
83.70400
 21
50.71700
  0
LINE
  8
Engraving
 62
   7
 39
0.600
  6
CONTINUOUS
 10
83.70400
 20
50.71700
 30
 0
 11
83.72700
 21
50.64100
  0
LINE
  8
Engraving
 62
   7
 39
0.600
  6
CONTINUOUS
 10
83.72700
 20
50.64100
 30
 0
 11
83.75900
 21
50.56800
  0
LINE
  8
Engraving
 62
   7
 39
0.600
  6
CONTINUOUS
 10
83.75900
 20
50.56800
 30
 0
 11
83.79800
 21
50.50200
  0
LINE
  8
Engraving
 62
   7
 39
0.600
  6
CONTINUOUS
 10
83.79800
 20
50.50200
 30
 0
 11
83.84500
 21
50.44300
  0
LINE
  8
Engraving
 62
   7
 39
0.600
  6
CONTINUOUS
 10
83.84500
 20
50.44300
 30
 0
 11
83.89800
 21
50.39200
  0
LINE
  8
Engraving
 62
   7
 39
0.600
  6
CONTINUOUS
 10
83.89800
 20
50.39200
 30
 0
 11
83.95600
 21
50.35100
  0
LINE
  8
Engraving
 62
   7
 39
0.600
  6
CONTINUOUS
 10
83.95600
 20
50.35100
 30
 0
 11
84.01900
 21
50.32000
  0
LINE
  8
Engraving
 62
   7
 39
0.600
  6
CONTINUOUS
 10
84.01900
 20
50.32000
 30
 0
 11
84.08500
 21
50.30000
  0
LINE
  8
Engraving
 62
   7
 39
0.600
  6
CONTINUOUS
 10
84.08500
 20
50.30000
 30
 0
 11
84.08500
 21
50.30000
  0
LINE
  8
Engraving
 62
   7
 39
0.600
  6
CONTINUOUS
 10
87.31400
 20
53.19300
 30
 0
 11
87.31400
 21
51.50500
  0
LINE
  8
Engraving
 62
   7
 39
0.600
  6
CONTINUOUS
 10
87.31400
 20
51.50500
 30
 0
 11
87.30200
 21
51.31800
  0
LINE
  8
Engraving
 62
   7
 39
0.600
  6
CONTINUOUS
 10
87.30200
 20
51.31800
 30
 0
 11
87.26800
 21
51.13600
  0
LINE
  8
Engraving
 62
   7
 39
0.600
  6
CONTINUOUS
 10
87.26800
 20
51.13600
 30
 0
 11
87.21100
 21
50.96100
  0
LINE
  8
Engraving
 62
   7
 39
0.600
  6
CONTINUOUS
 10
87.21100
 20
50.96100
 30
 0
 11
87.13400
 21
50.79900
  0
LINE
  8
Engraving
 62
   7
 39
0.600
  6
CONTINUOUS
 10
87.13400
 20
50.79900
 30
 0
 11
87.03800
 21
50.65300
  0
LINE
  8
Engraving
 62
   7
 39
0.600
  6
CONTINUOUS
 10
87.03800
 20
50.65300
 30
 0
 11
86.92400
 21
50.52500
  0
LINE
  8
Engraving
 62
   7
 39
0.600
  6
CONTINUOUS
 10
86.92400
 20
50.52500
 30
 0
 11
86.79600
 21
50.42000
  0
LINE
  8
Engraving
 62
   7
 39
0.600
  6
CONTINUOUS
 10
86.79600
 20
50.42000
 30
 0
 11
86.65700
 21
50.33900
  0
LINE
  8
Engraving
 62
   7
 39
0.600
  6
CONTINUOUS
 10
86.65700
 20
50.33900
 30
 0
 11
86.50800
 21
50.28300
  0
LINE
  8
Engraving
 62
   7
 39
0.600
  6
CONTINUOUS
 10
86.50800
 20
50.28300
 30
 0
 11
86.35500
 21
50.25600
  0
LINE
  8
Engraving
 62
   7
 39
0.600
  6
CONTINUOUS
 10
86.35500
 20
50.25600
 30
 0
 11
86.20000
 21
50.25600
  0
LINE
  8
Engraving
 62
   7
 39
0.600
  6
CONTINUOUS
 10
86.20000
 20
50.25600
 30
 0
 11
86.04700
 21
50.28300
  0
LINE
  8
Engraving
 62
   7
 39
0.600
  6
CONTINUOUS
 10
86.04700
 20
50.28300
 30
 0
 11
85.89900
 21
50.33900
  0
LINE
  8
Engraving
 62
   7
 39
0.600
  6
CONTINUOUS
 10
85.89900
 20
50.33900
 30
 0
 11
85.76000
 21
50.42000
  0
LINE
  8
Engraving
 62
   7
 39
0.600
  6
CONTINUOUS
 10
85.76000
 20
50.42000
 30
 0
 11
85.63200
 21
50.52500
  0
LINE
  8
Engraving
 62
   7
 39
0.600
  6
CONTINUOUS
 10
85.63200
 20
50.52500
 30
 0
 11
85.51800
 21
50.65300
  0
LINE
  8
Engraving
 62
   7
 39
0.600
  6
CONTINUOUS
 10
85.51800
 20
50.65300
 30
 0
 11
85.42200
 21
50.79900
  0
LINE
  8
Engraving
 62
   7
 39
0.600
  6
CONTINUOUS
 10
85.42200
 20
50.79900
 30
 0
 11
85.34400
 21
50.96100
  0
LINE
  8
Engraving
 62
   7
 39
0.600
  6
CONTINUOUS
 10
85.34400
 20
50.96100
 30
 0
 11
85.28800
 21
51.13600
  0
LINE
  8
Engraving
 62
   7
 39
0.600
  6
CONTINUOUS
 10
85.28800
 20
51.13600
 30
 0
 11
85.25300
 21
51.31800
  0
LINE
  8
Engraving
 62
   7
 39
0.600
  6
CONTINUOUS
 10
85.25300
 20
51.31800
 30
 0
 11
85.24200
 21
51.50500
  0
LINE
  8
Engraving
 62
   7
 39
0.600
  6
CONTINUOUS
 10
85.24200
 20
51.50500
 30
 0
 11
85.24100
 21
51.50500
  0
LINE
  8
Engraving
 62
   7
 39
0.600
  6
CONTINUOUS
 10
85.24100
 20
51.50500
 30
 0
 11
85.24100
 21
51.98700
  0
LINE
  8
Engraving
 62
   7
 39
0.600
  6
CONTINUOUS
 10
85.24100
 20
51.98700
 30
 0
 11
85.25200
 21
52.17400
  0
LINE
  8
Engraving
 62
   7
 39
0.600
  6
CONTINUOUS
 10
85.25200
 20
52.17400
 30
 0
 11
85.28700
 21
52.35600
  0
LINE
  8
Engraving
 62
   7
 39
0.600
  6
CONTINUOUS
 10
85.28700
 20
52.35600
 30
 0
 11
85.34300
 21
52.53100
  0
LINE
  8
Engraving
 62
   7
 39
0.600
  6
CONTINUOUS
 10
85.34300
 20
52.53100
 30
 0
 11
85.42100
 21
52.69300
  0
LINE
  8
Engraving
 62
   7
 39
0.600
  6
CONTINUOUS
 10
85.42100
 20
52.69300
 30
 0
 11
85.51700
 21
52.83900
  0
LINE
  8
Engraving
 62
   7
 39
0.600
  6
CONTINUOUS
 10
85.51700
 20
52.83900
 30
 0
 11
85.63100
 21
52.96700
  0
LINE
  8
Engraving
 62
   7
 39
0.600
  6
CONTINUOUS
 10
85.63100
 20
52.96700
 30
 0
 11
85.75900
 21
53.07200
  0
LINE
  8
Engraving
 62
   7
 39
0.600
  6
CONTINUOUS
 10
85.75900
 20
53.07200
 30
 0
 11
85.89800
 21
53.15300
  0
LINE
  8
Engraving
 62
   7
 39
0.600
  6
CONTINUOUS
 10
85.89800
 20
53.15300
 30
 0
 11
86.04600
 21
53.20900
  0
LINE
  8
Engraving
 62
   7
 39
0.600
  6
CONTINUOUS
 10
86.04600
 20
53.20900
 30
 0
 11
86.19900
 21
53.23600
  0
LINE
  8
Engraving
 62
   7
 39
0.600
  6
CONTINUOUS
 10
86.19900
 20
53.23600
 30
 0
 11
86.35500
 21
53.23600
  0
LINE
  8
Engraving
 62
   7
 39
0.600
  6
CONTINUOUS
 10
86.35500
 20
53.23600
 30
 0
 11
86.50800
 21
53.20900
  0
LINE
  8
Engraving
 62
   7
 39
0.600
  6
CONTINUOUS
 10
86.50800
 20
53.20900
 30
 0
 11
86.65600
 21
53.15300
  0
LINE
  8
Engraving
 62
   7
 39
0.600
  6
CONTINUOUS
 10
86.65600
 20
53.15300
 30
 0
 11
86.79500
 21
53.07200
  0
LINE
  8
Engraving
 62
   7
 39
0.600
  6
CONTINUOUS
 10
86.79500
 20
53.07200
 30
 0
 11
86.92300
 21
52.96700
  0
LINE
  8
Engraving
 62
   7
 39
0.600
  6
CONTINUOUS
 10
86.92300
 20
52.96700
 30
 0
 11
87.03700
 21
52.83900
  0
LINE
  8
Engraving
 62
   7
 39
0.600
  6
CONTINUOUS
 10
87.03700
 20
52.83900
 30
 0
 11
87.13300
 21
52.69300
  0
LINE
  8
Engraving
 62
   7
 39
0.600
  6
CONTINUOUS
 10
87.13300
 20
52.69300
 30
 0
 11
87.21100
 21
52.53100
  0
LINE
  8
Engraving
 62
   7
 39
0.600
  6
CONTINUOUS
 10
87.21100
 20
52.53100
 30
 0
 11
87.26700
 21
52.35600
  0
LINE
  8
Engraving
 62
   7
 39
0.600
  6
CONTINUOUS
 10
87.26700
 20
52.35600
 30
 0
 11
87.30200
 21
52.17400
  0
LINE
  8
Engraving
 62
   7
 39
0.600
  6
CONTINUOUS
 10
87.30200
 20
52.17400
 30
 0
 11
87.31300
 21
51.98700
  0
LINE
  8
Engraving
 62
   7
 39
0.600
  6
CONTINUOUS
 10
87.31300
 20
51.98700
 30
 0
 11
87.31400
 21
51.98700
  0
LINE
  8
Engraving
 62
   7
 39
0.600
  6
CONTINUOUS
 10
87.31400
 20
51.98700
 30
 0
 11
87.31400
 21
50.83000
  0
LINE
  8
Engraving
 62
   7
 39
0.600
  6
CONTINUOUS
 10
87.31400
 20
50.83000
 30
 0
 11
87.32800
 21
50.73000
  0
LINE
  8
Engraving
 62
   7
 39
0.600
  6
CONTINUOUS
 10
87.32800
 20
50.73000
 30
 0
 11
87.35400
 21
50.63300
  0
LINE
  8
Engraving
 62
   7
 39
0.600
  6
CONTINUOUS
 10
87.35400
 20
50.63300
 30
 0
 11
87.39100
 21
50.54200
  0
LINE
  8
Engraving
 62
   7
 39
0.600
  6
CONTINUOUS
 10
87.39100
 20
50.54200
 30
 0
 11
87.43800
 21
50.45800
  0
LINE
  8
Engraving
 62
   7
 39
0.600
  6
CONTINUOUS
 10
87.43800
 20
50.45800
 30
 0
 11
87.49500
 21
50.38300
  0
LINE
  8
Engraving
 62
   7
 39
0.600
  6
CONTINUOUS
 10
87.49500
 20
50.38300
 30
 0
 11
87.56000
 21
50.32000
  0
LINE
  8
Engraving
 62
   7
 39
0.600
  6
CONTINUOUS
 10
87.56000
 20
50.32000
 30
 0
 11
87.63300
 21
50.26800
  0
LINE
  8
Engraving
 62
   7
 39
0.600
  6
CONTINUOUS
 10
87.63300
 20
50.26800
 30
 0
 11
87.71100
 21
50.22900
  0
LINE
  8
Engraving
 62
   7
 39
0.600
  6
CONTINUOUS
 10
87.71100
 20
50.22900
 30
 0
 11
87.79200
 21
50.20400
  0
LINE
  8
Engraving
 62
   7
 39
0.600
  6
CONTINUOUS
 10
87.79200
 20
50.20400
 30
 0
 11
87.79200
 21
50.20400
  0
LINE
  8
Engraving
 62
   7
 39
0.600
  6
CONTINUOUS
 10
88.75000
 20
50.30000
 30
 0
 11
88.75000
 21
53.19300
  0
LINE
  8
Engraving
 62
   7
 39
0.600
  6
CONTINUOUS
 10
88.75000
 20
53.19300
 30
 0
 11
88.75000
 21
52.22800
  0
LINE
  8
Engraving
 62
   7
 39
0.600
  6
CONTINUOUS
 10
88.75000
 20
52.22800
 30
 0
 11
88.76000
 21
52.38400
  0
LINE
  8
Engraving
 62
   7
 39
0.600
  6
CONTINUOUS
 10
88.76000
 20
52.38400
 30
 0
 11
88.78800
 21
52.53700
  0
LINE
  8
Engraving
 62
   7
 39
0.600
  6
CONTINUOUS
 10
88.78800
 20
52.53700
 30
 0
 11
88.83400
 21
52.68300
  0
LINE
  8
Engraving
 62
   7
 39
0.600
  6
CONTINUOUS
 10
88.83400
 20
52.68300
 30
 0
 11
88.89900
 21
52.82000
  0
LINE
  8
Engraving
 62
   7
 39
0.600
  6
CONTINUOUS
 10
88.89900
 20
52.82000
 30
 0
 11
88.94900
 21
52.90300
  0
LINE
  8
Engraving
 62
   7
 39
0.600
  6
CONTINUOUS
 10
88.94900
 20
52.90300
 30
 0
 11
89.00600
 21
52.97500
  0
LINE
  8
Engraving
 62
   7
 39
0.600
  6
CONTINUOUS
 10
89.00600
 20
52.97500
 30
 0
 11
89.07100
 21
53.03700
  0
LINE
  8
Engraving
 62
   7
 39
0.600
  6
CONTINUOUS
 10
89.07100
 20
53.03700
 30
 0
 11
89.14300
 21
53.08600
  0
LINE
  8
Engraving
 62
   7
 39
0.600
  6
CONTINUOUS
 10
89.14300
 20
53.08600
 30
 0
 11
89.22000
 21
53.12300
  0
LINE
  8
Engraving
 62
   7
 39
0.600
  6
CONTINUOUS
 10
89.22000
 20
53.12300
 30
 0
 11
89.30100
 21
53.14500
  0
LINE
  8
Engraving
 62
   7
 39
0.600
  6
CONTINUOUS
 10
89.30100
 20
53.14500
 30
 0
 11
89.38400
 21
53.15300
  0
LINE
  8
Engraving
 62
   7
 39
0.600
  6
CONTINUOUS
 10
89.38400
 20
53.15300
 30
 0
 11
89.46700
 21
53.14600
  0
LINE
  8
Engraving
 62
   7
 39
0.600
  6
CONTINUOUS
 10
89.46700
 20
53.14600
 30
 0
 11
89.54700
 21
53.12500
  0
LINE
  8
Engraving
 62
   7
 39
0.600
  6
CONTINUOUS
 10
89.54700
 20
53.12500
 30
 0
 11
89.62500
 21
53.09000
  0
LINE
  8
Engraving
 62
   7
 39
0.600
  6
CONTINUOUS
 10
89.62500
 20
53.09000
 30
 0
 11
89.69700
 21
53.04200
  0
LINE
  8
Engraving
 62
   7
 39
0.600
  6
CONTINUOUS
 10
89.69700
 20
53.04200
 30
 0
 11
89.76300
 21
52.98100
  0
LINE
  8
Engraving
 62
   7
 39
0.600
  6
CONTINUOUS
 10
89.76300
 20
52.98100
 30
 0
 11
89.82100
 21
52.91000
  0
LINE
  8
Engraving
 62
   7
 39
0.600
  6
CONTINUOUS
 10
89.82100
 20
52.91000
 30
 0
 11
89.82600
 21
52.90300
  0
LINE
  8
Engraving
 62
   7
 39
0.600
  6
CONTINUOUS
 10
91.10200
 20
54.63900
 30
 0
 11
91.10200
 21
53.19300
  0
LINE
  8
Engraving
 62
   7
 39
0.600
  6
CONTINUOUS
 10
91.10200
 20
53.19300
 30
 0
 11
91.70000
 21
53.19300
  0
LINE
  8
Engraving
 62
   7
 39
0.600
  6
CONTINUOUS
 10
91.70000
 20
53.19300
 30
 0
 11
90.70300
 21
53.19300
  0
LINE
  8
Engraving
 62
   7
 39
0.600
  6
CONTINUOUS
 10
90.70300
 20
53.19300
 30
 0
 11
91.10200
 21
53.19300
  0
LINE
  8
Engraving
 62
   7
 39
0.600
  6
CONTINUOUS
 10
91.10200
 20
53.19300
 30
 0
 11
91.10200
 21
50.87900
  0
LINE
  8
Engraving
 62
   7
 39
0.600
  6
CONTINUOUS
 10
91.10200
 20
50.87900
 30
 0
 11
91.10700
 21
50.79700
  0
LINE
  8
Engraving
 62
   7
 39
0.600
  6
CONTINUOUS
 10
91.10700
 20
50.79700
 30
 0
 11
91.12000
 21
50.71700
  0
LINE
  8
Engraving
 62
   7
 39
0.600
  6
CONTINUOUS
 10
91.12000
 20
50.71700
 30
 0
 11
91.14300
 21
50.64100
  0
LINE
  8
Engraving
 62
   7
 39
0.600
  6
CONTINUOUS
 10
91.14300
 20
50.64100
 30
 0
 11
91.17400
 21
50.56800
  0
LINE
  8
Engraving
 62
   7
 39
0.600
  6
CONTINUOUS
 10
91.17400
 20
50.56800
 30
 0
 11
91.21400
 21
50.50200
  0
LINE
  8
Engraving
 62
   7
 39
0.600
  6
CONTINUOUS
 10
91.21400
 20
50.50200
 30
 0
 11
91.26000
 21
50.44300
  0
LINE
  8
Engraving
 62
   7
 39
0.600
  6
CONTINUOUS
 10
91.26000
 20
50.44300
 30
 0
 11
91.31400
 21
50.39200
  0
LINE
  8
Engraving
 62
   7
 39
0.600
  6
CONTINUOUS
 10
91.31400
 20
50.39200
 30
 0
 11
91.37200
 21
50.35100
  0
LINE
  8
Engraving
 62
   7
 39
0.600
  6
CONTINUOUS
 10
91.37200
 20
50.35100
 30
 0
 11
91.43500
 21
50.32000
  0
LINE
  8
Engraving
 62
   7
 39
0.600
  6
CONTINUOUS
 10
91.43500
 20
50.32000
 30
 0
 11
91.50000
 21
50.30000
  0
LINE
  8
Engraving
 62
   7
 39
0.600
  6
CONTINUOUS
 10
91.50000
 20
50.30000
 30
 0
 11
91.50000
 21
50.30000
  0
LINE
  8
Engraving
 62
   7
 39
0.600
  6
CONTINUOUS
 10
95.20900
 20
50.01100
 30
 0
 11
96.72400
 21
54.88000
  0
LINE
  8
Engraving
 62
   7
 39
0.600
  6
CONTINUOUS
 10
102.54500
 20
54.20500
 30
 0
 11
102.45600
 21
54.32900
  0
LINE
  8
Engraving
 62
   7
 39
0.600
  6
CONTINUOUS
 10
102.45600
 20
54.32900
 30
 0
 11
102.35400
 21
54.43600
  0
LINE
  8
Engraving
 62
   7
 39
0.600
  6
CONTINUOUS
 10
102.35400
 20
54.43600
 30
 0
 11
102.24000
 21
54.52500
  0
LINE
  8
Engraving
 62
   7
 39
0.600
  6
CONTINUOUS
 10
102.24000
 20
54.52500
 30
 0
 11
102.11600
 21
54.59300
  0
LINE
  8
Engraving
 62
   7
 39
0.600
  6
CONTINUOUS
 10
102.11600
 20
54.59300
 30
 0
 11
101.98700
 21
54.63900
  0
LINE
  8
Engraving
 62
   7
 39
0.600
  6
CONTINUOUS
 10
101.98700
 20
54.63900
 30
 0
 11
101.98700
 21
54.63900
  0
LINE
  8
Engraving
 62
   7
 39
0.600
  6
CONTINUOUS
 10
101.98700
 20
54.63900
 30
 0
 11
101.70800
 21
54.69100
  0
LINE
  8
Engraving
 62
   7
 39
0.600
  6
CONTINUOUS
 10
101.70800
 20
54.69100
 30
 0
 11
101.42600
 21
54.70000
  0
LINE
  8
Engraving
 62
   7
 39
0.600
  6
CONTINUOUS
 10
101.42600
 20
54.70000
 30
 0
 11
101.14600
 21
54.66700
  0
LINE
  8
Engraving
 62
   7
 39
0.600
  6
CONTINUOUS
 10
101.14600
 20
54.66700
 30
 0
 11
100.87000
 21
54.59100
  0
LINE
  8
Engraving
 62
   7
 39
0.600
  6
CONTINUOUS
 10
100.87000
 20
54.59100
 30
 0
 11
100.87000
 21
54.59100
  0
LINE
  8
Engraving
 62
   7
 39
0.600
  6
CONTINUOUS
 10
100.87000
 20
54.59100
 30
 0
 11
100.74000
 21
54.53200
  0
LINE
  8
Engraving
 62
   7
 39
0.600
  6
CONTINUOUS
 10
100.74000
 20
54.53200
 30
 0
 11
100.61600
 21
54.45300
  0
LINE
  8
Engraving
 62
   7
 39
0.600
  6
CONTINUOUS
 10
100.61600
 20
54.45300
 30
 0
 11
100.50300
 21
54.35500
  0
LINE
  8
Engraving
 62
   7
 39
0.600
  6
CONTINUOUS
 10
100.50300
 20
54.35500
 30
 0
 11
100.40000
 21
54.23900
  0
LINE
  8
Engraving
 62
   7
 39
0.600
  6
CONTINUOUS
 10
100.40000
 20
54.23900
 30
 0
 11
100.31200
 21
54.10900
  0
LINE
  8
Engraving
 62
   7
 39
0.600
  6
CONTINUOUS
 10
100.31200
 20
54.10900
 30
 0
 11
100.31200
 21
54.10900
  0
LINE
  8
Engraving
 62
   7
 39
0.600
  6
CONTINUOUS
 10
100.31200
 20
54.10900
 30
 0
 11
100.25700
 21
54.00100
  0
LINE
  8
Engraving
 62
   7
 39
0.600
  6
CONTINUOUS
 10
100.25700
 20
54.00100
 30
 0
 11
100.21600
 21
53.88500
  0
LINE
  8
Engraving
 62
   7
 39
0.600
  6
CONTINUOUS
 10
100.21600
 20
53.88500
 30
 0
 11
100.18900
 21
53.76300
  0
LINE
  8
Engraving
 62
   7
 39
0.600
  6
CONTINUOUS
 10
100.18900
 20
53.76300
 30
 0
 11
100.17600
 21
53.63700
  0
LINE
  8
Engraving
 62
   7
 39
0.600
  6
CONTINUOUS
 10
100.17600
 20
53.63700
 30
 0
 11
100.17900
 21
53.51100
  0
LINE
  8
Engraving
 62
   7
 39
0.600
  6
CONTINUOUS
 10
100.17900
 20
53.51100
 30
 0
 11
100.19600
 21
53.38600
  0
LINE
  8
Engraving
 62
   7
 39
0.600
  6
CONTINUOUS
 10
100.19600
 20
53.38600
 30
 0
 11
100.22800
 21
53.26500
  0
LINE
  8
Engraving
 62
   7
 39
0.600
  6
CONTINUOUS
 10
100.22800
 20
53.26500
 30
 0
 11
100.27400
 21
53.15200
  0
LINE
  8
Engraving
 62
   7
 39
0.600
  6
CONTINUOUS
 10
100.27400
 20
53.15200
 30
 0
 11
100.33300
 21
53.04700
  0
LINE
  8
Engraving
 62
   7
 39
0.600
  6
CONTINUOUS
 10
100.33300
 20
53.04700
 30
 0
 11
100.40400
 21
52.95400
  0
LINE
  8
Engraving
 62
   7
 39
0.600
  6
CONTINUOUS
 10
100.40400
 20
52.95400
 30
 0
 11
100.48500
 21
52.87400
  0
LINE
  8
Engraving
 62
   7
 39
0.600
  6
CONTINUOUS
 10
100.48500
 20
52.87400
 30
 0
 11
100.57500
 21
52.80900
  0
LINE
  8
Engraving
 62
   7
 39
0.600
  6
CONTINUOUS
 10
100.57500
 20
52.80900
 30
 0
 11
100.67100
 21
52.76000
  0
LINE
  8
Engraving
 62
   7
 39
0.600
  6
CONTINUOUS
 10
100.67100
 20
52.76000
 30
 0
 11
100.67100
 21
52.75900
  0
LINE
  8
Engraving
 62
   7
 39
0.600
  6
CONTINUOUS
 10
100.67100
 20
52.75900
 30
 0
 11
102.06600
 21
52.18000
  0
LINE
  8
Engraving
 62
   7
 39
0.600
  6
CONTINUOUS
 10
102.06600
 20
52.18000
 30
 0
 11
102.16500
 21
52.13000
  0
LINE
  8
Engraving
 62
   7
 39
0.600
  6
CONTINUOUS
 10
102.16500
 20
52.13000
 30
 0
 11
102.25600
 21
52.06200
  0
LINE
  8
Engraving
 62
   7
 39
0.600
  6
CONTINUOUS
 10
102.25600
 20
52.06200
 30
 0
 11
102.33900
 21
51.97900
  0
LINE
  8
Engraving
 62
   7
 39
0.600
  6
CONTINUOUS
 10
102.33900
 20
51.97900
 30
 0
 11
102.41100
 21
51.88300
  0
LINE
  8
Engraving
 62
   7
 39
0.600
  6
CONTINUOUS
 10
102.41100
 20
51.88300
 30
 0
 11
102.47000
 21
51.77400
  0
LINE
  8
Engraving
 62
   7
 39
0.600
  6
CONTINUOUS
 10
102.47000
 20
51.77400
 30
 0
 11
102.51500
 21
51.65700
  0
LINE
  8
Engraving
 62
   7
 39
0.600
  6
CONTINUOUS
 10
102.51500
 20
51.65700
 30
 0
 11
102.54600
 21
51.53200
  0
LINE
  8
Engraving
 62
   7
 39
0.600
  6
CONTINUOUS
 10
102.54600
 20
51.53200
 30
 0
 11
102.56100
 21
51.40400
  0
LINE
  8
Engraving
 62
   7
 39
0.600
  6
CONTINUOUS
 10
102.56100
 20
51.40400
 30
 0
 11
102.56100
 21
51.27400
  0
LINE
  8
Engraving
 62
   7
 39
0.600
  6
CONTINUOUS
 10
102.56100
 20
51.27400
 30
 0
 11
102.54400
 21
51.14600
  0
LINE
  8
Engraving
 62
   7
 39
0.600
  6
CONTINUOUS
 10
102.54400
 20
51.14600
 30
 0
 11
102.51200
 21
51.02200
  0
LINE
  8
Engraving
 62
   7
 39
0.600
  6
CONTINUOUS
 10
102.51200
 20
51.02200
 30
 0
 11
102.46500
 21
50.90500
  0
LINE
  8
Engraving
 62
   7
 39
0.600
  6
CONTINUOUS
 10
102.46500
 20
50.90500
 30
 0
 11
102.42500
 21
50.83000
  0
LINE
  8
Engraving
 62
   7
 39
0.600
  6
CONTINUOUS
 10
102.42500
 20
50.83000
 30
 0
 11
102.32400
 21
50.68400
  0
LINE
  8
Engraving
 62
   7
 39
0.600
  6
CONTINUOUS
 10
102.32400
 20
50.68400
 30
 0
 11
102.20600
 21
50.55700
  0
LINE
  8
Engraving
 62
   7
 39
0.600
  6
CONTINUOUS
 10
102.20600
 20
50.55700
 30
 0
 11
102.07400
 21
50.45300
  0
LINE
  8
Engraving
 62
   7
 39
0.600
  6
CONTINUOUS
 10
102.07400
 20
50.45300
 30
 0
 11
101.93000
 21
50.37400
  0
LINE
  8
Engraving
 62
   7
 39
0.600
  6
CONTINUOUS
 10
101.93000
 20
50.37400
 30
 0
 11
101.86700
 21
50.34800
  0
LINE
  8
Engraving
 62
   7
 39
0.600
  6
CONTINUOUS
 10
101.86700
 20
50.34800
 30
 0
 11
101.54100
 21
50.26300
  0
LINE
  8
Engraving
 62
   7
 39
0.600
  6
CONTINUOUS
 10
101.54100
 20
50.26300
 30
 0
 11
101.20800
 21
50.23700
  0
LINE
  8
Engraving
 62
   7
 39
0.600
  6
CONTINUOUS
 10
101.20800
 20
50.23700
 30
 0
 11
100.87500
 21
50.27100
  0
LINE
  8
Engraving
 62
   7
 39
0.600
  6
CONTINUOUS
 10
100.87500
 20
50.27100
 30
 0
 11
100.75000
 21
50.30000
  0
LINE
  8
Engraving
 62
   7
 39
0.600
  6
CONTINUOUS
 10
100.75000
 20
50.30000
 30
 0
 11
100.61700
 21
50.34700
  0
LINE
  8
Engraving
 62
   7
 39
0.600
  6
CONTINUOUS
 10
100.61700
 20
50.34700
 30
 0
 11
100.49100
 21
50.41800
  0
LINE
  8
Engraving
 62
   7
 39
0.600
  6
CONTINUOUS
 10
100.49100
 20
50.41800
 30
 0
 11
100.37600
 21
50.50900
  0
LINE
  8
Engraving
 62
   7
 39
0.600
  6
CONTINUOUS
 10
100.37600
 20
50.50900
 30
 0
 11
100.27200
 21
50.62000
  0
LINE
  8
Engraving
 62
   7
 39
0.600
  6
CONTINUOUS
 10
100.27200
 20
50.62000
 30
 0
 11
100.19200
 21
50.73400
  0
LINE
  8
Engraving
 62
   7
 39
0.600
  6
CONTINUOUS
 10
103.86100
 20
54.63900
 30
 0
 11
103.86100
 21
53.19300
  0
LINE
  8
Engraving
 62
   7
 39
0.600
  6
CONTINUOUS
 10
103.86100
 20
53.19300
 30
 0
 11
104.45900
 21
53.19300
  0
LINE
  8
Engraving
 62
   7
 39
0.600
  6
CONTINUOUS
 10
104.45900
 20
53.19300
 30
 0
 11
103.46100
 21
53.19300
  0
LINE
  8
Engraving
 62
   7
 39
0.600
  6
CONTINUOUS
 10
103.46100
 20
53.19300
 30
 0
 11
103.86100
 21
53.19300
  0
LINE
  8
Engraving
 62
   7
 39
0.600
  6
CONTINUOUS
 10
103.86100
 20
53.19300
 30
 0
 11
103.86100
 21
50.87900
  0
LINE
  8
Engraving
 62
   7
 39
0.600
  6
CONTINUOUS
 10
103.86100
 20
50.87900
 30
 0
 11
103.86600
 21
50.79700
  0
LINE
  8
Engraving
 62
   7
 39
0.600
  6
CONTINUOUS
 10
103.86600
 20
50.79700
 30
 0
 11
103.87900
 21
50.71700
  0
LINE
  8
Engraving
 62
   7
 39
0.600
  6
CONTINUOUS
 10
103.87900
 20
50.71700
 30
 0
 11
103.90200
 21
50.64100
  0
LINE
  8
Engraving
 62
   7
 39
0.600
  6
CONTINUOUS
 10
103.90200
 20
50.64100
 30
 0
 11
103.93300
 21
50.56800
  0
LINE
  8
Engraving
 62
   7
 39
0.600
  6
CONTINUOUS
 10
103.93300
 20
50.56800
 30
 0
 11
103.97300
 21
50.50200
  0
LINE
  8
Engraving
 62
   7
 39
0.600
  6
CONTINUOUS
 10
103.97300
 20
50.50200
 30
 0
 11
104.01900
 21
50.44300
  0
LINE
  8
Engraving
 62
   7
 39
0.600
  6
CONTINUOUS
 10
104.01900
 20
50.44300
 30
 0
 11
104.07300
 21
50.39200
  0
LINE
  8
Engraving
 62
   7
 39
0.600
  6
CONTINUOUS
 10
104.07300
 20
50.39200
 30
 0
 11
104.13100
 21
50.35100
  0
LINE
  8
Engraving
 62
   7
 39
0.600
  6
CONTINUOUS
 10
104.13100
 20
50.35100
 30
 0
 11
104.19400
 21
50.32000
  0
LINE
  8
Engraving
 62
   7
 39
0.600
  6
CONTINUOUS
 10
104.19400
 20
50.32000
 30
 0
 11
104.25900
 21
50.30000
  0
LINE
  8
Engraving
 62
   7
 39
0.600
  6
CONTINUOUS
 10
104.25900
 20
50.30000
 30
 0
 11
104.25900
 21
50.30000
  0
LINE
  8
Engraving
 62
   7
 39
0.600
  6
CONTINUOUS
 10
105.41500
 20
51.50500
 30
 0
 11
105.41500
 21
51.98700
  0
LINE
  8
Engraving
 62
   7
 39
0.600
  6
CONTINUOUS
 10
105.41500
 20
51.98700
 30
 0
 11
105.42600
 21
52.16700
  0
LINE
  8
Engraving
 62
   7
 39
0.600
  6
CONTINUOUS
 10
105.42600
 20
52.16700
 30
 0
 11
105.46000
 21
52.34200
  0
LINE
  8
Engraving
 62
   7
 39
0.600
  6
CONTINUOUS
 10
105.46000
 20
52.34200
 30
 0
 11
105.51400
 21
52.51000
  0
LINE
  8
Engraving
 62
   7
 39
0.600
  6
CONTINUOUS
 10
105.51400
 20
52.51000
 30
 0
 11
105.58800
 21
52.66600
  0
LINE
  8
Engraving
 62
   7
 39
0.600
  6
CONTINUOUS
 10
105.58800
 20
52.66600
 30
 0
 11
105.68200
 21
52.80700
  0
LINE
  8
Engraving
 62
   7
 39
0.600
  6
CONTINUOUS
 10
105.68200
 20
52.80700
 30
 0
 11
105.79100
 21
52.92900
  0
LINE
  8
Engraving
 62
   7
 39
0.600
  6
CONTINUOUS
 10
105.79100
 20
52.92900
 30
 0
 11
105.91400
 21
53.03100
  0
LINE
  8
Engraving
 62
   7
 39
0.600
  6
CONTINUOUS
 10
105.91400
 20
53.03100
 30
 0
 11
106.04800
 21
53.10900
  0
LINE
  8
Engraving
 62
   7
 39
0.600
  6
CONTINUOUS
 10
106.04800
 20
53.10900
 30
 0
 11
106.19000
 21
53.16200
  0
LINE
  8
Engraving
 62
   7
 39
0.600
  6
CONTINUOUS
 10
106.19000
 20
53.16200
 30
 0
 11
106.33700
 21
53.18900
  0
LINE
  8
Engraving
 62
   7
 39
0.600
  6
CONTINUOUS
 10
106.33700
 20
53.18900
 30
 0
 11
106.48600
 21
53.18900
  0
LINE
  8
Engraving
 62
   7
 39
0.600
  6
CONTINUOUS
 10
106.48600
 20
53.18900
 30
 0
 11
106.63400
 21
53.16200
  0
LINE
  8
Engraving
 62
   7
 39
0.600
  6
CONTINUOUS
 10
106.63400
 20
53.16200
 30
 0
 11
106.77600
 21
53.10900
  0
LINE
  8
Engraving
 62
   7
 39
0.600
  6
CONTINUOUS
 10
106.77600
 20
53.10900
 30
 0
 11
106.91100
 21
53.03100
  0
LINE
  8
Engraving
 62
   7
 39
0.600
  6
CONTINUOUS
 10
106.91100
 20
53.03100
 30
 0
 11
107.03300
 21
52.92900
  0
LINE
  8
Engraving
 62
   7
 39
0.600
  6
CONTINUOUS
 10
107.03300
 20
52.92900
 30
 0
 11
107.14200
 21
52.80700
  0
LINE
  8
Engraving
 62
   7
 39
0.600
  6
CONTINUOUS
 10
107.14200
 20
52.80700
 30
 0
 11
107.23600
 21
52.66600
  0
LINE
  8
Engraving
 62
   7
 39
0.600
  6
CONTINUOUS
 10
107.23600
 20
52.66600
 30
 0
 11
107.31000
 21
52.51000
  0
LINE
  8
Engraving
 62
   7
 39
0.600
  6
CONTINUOUS
 10
107.31000
 20
52.51000
 30
 0
 11
107.36400
 21
52.34200
  0
LINE
  8
Engraving
 62
   7
 39
0.600
  6
CONTINUOUS
 10
107.36400
 20
52.34200
 30
 0
 11
107.39800
 21
52.16700
  0
LINE
  8
Engraving
 62
   7
 39
0.600
  6
CONTINUOUS
 10
107.39800
 20
52.16700
 30
 0
 11
107.40800
 21
51.98700
  0
LINE
  8
Engraving
 62
   7
 39
0.600
  6
CONTINUOUS
 10
107.40800
 20
51.98700
 30
 0
 11
107.40800
 21
51.98700
  0
LINE
  8
Engraving
 62
   7
 39
0.600
  6
CONTINUOUS
 10
107.40800
 20
51.98700
 30
 0
 11
107.40800
 21
51.50500
  0
LINE
  8
Engraving
 62
   7
 39
0.600
  6
CONTINUOUS
 10
107.40800
 20
51.50500
 30
 0
 11
107.39800
 21
51.32500
  0
LINE
  8
Engraving
 62
   7
 39
0.600
  6
CONTINUOUS
 10
107.39800
 20
51.32500
 30
 0
 11
107.36400
 21
51.15000
  0
LINE
  8
Engraving
 62
   7
 39
0.600
  6
CONTINUOUS
 10
107.36400
 20
51.15000
 30
 0
 11
107.31000
 21
50.98200
  0
LINE
  8
Engraving
 62
   7
 39
0.600
  6
CONTINUOUS
 10
107.31000
 20
50.98200
 30
 0
 11
107.23600
 21
50.82600
  0
LINE
  8
Engraving
 62
   7
 39
0.600
  6
CONTINUOUS
 10
107.23600
 20
50.82600
 30
 0
 11
107.14200
 21
50.68500
  0
LINE
  8
Engraving
 62
   7
 39
0.600
  6
CONTINUOUS
 10
107.14200
 20
50.68500
 30
 0
 11
107.03300
 21
50.56300
  0
LINE
  8
Engraving
 62
   7
 39
0.600
  6
CONTINUOUS
 10
107.03300
 20
50.56300
 30
 0
 11
106.91100
 21
50.46100
  0
LINE
  8
Engraving
 62
   7
 39
0.600
  6
CONTINUOUS
 10
106.91100
 20
50.46100
 30
 0
 11
106.77600
 21
50.38300
  0
LINE
  8
Engraving
 62
   7
 39
0.600
  6
CONTINUOUS
 10
106.77600
 20
50.38300
 30
 0
 11
106.63400
 21
50.33000
  0
LINE
  8
Engraving
 62
   7
 39
0.600
  6
CONTINUOUS
 10
106.63400
 20
50.33000
 30
 0
 11
106.48600
 21
50.30300
  0
LINE
  8
Engraving
 62
   7
 39
0.600
  6
CONTINUOUS
 10
106.48600
 20
50.30300
 30
 0
 11
106.33700
 21
50.30300
  0
LINE
  8
Engraving
 62
   7
 39
0.600
  6
CONTINUOUS
 10
106.33700
 20
50.30300
 30
 0
 11
106.19000
 21
50.33000
  0
LINE
  8
Engraving
 62
   7
 39
0.600
  6
CONTINUOUS
 10
106.19000
 20
50.33000
 30
 0
 11
106.04800
 21
50.38300
  0
LINE
  8
Engraving
 62
   7
 39
0.600
  6
CONTINUOUS
 10
106.04800
 20
50.38300
 30
 0
 11
105.91400
 21
50.46100
  0
LINE
  8
Engraving
 62
   7
 39
0.600
  6
CONTINUOUS
 10
105.91400
 20
50.46100
 30
 0
 11
105.79100
 21
50.56300
  0
LINE
  8
Engraving
 62
   7
 39
0.600
  6
CONTINUOUS
 10
105.79100
 20
50.56300
 30
 0
 11
105.68200
 21
50.68500
  0
LINE
  8
Engraving
 62
   7
 39
0.600
  6
CONTINUOUS
 10
105.68200
 20
50.68500
 30
 0
 11
105.58800
 21
50.82600
  0
LINE
  8
Engraving
 62
   7
 39
0.600
  6
CONTINUOUS
 10
105.58800
 20
50.82600
 30
 0
 11
105.51400
 21
50.98200
  0
LINE
  8
Engraving
 62
   7
 39
0.600
  6
CONTINUOUS
 10
105.51400
 20
50.98200
 30
 0
 11
105.46000
 21
51.15000
  0
LINE
  8
Engraving
 62
   7
 39
0.600
  6
CONTINUOUS
 10
105.46000
 20
51.15000
 30
 0
 11
105.42600
 21
51.32500
  0
LINE
  8
Engraving
 62
   7
 39
0.600
  6
CONTINUOUS
 10
105.42600
 20
51.32500
 30
 0
 11
105.41500
 21
51.50500
  0
LINE
  8
Engraving
 62
   7
 39
0.600
  6
CONTINUOUS
 10
105.41500
 20
51.50500
 30
 0
 11
105.41500
 21
51.50500
  0
LINE
  8
Engraving
 62
   7
 39
0.600
  6
CONTINUOUS
 10
108.36500
 20
48.85400
 30
 0
 11
108.36500
 21
51.98700
  0
LINE
  8
Engraving
 62
   7
 39
0.600
  6
CONTINUOUS
 10
108.36500
 20
51.98700
 30
 0
 11
108.37600
 21
52.16700
  0
LINE
  8
Engraving
 62
   7
 39
0.600
  6
CONTINUOUS
 10
108.37600
 20
52.16700
 30
 0
 11
108.41000
 21
52.34200
  0
LINE
  8
Engraving
 62
   7
 39
0.600
  6
CONTINUOUS
 10
108.41000
 20
52.34200
 30
 0
 11
108.46400
 21
52.51000
  0
LINE
  8
Engraving
 62
   7
 39
0.600
  6
CONTINUOUS
 10
108.46400
 20
52.51000
 30
 0
 11
108.53800
 21
52.66600
  0
LINE
  8
Engraving
 62
   7
 39
0.600
  6
CONTINUOUS
 10
108.53800
 20
52.66600
 30
 0
 11
108.63200
 21
52.80700
  0
LINE
  8
Engraving
 62
   7
 39
0.600
  6
CONTINUOUS
 10
108.63200
 20
52.80700
 30
 0
 11
108.74100
 21
52.92900
  0
LINE
  8
Engraving
 62
   7
 39
0.600
  6
CONTINUOUS
 10
108.74100
 20
52.92900
 30
 0
 11
108.86400
 21
53.03100
  0
LINE
  8
Engraving
 62
   7
 39
0.600
  6
CONTINUOUS
 10
108.86400
 20
53.03100
 30
 0
 11
108.99800
 21
53.10900
  0
LINE
  8
Engraving
 62
   7
 39
0.600
  6
CONTINUOUS
 10
108.99800
 20
53.10900
 30
 0
 11
109.14000
 21
53.16200
  0
LINE
  8
Engraving
 62
   7
 39
0.600
  6
CONTINUOUS
 10
109.14000
 20
53.16200
 30
 0
 11
109.28700
 21
53.18900
  0
LINE
  8
Engraving
 62
   7
 39
0.600
  6
CONTINUOUS
 10
109.28700
 20
53.18900
 30
 0
 11
109.43600
 21
53.18900
  0
LINE
  8
Engraving
 62
   7
 39
0.600
  6
CONTINUOUS
 10
109.43600
 20
53.18900
 30
 0
 11
109.58300
 21
53.16200
  0
LINE
  8
Engraving
 62
   7
 39
0.600
  6
CONTINUOUS
 10
109.58300
 20
53.16200
 30
 0
 11
109.72600
 21
53.10900
  0
LINE
  8
Engraving
 62
   7
 39
0.600
  6
CONTINUOUS
 10
109.72600
 20
53.10900
 30
 0
 11
109.86000
 21
53.03100
  0
LINE
  8
Engraving
 62
   7
 39
0.600
  6
CONTINUOUS
 10
109.86000
 20
53.03100
 30
 0
 11
109.98300
 21
52.92900
  0
LINE
  8
Engraving
 62
   7
 39
0.600
  6
CONTINUOUS
 10
109.98300
 20
52.92900
 30
 0
 11
110.09200
 21
52.80700
  0
LINE
  8
Engraving
 62
   7
 39
0.600
  6
CONTINUOUS
 10
110.09200
 20
52.80700
 30
 0
 11
110.18600
 21
52.66600
  0
LINE
  8
Engraving
 62
   7
 39
0.600
  6
CONTINUOUS
 10
110.18600
 20
52.66600
 30
 0
 11
110.26000
 21
52.51000
  0
LINE
  8
Engraving
 62
   7
 39
0.600
  6
CONTINUOUS
 10
110.26000
 20
52.51000
 30
 0
 11
110.31400
 21
52.34200
  0
LINE
  8
Engraving
 62
   7
 39
0.600
  6
CONTINUOUS
 10
110.31400
 20
52.34200
 30
 0
 11
110.34800
 21
52.16700
  0
LINE
  8
Engraving
 62
   7
 39
0.600
  6
CONTINUOUS
 10
110.34800
 20
52.16700
 30
 0
 11
110.35800
 21
51.98700
  0
LINE
  8
Engraving
 62
   7
 39
0.600
  6
CONTINUOUS
 10
110.35800
 20
51.98700
 30
 0
 11
110.35900
 21
51.98700
  0
LINE
  8
Engraving
 62
   7
 39
0.600
  6
CONTINUOUS
 10
110.35900
 20
51.98700
 30
 0
 11
110.35900
 21
51.50500
  0
LINE
  8
Engraving
 62
   7
 39
0.600
  6
CONTINUOUS
 10
110.35900
 20
51.50500
 30
 0
 11
110.34800
 21
51.32500
  0
LINE
  8
Engraving
 62
   7
 39
0.600
  6
CONTINUOUS
 10
110.34800
 20
51.32500
 30
 0
 11
110.31500
 21
51.15000
  0
LINE
  8
Engraving
 62
   7
 39
0.600
  6
CONTINUOUS
 10
110.31500
 20
51.15000
 30
 0
 11
110.26100
 21
50.98200
  0
LINE
  8
Engraving
 62
   7
 39
0.600
  6
CONTINUOUS
 10
110.26100
 20
50.98200
 30
 0
 11
110.18600
 21
50.82600
  0
LINE
  8
Engraving
 62
   7
 39
0.600
  6
CONTINUOUS
 10
110.18600
 20
50.82600
 30
 0
 11
110.09300
 21
50.68500
  0
LINE
  8
Engraving
 62
   7
 39
0.600
  6
CONTINUOUS
 10
110.09300
 20
50.68500
 30
 0
 11
109.98400
 21
50.56300
  0
LINE
  8
Engraving
 62
   7
 39
0.600
  6
CONTINUOUS
 10
109.98400
 20
50.56300
 30
 0
 11
109.86100
 21
50.46100
  0
LINE
  8
Engraving
 62
   7
 39
0.600
  6
CONTINUOUS
 10
109.86100
 20
50.46100
 30
 0
 11
109.72700
 21
50.38300
  0
LINE
  8
Engraving
 62
   7
 39
0.600
  6
CONTINUOUS
 10
109.72700
 20
50.38300
 30
 0
 11
109.58400
 21
50.33000
  0
LINE
  8
Engraving
 62
   7
 39
0.600
  6
CONTINUOUS
 10
109.58400
 20
50.33000
 30
 0
 11
109.43700
 21
50.30300
  0
LINE
  8
Engraving
 62
   7
 39
0.600
  6
CONTINUOUS
 10
109.43700
 20
50.30300
 30
 0
 11
109.28800
 21
50.30300
  0
LINE
  8
Engraving
 62
   7
 39
0.600
  6
CONTINUOUS
 10
109.28800
 20
50.30300
 30
 0
 11
109.14100
 21
50.33000
  0
LINE
  8
Engraving
 62
   7
 39
0.600
  6
CONTINUOUS
 10
109.14100
 20
50.33000
 30
 0
 11
108.99900
 21
50.38300
  0
LINE
  8
Engraving
 62
   7
 39
0.600
  6
CONTINUOUS
 10
108.99900
 20
50.38300
 30
 0
 11
108.86500
 21
50.46100
  0
LINE
  8
Engraving
 62
   7
 39
0.600
  6
CONTINUOUS
 10
108.86500
 20
50.46100
 30
 0
 11
108.74200
 21
50.56300
  0
LINE
  8
Engraving
 62
   7
 39
0.600
  6
CONTINUOUS
 10
108.74200
 20
50.56300
 30
 0
 11
108.63200
 21
50.68500
  0
LINE
  8
Engraving
 62
   7
 39
0.600
  6
CONTINUOUS
 10
108.63200
 20
50.68500
 30
 0
 11
108.53900
 21
50.82600
  0
LINE
  8
Engraving
 62
   7
 39
0.600
  6
CONTINUOUS
 10
108.53900
 20
50.82600
 30
 0
 11
108.46500
 21
50.98200
  0
LINE
  8
Engraving
 62
   7
 39
0.600
  6
CONTINUOUS
 10
108.46500
 20
50.98200
 30
 0
 11
108.41100
 21
51.15000
  0
LINE
  8
Engraving
 62
   7
 39
0.600
  6
CONTINUOUS
 10
108.41100
 20
51.15000
 30
 0
 11
108.37700
 21
51.32500
  0
LINE
  8
Engraving
 62
   7
 39
0.600
  6
CONTINUOUS
 10
108.37700
 20
51.32500
 30
 0
 11
108.36600
 21
51.50500
  0
LINE
  8
Engraving
 62
   7
 39
0.600
  6
CONTINUOUS
 10
108.36600
 20
51.50500
 30
 0
 11
108.36500
 21
51.50500
  0
LINE
  8
Engraving
 62
   7
 39
0.600
  6
CONTINUOUS
 10
108.36500
 20
51.50500
 30
 0
 11
108.36500
 21
53.19300
  0
LINE
  8
Engraving
 62
   7
 39
0.600
  6
CONTINUOUS
 10
101.00000
 20
74.30000
 30
 0
 11
101.00000
 21
78.63900
  0
LINE
  8
Engraving
 62
   7
 39
0.600
  6
CONTINUOUS
 10
101.00000
 20
78.63900
 30
 0
 11
102.31600
 21
78.63900
  0
LINE
  8
Engraving
 62
   7
 39
0.600
  6
CONTINUOUS
 10
102.31600
 20
78.63900
 30
 0
 11
102.44600
 21
78.62300
  0
LINE
  8
Engraving
 62
   7
 39
0.600
  6
CONTINUOUS
 10
102.44600
 20
78.62300
 30
 0
 11
102.57200
 21
78.58400
  0
LINE
  8
Engraving
 62
   7
 39
0.600
  6
CONTINUOUS
 10
102.57200
 20
78.58400
 30
 0
 11
102.69200
 21
78.52300
  0
LINE
  8
Engraving
 62
   7
 39
0.600
  6
CONTINUOUS
 10
102.69200
 20
78.52300
 30
 0
 11
102.80500
 21
78.44200
  0
LINE
  8
Engraving
 62
   7
 39
0.600
  6
CONTINUOUS
 10
102.80500
 20
78.44200
 30
 0
 11
102.90500
 21
78.34200
  0
LINE
  8
Engraving
 62
   7
 39
0.600
  6
CONTINUOUS
 10
102.90500
 20
78.34200
 30
 0
 11
102.99300
 21
78.22600
  0
LINE
  8
Engraving
 62
   7
 39
0.600
  6
CONTINUOUS
 10
102.99300
 20
78.22600
 30
 0
 11
103.06600
 21
78.09500
  0
LINE
  8
Engraving
 62
   7
 39
0.600
  6
CONTINUOUS
 10
103.06600
 20
78.09500
 30
 0
 11
103.12300
 21
77.95300
  0
LINE
  8
Engraving
 62
   7
 39
0.600
  6
CONTINUOUS
 10
103.12300
 20
77.95300
 30
 0
 11
103.16200
 21
77.80300
  0
LINE
  8
Engraving
 62
   7
 39
0.600
  6
CONTINUOUS
 10
103.16200
 20
77.80300
 30
 0
 11
103.18200
 21
77.64700
  0
LINE
  8
Engraving
 62
   7
 39
0.600
  6
CONTINUOUS
 10
103.18200
 20
77.64700
 30
 0
 11
103.18300
 21
77.48900
  0
LINE
  8
Engraving
 62
   7
 39
0.600
  6
CONTINUOUS
 10
103.18300
 20
77.48900
 30
 0
 11
103.16600
 21
77.33300
  0
LINE
  8
Engraving
 62
   7
 39
0.600
  6
CONTINUOUS
 10
103.16600
 20
77.33300
 30
 0
 11
103.13000
 21
77.18100
  0
LINE
  8
Engraving
 62
   7
 39
0.600
  6
CONTINUOUS
 10
103.13000
 20
77.18100
 30
 0
 11
103.07700
 21
77.03700
  0
LINE
  8
Engraving
 62
   7
 39
0.600
  6
CONTINUOUS
 10
103.07700
 20
77.03700
 30
 0
 11
103.00600
 21
76.90500
  0
LINE
  8
Engraving
 62
   7
 39
0.600
  6
CONTINUOUS
 10
103.00600
 20
76.90500
 30
 0
 11
102.92000
 21
76.78600
  0
LINE
  8
Engraving
 62
   7
 39
0.600
  6
CONTINUOUS
 10
102.92000
 20
76.78600
 30
 0
 11
102.82200
 21
76.68300
  0
LINE
  8
Engraving
 62
   7
 39
0.600
  6
CONTINUOUS
 10
102.82200
 20
76.68300
 30
 0
 11
102.71100
 21
76.59900
  0
LINE
  8
Engraving
 62
   7
 39
0.600
  6
CONTINUOUS
 10
102.71100
 20
76.59900
 30
 0
 11
102.59200
 21
76.53500
  0
LINE
  8
Engraving
 62
   7
 39
0.600
  6
CONTINUOUS
 10
102.59200
 20
76.53500
 30
 0
 11
102.46600
 21
76.49200
  0
LINE
  8
Engraving
 62
   7
 39
0.600
  6
CONTINUOUS
 10
102.46600
 20
76.49200
 30
 0
 11
102.33700
 21
76.47200
  0
LINE
  8
Engraving
 62
   7
 39
0.600
  6
CONTINUOUS
 10
102.33700
 20
76.47200
 30
 0
 11
102.31600
 21
76.47000
  0
LINE
  8
Engraving
 62
   7
 39
0.600
  6
CONTINUOUS
 10
102.31600
 20
76.47000
 30
 0
 11
101.00000
 21
76.47000
  0
LINE
  8
Engraving
 62
   7
 39
0.600
  6
CONTINUOUS
 10
101.00000
 20
76.47000
 30
 0
 11
102.39500
 21
76.47000
  0
LINE
  8
Engraving
 62
   7
 39
0.600
  6
CONTINUOUS
 10
102.39500
 20
76.47000
 30
 0
 11
103.19200
 21
74.30000
  0
LINE
  8
Engraving
 62
   7
 39
0.600
  6
CONTINUOUS
 10
104.11000
 20
77.19300
 30
 0
 11
104.11000
 21
75.50500
  0
LINE
  8
Engraving
 62
   7
 39
0.600
  6
CONTINUOUS
 10
104.11000
 20
75.50500
 30
 0
 11
104.12000
 21
75.32500
  0
LINE
  8
Engraving
 62
   7
 39
0.600
  6
CONTINUOUS
 10
104.12000
 20
75.32500
 30
 0
 11
104.15400
 21
75.15000
  0
LINE
  8
Engraving
 62
   7
 39
0.600
  6
CONTINUOUS
 10
104.15400
 20
75.15000
 30
 0
 11
104.20800
 21
74.98200
  0
LINE
  8
Engraving
 62
   7
 39
0.600
  6
CONTINUOUS
 10
104.20800
 20
74.98200
 30
 0
 11
104.28200
 21
74.82600
  0
LINE
  8
Engraving
 62
   7
 39
0.600
  6
CONTINUOUS
 10
104.28200
 20
74.82600
 30
 0
 11
104.37600
 21
74.68500
  0
LINE
  8
Engraving
 62
   7
 39
0.600
  6
CONTINUOUS
 10
104.37600
 20
74.68500
 30
 0
 11
104.48500
 21
74.56300
  0
LINE
  8
Engraving
 62
   7
 39
0.600
  6
CONTINUOUS
 10
104.48500
 20
74.56300
 30
 0
 11
104.60800
 21
74.46100
  0
LINE
  8
Engraving
 62
   7
 39
0.600
  6
CONTINUOUS
 10
104.60800
 20
74.46100
 30
 0
 11
104.74200
 21
74.38300
  0
LINE
  8
Engraving
 62
   7
 39
0.600
  6
CONTINUOUS
 10
104.74200
 20
74.38300
 30
 0
 11
104.88400
 21
74.33000
  0
LINE
  8
Engraving
 62
   7
 39
0.600
  6
CONTINUOUS
 10
104.88400
 20
74.33000
 30
 0
 11
105.03200
 21
74.30300
  0
LINE
  8
Engraving
 62
   7
 39
0.600
  6
CONTINUOUS
 10
105.03200
 20
74.30300
 30
 0
 11
105.18000
 21
74.30300
  0
LINE
  8
Engraving
 62
   7
 39
0.600
  6
CONTINUOUS
 10
105.18000
 20
74.30300
 30
 0
 11
105.32800
 21
74.33000
  0
LINE
  8
Engraving
 62
   7
 39
0.600
  6
CONTINUOUS
 10
105.32800
 20
74.33000
 30
 0
 11
105.47000
 21
74.38300
  0
LINE
  8
Engraving
 62
   7
 39
0.600
  6
CONTINUOUS
 10
105.47000
 20
74.38300
 30
 0
 11
105.60500
 21
74.46100
  0
LINE
  8
Engraving
 62
   7
 39
0.600
  6
CONTINUOUS
 10
105.60500
 20
74.46100
 30
 0
 11
105.72700
 21
74.56300
  0
LINE
  8
Engraving
 62
   7
 39
0.600
  6
CONTINUOUS
 10
105.72700
 20
74.56300
 30
 0
 11
105.83600
 21
74.68500
  0
LINE
  8
Engraving
 62
   7
 39
0.600
  6
CONTINUOUS
 10
105.83600
 20
74.68500
 30
 0
 11
105.93000
 21
74.82600
  0
LINE
  8
Engraving
 62
   7
 39
0.600
  6
CONTINUOUS
 10
105.93000
 20
74.82600
 30
 0
 11
106.00400
 21
74.98200
  0
LINE
  8
Engraving
 62
   7
 39
0.600
  6
CONTINUOUS
 10
106.00400
 20
74.98200
 30
 0
 11
106.05800
 21
75.15000
  0
LINE
  8
Engraving
 62
   7
 39
0.600
  6
CONTINUOUS
 10
106.05800
 20
75.15000
 30
 0
 11
106.09200
 21
75.32500
  0
LINE
  8
Engraving
 62
   7
 39
0.600
  6
CONTINUOUS
 10
106.09200
 20
75.32500
 30
 0
 11
106.10300
 21
75.50500
  0
LINE
  8
Engraving
 62
   7
 39
0.600
  6
CONTINUOUS
 10
106.10300
 20
75.50500
 30
 0
 11
106.10300
 21
75.50500
  0
LINE
  8
Engraving
 62
   7
 39
0.600
  6
CONTINUOUS
 10
106.10300
 20
75.50500
 30
 0
 11
106.10300
 21
74.30000
  0
LINE
  8
Engraving
 62
   7
 39
0.600
  6
CONTINUOUS
 10
106.10300
 20
74.30000
 30
 0
 11
106.10300
 21
77.19300
  0
LINE
  8
Engraving
 62
   7
 39
0.600
  6
CONTINUOUS
 10
107.06000
 20
74.30000
 30
 0
 11
107.06000
 21
77.19300
  0
LINE
  8
Engraving
 62
   7
 39
0.600
  6
CONTINUOUS
 10
107.06000
 20
77.19300
 30
 0
 11
107.06000
 21
75.98700
  0
LINE
  8
Engraving
 62
   7
 39
0.600
  6
CONTINUOUS
 10
107.06000
 20
75.98700
 30
 0
 11
107.07100
 21
76.16700
  0
LINE
  8
Engraving
 62
   7
 39
0.600
  6
CONTINUOUS
 10
107.07100
 20
76.16700
 30
 0
 11
107.10500
 21
76.34200
  0
LINE
  8
Engraving
 62
   7
 39
0.600
  6
CONTINUOUS
 10
107.10500
 20
76.34200
 30
 0
 11
107.15900
 21
76.51000
  0
LINE
  8
Engraving
 62
   7
 39
0.600
  6
CONTINUOUS
 10
107.15900
 20
76.51000
 30
 0
 11
107.23300
 21
76.66600
  0
LINE
  8
Engraving
 62
   7
 39
0.600
  6
CONTINUOUS
 10
107.23300
 20
76.66600
 30
 0
 11
107.32700
 21
76.80700
  0
LINE
  8
Engraving
 62
   7
 39
0.600
  6
CONTINUOUS
 10
107.32700
 20
76.80700
 30
 0
 11
107.43600
 21
76.92900
  0
LINE
  8
Engraving
 62
   7
 39
0.600
  6
CONTINUOUS
 10
107.43600
 20
76.92900
 30
 0
 11
107.55900
 21
77.03100
  0
LINE
  8
Engraving
 62
   7
 39
0.600
  6
CONTINUOUS
 10
107.55900
 20
77.03100
 30
 0
 11
107.69300
 21
77.10900
  0
LINE
  8
Engraving
 62
   7
 39
0.600
  6
CONTINUOUS
 10
107.69300
 20
77.10900
 30
 0
 11
107.83500
 21
77.16200
  0
LINE
  8
Engraving
 62
   7
 39
0.600
  6
CONTINUOUS
 10
107.83500
 20
77.16200
 30
 0
 11
107.98200
 21
77.18900
  0
LINE
  8
Engraving
 62
   7
 39
0.600
  6
CONTINUOUS
 10
107.98200
 20
77.18900
 30
 0
 11
108.13100
 21
77.18900
  0
LINE
  8
Engraving
 62
   7
 39
0.600
  6
CONTINUOUS
 10
108.13100
 20
77.18900
 30
 0
 11
108.27800
 21
77.16200
  0
LINE
  8
Engraving
 62
   7
 39
0.600
  6
CONTINUOUS
 10
108.27800
 20
77.16200
 30
 0
 11
108.42100
 21
77.10900
  0
LINE
  8
Engraving
 62
   7
 39
0.600
  6
CONTINUOUS
 10
108.42100
 20
77.10900
 30
 0
 11
108.55500
 21
77.03100
  0
LINE
  8
Engraving
 62
   7
 39
0.600
  6
CONTINUOUS
 10
108.55500
 20
77.03100
 30
 0
 11
108.67800
 21
76.92900
  0
LINE
  8
Engraving
 62
   7
 39
0.600
  6
CONTINUOUS
 10
108.67800
 20
76.92900
 30
 0
 11
108.78700
 21
76.80700
  0
LINE
  8
Engraving
 62
   7
 39
0.600
  6
CONTINUOUS
 10
108.78700
 20
76.80700
 30
 0
 11
108.88000
 21
76.66600
  0
LINE
  8
Engraving
 62
   7
 39
0.600
  6
CONTINUOUS
 10
108.88000
 20
76.66600
 30
 0
 11
108.95500
 21
76.51000
  0
LINE
  8
Engraving
 62
   7
 39
0.600
  6
CONTINUOUS
 10
108.95500
 20
76.51000
 30
 0
 11
109.00900
 21
76.34200
  0
LINE
  8
Engraving
 62
   7
 39
0.600
  6
CONTINUOUS
 10
109.00900
 20
76.34200
 30
 0
 11
109.04300
 21
76.16700
  0
LINE
  8
Engraving
 62
   7
 39
0.600
  6
CONTINUOUS
 10
109.04300
 20
76.16700
 30
 0
 11
109.05300
 21
75.98700
  0
LINE
  8
Engraving
 62
   7
 39
0.600
  6
CONTINUOUS
 10
109.05300
 20
75.98700
 30
 0
 11
109.05300
 21
75.98700
  0
LINE
  8
Engraving
 62
   7
 39
0.600
  6
CONTINUOUS
 10
109.05300
 20
75.98700
 30
 0
 11
109.05300
 21
74.30000
  0
LINE
  8
Engraving
 62
   7
 39
1.000
  6
CONTINUOUS
 10
18.00000
 20
50.50000
 30
 0
 11
18.00000
 21
56.90800
  0
LINE
  8
Engraving
 62
   7
 39
1.000
  6
CONTINUOUS
 10
18.00000
 20
56.90800
 30
 0
 11
19.94300
 21
56.90800
  0
LINE
  8
Engraving
 62
   7
 39
1.000
  6
CONTINUOUS
 10
19.94300
 20
56.90800
 30
 0
 11
20.14100
 21
56.89000
  0
LINE
  8
Engraving
 62
   7
 39
1.000
  6
CONTINUOUS
 10
20.14100
 20
56.89000
 30
 0
 11
20.33400
 21
56.83700
  0
LINE
  8
Engraving
 62
   7
 39
1.000
  6
CONTINUOUS
 10
20.33400
 20
56.83700
 30
 0
 11
20.51800
 21
56.74900
  0
LINE
  8
Engraving
 62
   7
 39
1.000
  6
CONTINUOUS
 10
20.51800
 20
56.74900
 30
 0
 11
20.68900
 21
56.63000
  0
LINE
  8
Engraving
 62
   7
 39
1.000
  6
CONTINUOUS
 10
20.68900
 20
56.63000
 30
 0
 11
20.84500
 21
56.48000
  0
LINE
  8
Engraving
 62
   7
 39
1.000
  6
CONTINUOUS
 10
20.84500
 20
56.48000
 30
 0
 11
20.97900
 21
56.30500
  0
LINE
  8
Engraving
 62
   7
 39
1.000
  6
CONTINUOUS
 10
20.97900
 20
56.30500
 30
 0
 11
21.09000
 21
56.10700
  0
LINE
  8
Engraving
 62
   7
 39
1.000
  6
CONTINUOUS
 10
21.09000
 20
56.10700
 30
 0
 11
21.17700
 21
55.89100
  0
LINE
  8
Engraving
 62
   7
 39
1.000
  6
CONTINUOUS
 10
21.17700
 20
55.89100
 30
 0
 11
21.23500
 21
55.66200
  0
LINE
  8
Engraving
 62
   7
 39
1.000
  6
CONTINUOUS
 10
21.23500
 20
55.66200
 30
 0
 11
21.26500
 21
55.42600
  0
LINE
  8
Engraving
 62
   7
 39
1.000
  6
CONTINUOUS
 10
21.26500
 20
55.42600
 30
 0
 11
21.26500
 21
55.18600
  0
LINE
  8
Engraving
 62
   7
 39
1.000
  6
CONTINUOUS
 10
21.26500
 20
55.18600
 30
 0
 11
21.23500
 21
54.95000
  0
LINE
  8
Engraving
 62
   7
 39
1.000
  6
CONTINUOUS
 10
21.23500
 20
54.95000
 30
 0
 11
21.17700
 21
54.72100
  0
LINE
  8
Engraving
 62
   7
 39
1.000
  6
CONTINUOUS
 10
21.17700
 20
54.72100
 30
 0
 11
21.09000
 21
54.50500
  0
LINE
  8
Engraving
 62
   7
 39
1.000
  6
CONTINUOUS
 10
21.09000
 20
54.50500
 30
 0
 11
20.97900
 21
54.30700
  0
LINE
  8
Engraving
 62
   7
 39
1.000
  6
CONTINUOUS
 10
20.97900
 20
54.30700
 30
 0
 11
20.84500
 21
54.13200
  0
LINE
  8
Engraving
 62
   7
 39
1.000
  6
CONTINUOUS
 10
20.84500
 20
54.13200
 30
 0
 11
20.68900
 21
53.98200
  0
LINE
  8
Engraving
 62
   7
 39
1.000
  6
CONTINUOUS
 10
20.68900
 20
53.98200
 30
 0
 11
20.51800
 21
53.86300
  0
LINE
  8
Engraving
 62
   7
 39
1.000
  6
CONTINUOUS
 10
20.51800
 20
53.86300
 30
 0
 11
20.33400
 21
53.77500
  0
LINE
  8
Engraving
 62
   7
 39
1.000
  6
CONTINUOUS
 10
20.33400
 20
53.77500
 30
 0
 11
20.14100
 21
53.72200
  0
LINE
  8
Engraving
 62
   7
 39
1.000
  6
CONTINUOUS
 10
20.14100
 20
53.72200
 30
 0
 11
19.94300
 21
53.70400
  0
LINE
  8
Engraving
 62
   7
 39
1.000
  6
CONTINUOUS
 10
19.94300
 20
53.70400
 30
 0
 11
19.94300
 21
53.70400
  0
LINE
  8
Engraving
 62
   7
 39
1.000
  6
CONTINUOUS
 10
19.94300
 20
53.70400
 30
 0
 11
18.00000
 21
53.70400
  0
LINE
  8
Engraving
 62
   7
 39
1.000
  6
CONTINUOUS
 10
22.59300
 20
50.50000
 30
 0
 11
22.59300
 21
56.90800
  0
LINE
  8
Engraving
 62
   7
 39
1.000
  6
CONTINUOUS
 10
22.59300
 20
56.90800
 30
 0
 11
24.65400
 21
52.28000
  0
LINE
  8
Engraving
 62
   7
 39
1.000
  6
CONTINUOUS
 10
24.65400
 20
52.28000
 30
 0
 11
26.71500
 21
56.90800
  0
LINE
  8
Engraving
 62
   7
 39
1.000
  6
CONTINUOUS
 10
26.71500
 20
56.90800
 30
 0
 11
26.71500
 21
50.50000
  0
LINE
  8
Engraving
 62
   7
 39
1.000
  6
CONTINUOUS
 10
28.18700
 20
56.26700
 30
 0
 11
28.54000
 21
56.62300
  0
LINE
  8
Engraving
 62
   7
 39
1.000
  6
CONTINUOUS
 10
28.54000
 20
56.62300
 30
 0
 11
28.71500
 21
56.78000
  0
LINE
  8
Engraving
 62
   7
 39
1.000
  6
CONTINUOUS
 10
28.71500
 20
56.78000
 30
 0
 11
28.90900
 21
56.90300
  0
LINE
  8
Engraving
 62
   7
 39
1.000
  6
CONTINUOUS
 10
28.90900
 20
56.90300
 30
 0
 11
29.11500
 21
56.99100
  0
LINE
  8
Engraving
 62
   7
 39
1.000
  6
CONTINUOUS
 10
29.11500
 20
56.99100
 30
 0
 11
29.32900
 21
57.04000
  0
LINE
  8
Engraving
 62
   7
 39
1.000
  6
CONTINUOUS
 10
29.32900
 20
57.04000
 30
 0
 11
29.54700
 21
57.05000
  0
LINE
  8
Engraving
 62
   7
 39
1.000
  6
CONTINUOUS
 10
29.54700
 20
57.05000
 30
 0
 11
29.76500
 21
57.02000
  0
LINE
  8
Engraving
 62
   7
 39
1.000
  6
CONTINUOUS
 10
29.76500
 20
57.02000
 30
 0
 11
29.97600
 21
56.95200
  0
LINE
  8
Engraving
 62
   7
 39
1.000
  6
CONTINUOUS
 10
29.97600
 20
56.95200
 30
 0
 11
30.17600
 21
56.84700
  0
LINE
  8
Engraving
 62
   7
 39
1.000
  6
CONTINUOUS
 10
30.17600
 20
56.84700
 30
 0
 11
30.36100
 21
56.70600
  0
LINE
  8
Engraving
 62
   7
 39
1.000
  6
CONTINUOUS
 10
30.36100
 20
56.70600
 30
 0
 11
30.52700
 21
56.53400
  0
LINE
  8
Engraving
 62
   7
 39
1.000
  6
CONTINUOUS
 10
30.52700
 20
56.53400
 30
 0
 11
30.66900
 21
56.33400
  0
LINE
  8
Engraving
 62
   7
 39
1.000
  6
CONTINUOUS
 10
30.66900
 20
56.33400
 30
 0
 11
30.78500
 21
56.11100
  0
LINE
  8
Engraving
 62
   7
 39
1.000
  6
CONTINUOUS
 10
30.78500
 20
56.11100
 30
 0
 11
30.87200
 21
55.86900
  0
LINE
  8
Engraving
 62
   7
 39
1.000
  6
CONTINUOUS
 10
30.87200
 20
55.86900
 30
 0
 11
30.92900
 21
55.61400
  0
LINE
  8
Engraving
 62
   7
 39
1.000
  6
CONTINUOUS
 10
30.92900
 20
55.61400
 30
 0
 11
30.95400
 21
55.35100
  0
LINE
  8
Engraving
 62
   7
 39
1.000
  6
CONTINUOUS
 10
30.95400
 20
55.35100
 30
 0
 11
30.94600
 21
55.08700
  0
LINE
  8
Engraving
 62
   7
 39
1.000
  6
CONTINUOUS
 10
30.94600
 20
55.08700
 30
 0
 11
30.90500
 21
54.82800
  0
LINE
  8
Engraving
 62
   7
 39
1.000
  6
CONTINUOUS
 10
30.90500
 20
54.82800
 30
 0
 11
30.83300
 21
54.57900
  0
LINE
  8
Engraving
 62
   7
 39
1.000
  6
CONTINUOUS
 10
30.83300
 20
54.57900
 30
 0
 11
30.73200
 21
54.34500
  0
LINE
  8
Engraving
 62
   7
 39
1.000
  6
CONTINUOUS
 10
30.73200
 20
54.34500
 30
 0
 11
30.60200
 21
54.13300
  0
LINE
  8
Engraving
 62
   7
 39
1.000
  6
CONTINUOUS
 10
30.60200
 20
54.13300
 30
 0
 11
30.60100
 21
54.13100
  0
LINE
  8
Engraving
 62
   7
 39
1.000
  6
CONTINUOUS
 10
30.60100
 20
54.13100
 30
 0
 11
28.12800
 21
50.50000
  0
LINE
  8
Engraving
 62
   7
 39
1.000
  6
CONTINUOUS
 10
28.12800
 20
50.50000
 30
 0
 11
31.07200
 21
50.50000
  0
LINE
  8
Engraving
 62
   7
 39
1.000
  6
CONTINUOUS
 10
32.48600
 20
55.19900
 30
 0
 11
32.48600
 21
52.20900
  0
LINE
  8
Engraving
 62
   7
 39
1.000
  6
CONTINUOUS
 10
32.48600
 20
52.20900
 30
 0
 11
32.50300
 21
51.93300
  0
LINE
  8
Engraving
 62
   7
 39
1.000
  6
CONTINUOUS
 10
32.50300
 20
51.93300
 30
 0
 11
32.55400
 21
51.66300
  0
LINE
  8
Engraving
 62
   7
 39
1.000
  6
CONTINUOUS
 10
32.55400
 20
51.66300
 30
 0
 11
32.63700
 21
51.40600
  0
LINE
  8
Engraving
 62
   7
 39
1.000
  6
CONTINUOUS
 10
32.63700
 20
51.40600
 30
 0
 11
32.75200
 21
51.16600
  0
LINE
  8
Engraving
 62
   7
 39
1.000
  6
CONTINUOUS
 10
32.75200
 20
51.16600
 30
 0
 11
32.89400
 21
50.95000
  0
LINE
  8
Engraving
 62
   7
 39
1.000
  6
CONTINUOUS
 10
32.89400
 20
50.95000
 30
 0
 11
33.06200
 21
50.76200
  0
LINE
  8
Engraving
 62
   7
 39
1.000
  6
CONTINUOUS
 10
33.06200
 20
50.76200
 30
 0
 11
33.25200
 21
50.60600
  0
LINE
  8
Engraving
 62
   7
 39
1.000
  6
CONTINUOUS
 10
33.25200
 20
50.60600
 30
 0
 11
33.45700
 21
50.48600
  0
LINE
  8
Engraving
 62
   7
 39
1.000
  6
CONTINUOUS
 10
33.45700
 20
50.48600
 30
 0
 11
33.67600
 21
50.40400
  0
LINE
  8
Engraving
 62
   7
 39
1.000
  6
CONTINUOUS
 10
33.67600
 20
50.40400
 30
 0
 11
33.90200
 21
50.36300
  0
LINE
  8
Engraving
 62
   7
 39
1.000
  6
CONTINUOUS
 10
33.90200
 20
50.36300
 30
 0
 11
34.13100
 21
50.36300
  0
LINE
  8
Engraving
 62
   7
 39
1.000
  6
CONTINUOUS
 10
34.13100
 20
50.36300
 30
 0
 11
34.35700
 21
50.40400
  0
LINE
  8
Engraving
 62
   7
 39
1.000
  6
CONTINUOUS
 10
34.35700
 20
50.40400
 30
 0
 11
34.57600
 21
50.48600
  0
LINE
  8
Engraving
 62
   7
 39
1.000
  6
CONTINUOUS
 10
34.57600
 20
50.48600
 30
 0
 11
34.78200
 21
50.60600
  0
LINE
  8
Engraving
 62
   7
 39
1.000
  6
CONTINUOUS
 10
34.78200
 20
50.60600
 30
 0
 11
34.97100
 21
50.76200
  0
LINE
  8
Engraving
 62
   7
 39
1.000
  6
CONTINUOUS
 10
34.97100
 20
50.76200
 30
 0
 11
35.13900
 21
50.95000
  0
LINE
  8
Engraving
 62
   7
 39
1.000
  6
CONTINUOUS
 10
35.13900
 20
50.95000
 30
 0
 11
35.28100
 21
51.16600
  0
LINE
  8
Engraving
 62
   7
 39
1.000
  6
CONTINUOUS
 10
35.28100
 20
51.16600
 30
 0
 11
35.39600
 21
51.40600
  0
LINE
  8
Engraving
 62
   7
 39
1.000
  6
CONTINUOUS
 10
35.39600
 20
51.40600
 30
 0
 11
35.47900
 21
51.66300
  0
LINE
  8
Engraving
 62
   7
 39
1.000
  6
CONTINUOUS
 10
35.47900
 20
51.66300
 30
 0
 11
35.53000
 21
51.93300
  0
LINE
  8
Engraving
 62
   7
 39
1.000
  6
CONTINUOUS
 10
35.53000
 20
51.93300
 30
 0
 11
35.54700
 21
52.20900
  0
LINE
  8
Engraving
 62
   7
 39
1.000
  6
CONTINUOUS
 10
35.54700
 20
52.20900
 30
 0
 11
35.54700
 21
52.20900
  0
LINE
  8
Engraving
 62
   7
 39
1.000
  6
CONTINUOUS
 10
35.54700
 20
52.20900
 30
 0
 11
35.54700
 21
55.19900
  0
LINE
  8
Engraving
 62
   7
 39
1.000
  6
CONTINUOUS
 10
35.54700
 20
55.19900
 30
 0
 11
35.53000
 21
55.47500
  0
LINE
  8
Engraving
 62
   7
 39
1.000
  6
CONTINUOUS
 10
35.53000
 20
55.47500
 30
 0
 11
35.47900
 21
55.74500
  0
LINE
  8
Engraving
 62
   7
 39
1.000
  6
CONTINUOUS
 10
35.47900
 20
55.74500
 30
 0
 11
35.39600
 21
56.00200
  0
LINE
  8
Engraving
 62
   7
 39
1.000
  6
CONTINUOUS
 10
35.39600
 20
56.00200
 30
 0
 11
35.28100
 21
56.24200
  0
LINE
  8
Engraving
 62
   7
 39
1.000
  6
CONTINUOUS
 10
35.28100
 20
56.24200
 30
 0
 11
35.13900
 21
56.45800
  0
LINE
  8
Engraving
 62
   7
 39
1.000
  6
CONTINUOUS
 10
35.13900
 20
56.45800
 30
 0
 11
34.97100
 21
56.64600
  0
LINE
  8
Engraving
 62
   7
 39
1.000
  6
CONTINUOUS
 10
34.97100
 20
56.64600
 30
 0
 11
34.78200
 21
56.80200
  0
LINE
  8
Engraving
 62
   7
 39
1.000
  6
CONTINUOUS
 10
34.78200
 20
56.80200
 30
 0
 11
34.57600
 21
56.92200
  0
LINE
  8
Engraving
 62
   7
 39
1.000
  6
CONTINUOUS
 10
34.57600
 20
56.92200
 30
 0
 11
34.35700
 21
57.00400
  0
LINE
  8
Engraving
 62
   7
 39
1.000
  6
CONTINUOUS
 10
34.35700
 20
57.00400
 30
 0
 11
34.13100
 21
57.04500
  0
LINE
  8
Engraving
 62
   7
 39
1.000
  6
CONTINUOUS
 10
34.13100
 20
57.04500
 30
 0
 11
33.90200
 21
57.04500
  0
LINE
  8
Engraving
 62
   7
 39
1.000
  6
CONTINUOUS
 10
33.90200
 20
57.04500
 30
 0
 11
33.67600
 21
57.00400
  0
LINE
  8
Engraving
 62
   7
 39
1.000
  6
CONTINUOUS
 10
33.67600
 20
57.00400
 30
 0
 11
33.45700
 21
56.92200
  0
LINE
  8
Engraving
 62
   7
 39
1.000
  6
CONTINUOUS
 10
33.45700
 20
56.92200
 30
 0
 11
33.25200
 21
56.80200
  0
LINE
  8
Engraving
 62
   7
 39
1.000
  6
CONTINUOUS
 10
33.25200
 20
56.80200
 30
 0
 11
33.06200
 21
56.64600
  0
LINE
  8
Engraving
 62
   7
 39
1.000
  6
CONTINUOUS
 10
33.06200
 20
56.64600
 30
 0
 11
32.89400
 21
56.45800
  0
LINE
  8
Engraving
 62
   7
 39
1.000
  6
CONTINUOUS
 10
32.89400
 20
56.45800
 30
 0
 11
32.75200
 21
56.24200
  0
LINE
  8
Engraving
 62
   7
 39
1.000
  6
CONTINUOUS
 10
32.75200
 20
56.24200
 30
 0
 11
32.63700
 21
56.00200
  0
LINE
  8
Engraving
 62
   7
 39
1.000
  6
CONTINUOUS
 10
32.63700
 20
56.00200
 30
 0
 11
32.55400
 21
55.74500
  0
LINE
  8
Engraving
 62
   7
 39
1.000
  6
CONTINUOUS
 10
32.55400
 20
55.74500
 30
 0
 11
32.50300
 21
55.47500
  0
LINE
  8
Engraving
 62
   7
 39
1.000
  6
CONTINUOUS
 10
32.50300
 20
55.47500
 30
 0
 11
32.48600
 21
55.19900
  0
LINE
  8
Engraving
 62
   7
 39
1.000
  6
CONTINUOUS
 10
32.48600
 20
55.19900
 30
 0
 11
32.48600
 21
55.19900
  0
LINE
  8
Engraving
 62
   7
 39
1.000
  6
CONTINUOUS
 10
36.96100
 20
55.19900
 30
 0
 11
36.96100
 21
52.20900
  0
LINE
  8
Engraving
 62
   7
 39
1.000
  6
CONTINUOUS
 10
36.96100
 20
52.20900
 30
 0
 11
36.97800
 21
51.93300
  0
LINE
  8
Engraving
 62
   7
 39
1.000
  6
CONTINUOUS
 10
36.97800
 20
51.93300
 30
 0
 11
37.02800
 21
51.66300
  0
LINE
  8
Engraving
 62
   7
 39
1.000
  6
CONTINUOUS
 10
37.02800
 20
51.66300
 30
 0
 11
37.11200
 21
51.40600
  0
LINE
  8
Engraving
 62
   7
 39
1.000
  6
CONTINUOUS
 10
37.11200
 20
51.40600
 30
 0
 11
37.22700
 21
51.16600
  0
LINE
  8
Engraving
 62
   7
 39
1.000
  6
CONTINUOUS
 10
37.22700
 20
51.16600
 30
 0
 11
37.36900
 21
50.95000
  0
LINE
  8
Engraving
 62
   7
 39
1.000
  6
CONTINUOUS
 10
37.36900
 20
50.95000
 30
 0
 11
37.53700
 21
50.76200
  0
LINE
  8
Engraving
 62
   7
 39
1.000
  6
CONTINUOUS
 10
37.53700
 20
50.76200
 30
 0
 11
37.72600
 21
50.60600
  0
LINE
  8
Engraving
 62
   7
 39
1.000
  6
CONTINUOUS
 10
37.72600
 20
50.60600
 30
 0
 11
37.93200
 21
50.48600
  0
LINE
  8
Engraving
 62
   7
 39
1.000
  6
CONTINUOUS
 10
37.93200
 20
50.48600
 30
 0
 11
38.15100
 21
50.40400
  0
LINE
  8
Engraving
 62
   7
 39
1.000
  6
CONTINUOUS
 10
38.15100
 20
50.40400
 30
 0
 11
38.37700
 21
50.36300
  0
LINE
  8
Engraving
 62
   7
 39
1.000
  6
CONTINUOUS
 10
38.37700
 20
50.36300
 30
 0
 11
38.60600
 21
50.36300
  0
LINE
  8
Engraving
 62
   7
 39
1.000
  6
CONTINUOUS
 10
38.60600
 20
50.36300
 30
 0
 11
38.83200
 21
50.40400
  0
LINE
  8
Engraving
 62
   7
 39
1.000
  6
CONTINUOUS
 10
38.83200
 20
50.40400
 30
 0
 11
39.05000
 21
50.48600
  0
LINE
  8
Engraving
 62
   7
 39
1.000
  6
CONTINUOUS
 10
39.05000
 20
50.48600
 30
 0
 11
39.25700
 21
50.60600
  0
LINE
  8
Engraving
 62
   7
 39
1.000
  6
CONTINUOUS
 10
39.25700
 20
50.60600
 30
 0
 11
39.44600
 21
50.76200
  0
LINE
  8
Engraving
 62
   7
 39
1.000
  6
CONTINUOUS
 10
39.44600
 20
50.76200
 30
 0
 11
39.61400
 21
50.95000
  0
LINE
  8
Engraving
 62
   7
 39
1.000
  6
CONTINUOUS
 10
39.61400
 20
50.95000
 30
 0
 11
39.75600
 21
51.16600
  0
LINE
  8
Engraving
 62
   7
 39
1.000
  6
CONTINUOUS
 10
39.75600
 20
51.16600
 30
 0
 11
39.87100
 21
51.40600
  0
LINE
  8
Engraving
 62
   7
 39
1.000
  6
CONTINUOUS
 10
39.87100
 20
51.40600
 30
 0
 11
39.95400
 21
51.66300
  0
LINE
  8
Engraving
 62
   7
 39
1.000
  6
CONTINUOUS
 10
39.95400
 20
51.66300
 30
 0
 11
40.00500
 21
51.93300
  0
LINE
  8
Engraving
 62
   7
 39
1.000
  6
CONTINUOUS
 10
40.00500
 20
51.93300
 30
 0
 11
40.02200
 21
52.20900
  0
LINE
  8
Engraving
 62
   7
 39
1.000
  6
CONTINUOUS
 10
40.02200
 20
52.20900
 30
 0
 11
40.02200
 21
52.20900
  0
LINE
  8
Engraving
 62
   7
 39
1.000
  6
CONTINUOUS
 10
40.02200
 20
52.20900
 30
 0
 11
40.02200
 21
55.19900
  0
LINE
  8
Engraving
 62
   7
 39
1.000
  6
CONTINUOUS
 10
40.02200
 20
55.19900
 30
 0
 11
40.00500
 21
55.47500
  0
LINE
  8
Engraving
 62
   7
 39
1.000
  6
CONTINUOUS
 10
40.00500
 20
55.47500
 30
 0
 11
39.95400
 21
55.74500
  0
LINE
  8
Engraving
 62
   7
 39
1.000
  6
CONTINUOUS
 10
39.95400
 20
55.74500
 30
 0
 11
39.87100
 21
56.00200
  0
LINE
  8
Engraving
 62
   7
 39
1.000
  6
CONTINUOUS
 10
39.87100
 20
56.00200
 30
 0
 11
39.75600
 21
56.24200
  0
LINE
  8
Engraving
 62
   7
 39
1.000
  6
CONTINUOUS
 10
39.75600
 20
56.24200
 30
 0
 11
39.61400
 21
56.45800
  0
LINE
  8
Engraving
 62
   7
 39
1.000
  6
CONTINUOUS
 10
39.61400
 20
56.45800
 30
 0
 11
39.44600
 21
56.64600
  0
LINE
  8
Engraving
 62
   7
 39
1.000
  6
CONTINUOUS
 10
39.44600
 20
56.64600
 30
 0
 11
39.25700
 21
56.80200
  0
LINE
  8
Engraving
 62
   7
 39
1.000
  6
CONTINUOUS
 10
39.25700
 20
56.80200
 30
 0
 11
39.05000
 21
56.92200
  0
LINE
  8
Engraving
 62
   7
 39
1.000
  6
CONTINUOUS
 10
39.05000
 20
56.92200
 30
 0
 11
38.83200
 21
57.00400
  0
LINE
  8
Engraving
 62
   7
 39
1.000
  6
CONTINUOUS
 10
38.83200
 20
57.00400
 30
 0
 11
38.60600
 21
57.04500
  0
LINE
  8
Engraving
 62
   7
 39
1.000
  6
CONTINUOUS
 10
38.60600
 20
57.04500
 30
 0
 11
38.37700
 21
57.04500
  0
LINE
  8
Engraving
 62
   7
 39
1.000
  6
CONTINUOUS
 10
38.37700
 20
57.04500
 30
 0
 11
38.15100
 21
57.00400
  0
LINE
  8
Engraving
 62
   7
 39
1.000
  6
CONTINUOUS
 10
38.15100
 20
57.00400
 30
 0
 11
37.93200
 21
56.92200
  0
LINE
  8
Engraving
 62
   7
 39
1.000
  6
CONTINUOUS
 10
37.93200
 20
56.92200
 30
 0
 11
37.72600
 21
56.80200
  0
LINE
  8
Engraving
 62
   7
 39
1.000
  6
CONTINUOUS
 10
37.72600
 20
56.80200
 30
 0
 11
37.53700
 21
56.64600
  0
LINE
  8
Engraving
 62
   7
 39
1.000
  6
CONTINUOUS
 10
37.53700
 20
56.64600
 30
 0
 11
37.36900
 21
56.45800
  0
LINE
  8
Engraving
 62
   7
 39
1.000
  6
CONTINUOUS
 10
37.36900
 20
56.45800
 30
 0
 11
37.22700
 21
56.24200
  0
LINE
  8
Engraving
 62
   7
 39
1.000
  6
CONTINUOUS
 10
37.22700
 20
56.24200
 30
 0
 11
37.11200
 21
56.00200
  0
LINE
  8
Engraving
 62
   7
 39
1.000
  6
CONTINUOUS
 10
37.11200
 20
56.00200
 30
 0
 11
37.02800
 21
55.74500
  0
LINE
  8
Engraving
 62
   7
 39
1.000
  6
CONTINUOUS
 10
37.02800
 20
55.74500
 30
 0
 11
36.97800
 21
55.47500
  0
LINE
  8
Engraving
 62
   7
 39
1.000
  6
CONTINUOUS
 10
36.97800
 20
55.47500
 30
 0
 11
36.96100
 21
55.19900
  0
LINE
  8
Engraving
 62
   7
 39
1.000
  6
CONTINUOUS
 10
36.96100
 20
55.19900
 30
 0
 11
36.96100
 21
55.19900
  0
LINE
  8
Engraving
 62
   7
 39
1.000
  6
CONTINUOUS
 10
41.43600
 20
55.19900
 30
 0
 11
41.43600
 21
52.20900
  0
LINE
  8
Engraving
 62
   7
 39
1.000
  6
CONTINUOUS
 10
41.43600
 20
52.20900
 30
 0
 11
41.45300
 21
51.93300
  0
LINE
  8
Engraving
 62
   7
 39
1.000
  6
CONTINUOUS
 10
41.45300
 20
51.93300
 30
 0
 11
41.50300
 21
51.66300
  0
LINE
  8
Engraving
 62
   7
 39
1.000
  6
CONTINUOUS
 10
41.50300
 20
51.66300
 30
 0
 11
41.58700
 21
51.40600
  0
LINE
  8
Engraving
 62
   7
 39
1.000
  6
CONTINUOUS
 10
41.58700
 20
51.40600
 30
 0
 11
41.70200
 21
51.16600
  0
LINE
  8
Engraving
 62
   7
 39
1.000
  6
CONTINUOUS
 10
41.70200
 20
51.16600
 30
 0
 11
41.84400
 21
50.95000
  0
LINE
  8
Engraving
 62
   7
 39
1.000
  6
CONTINUOUS
 10
41.84400
 20
50.95000
 30
 0
 11
42.01200
 21
50.76200
  0
LINE
  8
Engraving
 62
   7
 39
1.000
  6
CONTINUOUS
 10
42.01200
 20
50.76200
 30
 0
 11
42.20100
 21
50.60600
  0
LINE
  8
Engraving
 62
   7
 39
1.000
  6
CONTINUOUS
 10
42.20100
 20
50.60600
 30
 0
 11
42.40700
 21
50.48600
  0
LINE
  8
Engraving
 62
   7
 39
1.000
  6
CONTINUOUS
 10
42.40700
 20
50.48600
 30
 0
 11
42.62600
 21
50.40400
  0
LINE
  8
Engraving
 62
   7
 39
1.000
  6
CONTINUOUS
 10
42.62600
 20
50.40400
 30
 0
 11
42.85200
 21
50.36300
  0
LINE
  8
Engraving
 62
   7
 39
1.000
  6
CONTINUOUS
 10
42.85200
 20
50.36300
 30
 0
 11
43.08000
 21
50.36300
  0
LINE
  8
Engraving
 62
   7
 39
1.000
  6
CONTINUOUS
 10
43.08000
 20
50.36300
 30
 0
 11
43.30700
 21
50.40400
  0
LINE
  8
Engraving
 62
   7
 39
1.000
  6
CONTINUOUS
 10
43.30700
 20
50.40400
 30
 0
 11
43.52500
 21
50.48600
  0
LINE
  8
Engraving
 62
   7
 39
1.000
  6
CONTINUOUS
 10
43.52500
 20
50.48600
 30
 0
 11
43.73200
 21
50.60600
  0
LINE
  8
Engraving
 62
   7
 39
1.000
  6
CONTINUOUS
 10
43.73200
 20
50.60600
 30
 0
 11
43.92100
 21
50.76200
  0
LINE
  8
Engraving
 62
   7
 39
1.000
  6
CONTINUOUS
 10
43.92100
 20
50.76200
 30
 0
 11
44.08900
 21
50.95000
  0
LINE
  8
Engraving
 62
   7
 39
1.000
  6
CONTINUOUS
 10
44.08900
 20
50.95000
 30
 0
 11
44.23100
 21
51.16600
  0
LINE
  8
Engraving
 62
   7
 39
1.000
  6
CONTINUOUS
 10
44.23100
 20
51.16600
 30
 0
 11
44.34600
 21
51.40600
  0
LINE
  8
Engraving
 62
   7
 39
1.000
  6
CONTINUOUS
 10
44.34600
 20
51.40600
 30
 0
 11
44.42900
 21
51.66300
  0
LINE
  8
Engraving
 62
   7
 39
1.000
  6
CONTINUOUS
 10
44.42900
 20
51.66300
 30
 0
 11
44.48000
 21
51.93300
  0
LINE
  8
Engraving
 62
   7
 39
1.000
  6
CONTINUOUS
 10
44.48000
 20
51.93300
 30
 0
 11
44.49700
 21
52.20900
  0
LINE
  8
Engraving
 62
   7
 39
1.000
  6
CONTINUOUS
 10
44.49700
 20
52.20900
 30
 0
 11
44.49700
 21
52.20900
  0
LINE
  8
Engraving
 62
   7
 39
1.000
  6
CONTINUOUS
 10
44.49700
 20
52.20900
 30
 0
 11
44.49700
 21
55.19900
  0
LINE
  8
Engraving
 62
   7
 39
1.000
  6
CONTINUOUS
 10
44.49700
 20
55.19900
 30
 0
 11
44.48000
 21
55.47500
  0
LINE
  8
Engraving
 62
   7
 39
1.000
  6
CONTINUOUS
 10
44.48000
 20
55.47500
 30
 0
 11
44.42900
 21
55.74500
  0
LINE
  8
Engraving
 62
   7
 39
1.000
  6
CONTINUOUS
 10
44.42900
 20
55.74500
 30
 0
 11
44.34600
 21
56.00200
  0
LINE
  8
Engraving
 62
   7
 39
1.000
  6
CONTINUOUS
 10
44.34600
 20
56.00200
 30
 0
 11
44.23100
 21
56.24200
  0
LINE
  8
Engraving
 62
   7
 39
1.000
  6
CONTINUOUS
 10
44.23100
 20
56.24200
 30
 0
 11
44.08900
 21
56.45800
  0
LINE
  8
Engraving
 62
   7
 39
1.000
  6
CONTINUOUS
 10
44.08900
 20
56.45800
 30
 0
 11
43.92100
 21
56.64600
  0
LINE
  8
Engraving
 62
   7
 39
1.000
  6
CONTINUOUS
 10
43.92100
 20
56.64600
 30
 0
 11
43.73200
 21
56.80200
  0
LINE
  8
Engraving
 62
   7
 39
1.000
  6
CONTINUOUS
 10
43.73200
 20
56.80200
 30
 0
 11
43.52500
 21
56.92200
  0
LINE
  8
Engraving
 62
   7
 39
1.000
  6
CONTINUOUS
 10
43.52500
 20
56.92200
 30
 0
 11
43.30700
 21
57.00400
  0
LINE
  8
Engraving
 62
   7
 39
1.000
  6
CONTINUOUS
 10
43.30700
 20
57.00400
 30
 0
 11
43.08000
 21
57.04500
  0
LINE
  8
Engraving
 62
   7
 39
1.000
  6
CONTINUOUS
 10
43.08000
 20
57.04500
 30
 0
 11
42.85200
 21
57.04500
  0
LINE
  8
Engraving
 62
   7
 39
1.000
  6
CONTINUOUS
 10
42.85200
 20
57.04500
 30
 0
 11
42.62600
 21
57.00400
  0
LINE
  8
Engraving
 62
   7
 39
1.000
  6
CONTINUOUS
 10
42.62600
 20
57.00400
 30
 0
 11
42.40700
 21
56.92200
  0
LINE
  8
Engraving
 62
   7
 39
1.000
  6
CONTINUOUS
 10
42.40700
 20
56.92200
 30
 0
 11
42.20100
 21
56.80200
  0
LINE
  8
Engraving
 62
   7
 39
1.000
  6
CONTINUOUS
 10
42.20100
 20
56.80200
 30
 0
 11
42.01200
 21
56.64600
  0
LINE
  8
Engraving
 62
   7
 39
1.000
  6
CONTINUOUS
 10
42.01200
 20
56.64600
 30
 0
 11
41.84400
 21
56.45800
  0
LINE
  8
Engraving
 62
   7
 39
1.000
  6
CONTINUOUS
 10
41.84400
 20
56.45800
 30
 0
 11
41.70200
 21
56.24200
  0
LINE
  8
Engraving
 62
   7
 39
1.000
  6
CONTINUOUS
 10
41.70200
 20
56.24200
 30
 0
 11
41.58700
 21
56.00200
  0
LINE
  8
Engraving
 62
   7
 39
1.000
  6
CONTINUOUS
 10
41.58700
 20
56.00200
 30
 0
 11
41.50300
 21
55.74500
  0
LINE
  8
Engraving
 62
   7
 39
1.000
  6
CONTINUOUS
 10
41.50300
 20
55.74500
 30
 0
 11
41.45300
 21
55.47500
  0
LINE
  8
Engraving
 62
   7
 39
1.000
  6
CONTINUOUS
 10
41.45300
 20
55.47500
 30
 0
 11
41.43600
 21
55.19900
  0
LINE
  8
Engraving
 62
   7
 39
1.000
  6
CONTINUOUS
 10
41.43600
 20
55.19900
 30
 0
 11
41.43600
 21
55.19900
  0
CIRCLE
  8
Contour
 62
   7
 39
0.100
  6
CONTINUOUS
 10
85.00000
 20
85.00000
 30
 0
 40
4.00000
  0
CIRCLE
  8
Contour
 62
   7
 39
0.100
  6
CONTINUOUS
 10
95.00000
 20
65.00000
 30
 0
 40
6.00000
  0
LINE
  8
Contour
 62
   7
 39
0.100
  6
CONTINUOUS
 10
109.50000
 20
41.00000
 30
 0
 11
109.50000
 21
19.00000
  0
ARC
  8
Contour
 62
   7
 39
0.100
  6
CONTINUOUS
 10
109.00000
 20
19.00000
 30
 0
 40
0.50000
 50
270.00000
 51
0.00000
  0
LINE
  8
Contour
 62
   7
 39
0.100
  6
CONTINUOUS
 10
109.00000
 20
18.50000
 30
 0
 11
81.00000
 21
18.50000
  0
ARC
  8
Contour
 62
   7
 39
0.100
  6
CONTINUOUS
 10
81.00000
 20
19.00000
 30
 0
 40
0.50000
 50
180.00000
 51
-90.00000
  0
LINE
  8
Contour
 62
   7
 39
0.100
  6
CONTINUOUS
 10
80.50000
 20
19.00000
 30
 0
 11
80.50000
 21
41.00000
  0
ARC
  8
Contour
 62
   7
 39
0.100
  6
CONTINUOUS
 10
81.00000
 20
41.00000
 30
 0
 40
0.50000
 50
450.00000
 51
180.00000
  0
LINE
  8
Contour
 62
   7
 39
0.100
  6
CONTINUOUS
 10
81.00000
 20
41.50000
 30
 0
 11
109.00000
 21
41.50000
  0
ARC
  8
Contour
 62
   7
 39
0.100
  6
CONTINUOUS
 10
109.00000
 20
41.00000
 30
 0
 40
0.50000
 50
360.00000
 51
90.00000
  0
CIRCLE
  8
Contour
 62
   7
 39
0.100
  6
CONTINUOUS
 10
105.00000
 20
85.00000
 30
 0
 40
4.00000
  0
CIRCLE
  8
Contour
 62
   7
 39
0.100
  6
CONTINUOUS
 10
150.00000
 20
30.00000
 30
 0
 40
10.25000
  0
CIRCLE
  8
Contour
 62
   7
 39
0.100
  6
CONTINUOUS
 10
0.00000
 20
0.00000
 30
 0
 40
10.00000
  0
CIRCLE
  8
Contour
 62
   7
 39
0.100
  6
CONTINUOUS
 10
190.00000
 20
0.00000
 30
 0
 40
10.00000
  0
CIRCLE
  8
Contour
 62
   7
 39
0.100
  6
CONTINUOUS
 10
190.00000
 20
105.00000
 30
 0
 40
10.00000
  0
CIRCLE
  8
Contour
 62
   7
 39
0.100
  6
CONTINUOUS
 10
0.00000
 20
105.00000
 30
 0
 40
10.00000
  0
CIRCLE
  8
Contour
 62
   7
 39
0.100
  6
CONTINUOUS
 10
127.00000
 20
81.00000
 30
 0
 40
1.50000
  0
CIRCLE
  8
Contour
 62
   7
 39
0.100
  6
CONTINUOUS
 10
173.00000
 20
81.00000
 30
 0
 40
1.50000
  0
CIRCLE
  8
Contour
 62
   7
 39
0.100
  6
CONTINUOUS
 10
127.00000
 20
15.00000
 30
 0
 40
1.50000
  0
CIRCLE
  8
Contour
 62
   7
 39
0.100
  6
CONTINUOUS
 10
173.00000
 20
15.00000
 30
 0
 40
1.50000
  0
CIRCLE
  8
Contour
 62
   7
 39
0.100
  6
CONTINUOUS
 10
68.00000
 20
23.00000
 30
 0
 40
1.50000
  0
CIRCLE
  8
Contour
 62
   7
 39
0.100
  6
CONTINUOUS
 10
20.00000
 20
21.70000
 30
 0
 40
1.50000
  0
CIRCLE
  8
Contour
 62
   7
 39
0.100
  6
CONTINUOUS
 10
52.80000
 20
72.80000
 30
 0
 40
1.50000
  0
CIRCLE
  8
Contour
 62
   7
 39
0.100
  6
CONTINUOUS
 10
25.00000
 20
72.80000
 30
 0
 40
1.50000
  0
LINE
  8
Contour
 62
   7
 39
0.100
  6
CONTINUOUS
 10
-1.00000
 20
0.00000
 30
 0
 11
1.00000
 21
0.00000
  0
LINE
  8
Contour
 62
   7
 39
0.100
  6
CONTINUOUS
 10
0.00000
 20
-1.00000
 30
 0
 11
0.00000
 21
1.00000
  0
LINE
  8
Contour
 62
   7
 39
0.100
  6
CONTINUOUS
 10
84.00000
 20
85.00000
 30
 0
 11
86.00000
 21
85.00000
  0
LINE
  8
Contour
 62
   7
 39
0.100
  6
CONTINUOUS
 10
85.00000
 20
84.00000
 30
 0
 11
85.00000
 21
86.00000
  0
LINE
  8
Contour
 62
   7
 39
0.100
  6
CONTINUOUS
 10
94.00000
 20
65.00000
 30
 0
 11
96.00000
 21
65.00000
  0
LINE
  8
Contour
 62
   7
 39
0.100
  6
CONTINUOUS
 10
95.00000
 20
64.00000
 30
 0
 11
95.00000
 21
66.00000
  0
LINE
  8
Contour
 62
   7
 39
0.100
  6
CONTINUOUS
 10
94.00000
 20
30.00000
 30
 0
 11
96.00000
 21
30.00000
  0
LINE
  8
Contour
 62
   7
 39
0.100
  6
CONTINUOUS
 10
95.00000
 20
29.00000
 30
 0
 11
95.00000
 21
31.00000
  0
LINE
  8
Contour
 62
   7
 39
0.100
  6
CONTINUOUS
 10
104.00000
 20
85.00000
 30
 0
 11
106.00000
 21
85.00000
  0
LINE
  8
Contour
 62
   7
 39
0.100
  6
CONTINUOUS
 10
105.00000
 20
84.00000
 30
 0
 11
105.00000
 21
86.00000
  0
LINE
  8
Contour
 62
   7
 39
0.100
  6
CONTINUOUS
 10
149.00000
 20
30.00000
 30
 0
 11
151.00000
 21
30.00000
  0
LINE
  8
Contour
 62
   7
 39
0.100
  6
CONTINUOUS
 10
150.00000
 20
29.00000
 30
 0
 11
150.00000
 21
31.00000
  0
LINE
  8
Contour
 62
   7
 39
0.100
  6
CONTINUOUS
 10
83.00000
 20
10.00000
 30
 0
 11
85.00000
 21
10.00000
  0
LINE
  8
Contour
 62
   7
 39
0.100
  6
CONTINUOUS
 10
84.00000
 20
9.00000
 30
 0
 11
84.00000
 21
11.00000
  0
LINE
  8
Contour
 62
   7
 39
0.100
  6
CONTINUOUS
 10
145.00000
 20
10.00000
 30
 0
 11
147.00000
 21
10.00000
  0
LINE
  8
Contour
 62
   7
 39
0.100
  6
CONTINUOUS
 10
146.00000
 20
9.00000
 30
 0
 11
146.00000
 21
11.00000
  0
LINE
  8
Contour
 62
   7
 39
0.100
  6
CONTINUOUS
 10
78.00000
 20
74.00000
 30
 0
 11
80.00000
 21
74.00000
  0
LINE
  8
Contour
 62
   7
 39
0.100
  6
CONTINUOUS
 10
79.00000
 20
73.00000
 30
 0
 11
79.00000
 21
75.00000
  0
LINE
  8
Contour
 62
   7
 39
0.100
  6
CONTINUOUS
 10
79.00000
 20
50.00000
 30
 0
 11
81.00000
 21
50.00000
  0
LINE
  8
Contour
 62
   7
 39
0.100
  6
CONTINUOUS
 10
80.00000
 20
49.00000
 30
 0
 11
80.00000
 21
51.00000
  0
LINE
  8
Contour
 62
   7
 39
0.100
  6
CONTINUOUS
 10
100.00000
 20
74.00000
 30
 0
 11
102.00000
 21
74.00000
  0
LINE
  8
Contour
 62
   7
 39
0.100
  6
CONTINUOUS
 10
101.00000
 20
73.00000
 30
 0
 11
101.00000
 21
75.00000
  0
LINE
  8
Contour
 62
   7
 39
0.100
  6
CONTINUOUS
 10
17.00000
 20
50.00000
 30
 0
 11
19.00000
 21
50.00000
  0
LINE
  8
Contour
 62
   7
 39
0.100
  6
CONTINUOUS
 10
18.00000
 20
49.00000
 30
 0
 11
18.00000
 21
51.00000
  0
LINE
  8
Contour
 62
   7
 39
0.100
  6
CONTINUOUS
 10
-1.00000
 20
0.00000
 30
 0
 11
1.00000
 21
0.00000
  0
LINE
  8
Contour
 62
   7
 39
0.100
  6
CONTINUOUS
 10
0.00000
 20
-1.00000
 30
 0
 11
0.00000
 21
1.00000
  0
LINE
  8
Contour
 62
   7
 39
0.100
  6
CONTINUOUS
 10
189.00000
 20
0.00000
 30
 0
 11
191.00000
 21
0.00000
  0
LINE
  8
Contour
 62
   7
 39
0.100
  6
CONTINUOUS
 10
190.00000
 20
-1.00000
 30
 0
 11
190.00000
 21
1.00000
  0
LINE
  8
Contour
 62
   7
 39
0.100
  6
CONTINUOUS
 10
189.00000
 20
105.00000
 30
 0
 11
191.00000
 21
105.00000
  0
LINE
  8
Contour
 62
   7
 39
0.100
  6
CONTINUOUS
 10
190.00000
 20
104.00000
 30
 0
 11
190.00000
 21
106.00000
  0
LINE
  8
Contour
 62
   7
 39
0.100
  6
CONTINUOUS
 10
-1.00000
 20
105.00000
 30
 0
 11
1.00000
 21
105.00000
  0
LINE
  8
Contour
 62
   7
 39
0.100
  6
CONTINUOUS
 10
0.00000
 20
104.00000
 30
 0
 11
0.00000
 21
106.00000
  0
LINE
  8
Contour
 62
   7
 39
0.100
  6
CONTINUOUS
 10
126.00000
 20
81.00000
 30
 0
 11
128.00000
 21
81.00000
  0
LINE
  8
Contour
 62
   7
 39
0.100
  6
CONTINUOUS
 10
127.00000
 20
80.00000
 30
 0
 11
127.00000
 21
82.00000
  0
LINE
  8
Contour
 62
   7
 39
0.100
  6
CONTINUOUS
 10
172.00000
 20
81.00000
 30
 0
 11
174.00000
 21
81.00000
  0
LINE
  8
Contour
 62
   7
 39
0.100
  6
CONTINUOUS
 10
173.00000
 20
80.00000
 30
 0
 11
173.00000
 21
82.00000
  0
LINE
  8
Contour
 62
   7
 39
0.100
  6
CONTINUOUS
 10
126.00000
 20
15.00000
 30
 0
 11
128.00000
 21
15.00000
  0
LINE
  8
Contour
 62
   7
 39
0.100
  6
CONTINUOUS
 10
127.00000
 20
14.00000
 30
 0
 11
127.00000
 21
16.00000
  0
LINE
  8
Contour
 62
   7
 39
0.100
  6
CONTINUOUS
 10
172.00000
 20
15.00000
 30
 0
 11
174.00000
 21
15.00000
  0
LINE
  8
Contour
 62
   7
 39
0.100
  6
CONTINUOUS
 10
173.00000
 20
14.00000
 30
 0
 11
173.00000
 21
16.00000
  0
LINE
  8
Contour
 62
   7
 39
0.100
  6
CONTINUOUS
 10
67.00000
 20
23.00000
 30
 0
 11
69.00000
 21
23.00000
  0
LINE
  8
Contour
 62
   7
 39
0.100
  6
CONTINUOUS
 10
68.00000
 20
22.00000
 30
 0
 11
68.00000
 21
24.00000
  0
LINE
  8
Contour
 62
   7
 39
0.100
  6
CONTINUOUS
 10
19.00000
 20
21.70000
 30
 0
 11
21.00000
 21
21.70000
  0
LINE
  8
Contour
 62
   7
 39
0.100
  6
CONTINUOUS
 10
20.00000
 20
20.70000
 30
 0
 11
20.00000
 21
22.70000
  0
LINE
  8
Contour
 62
   7
 39
0.100
  6
CONTINUOUS
 10
51.80000
 20
72.80000
 30
 0
 11
53.80000
 21
72.80000
  0
LINE
  8
Contour
 62
   7
 39
0.100
  6
CONTINUOUS
 10
52.80000
 20
71.80000
 30
 0
 11
52.80000
 21
73.80000
  0
LINE
  8
Contour
 62
   7
 39
0.100
  6
CONTINUOUS
 10
24.00000
 20
72.80000
 30
 0
 11
26.00000
 21
72.80000
  0
LINE
  8
Contour
 62
   7
 39
0.100
  6
CONTINUOUS
 10
25.00000
 20
71.80000
 30
 0
 11
25.00000
 21
73.80000
  0
ENDSEC
  0
EOF
